{
.appVersion = "1265";
DisplayStrings = (
Kk
);
copyright = "Copyright 2014 - 2017 Adobe Systems Incorporated (http://www.adobe.com/), with Reserved Font Name 'Source'. Copyright 2019 Google LLC.";
customParameters = (
{
name = trademark;
value = "Source is a trademark of Adobe Systems Incorporated in the United States and/or other countries.";
},
{
name = "Family Alignment Zones";
value = (
"{729, 20}",
"{669, 15}",
"{646, 13}",
"{549, 14}",
"{527, 13}",
"{475, 13}",
"{0, -15}",
"{-239, -10}"
);
},
{
name = Axes;
value = (
{
Name = Weight;
Tag = wght;
},
{
Name = Contrast;
Tag = CONT;
},
{
Name = Serif;
Tag = SERF;
}
);
},
{
name = "Virtual Master";
value = (
{
Axis = Weight;
Location = "150";
},
{
Axis = Contrast;
Location = "100";
},
{
Axis = Serif;
Location = "100";
}
);
},
{
name = "Enforce Compatibility Check";
value = 1;
},
{
name = vendorID;
value = GOOG;
},
{
name = fsType;
value = (
);
},
{
name = license;
value = "This Font Software is licensed under the SIL Open Font License, Version 1.1. This license is available with a FAQ at: http://scripts.sil.org/OFL";
},
{
name = licenseURL;
value = "http://scripts.sil.org/OFL";
}
);
date = "2019-06-03 20:57:19 +0000";
designer = "Colophon Foundry, Frank Grießhammer";
designerURL = "http://www.adobe.com/type";
familyName = "DM Serif Display";
featurePrefixes = (
{
automatic = 1;
code = "languagesystem DFLT dflt;\012languagesystem latn dflt;\012languagesystem latn ROM;\012languagesystem latn MOL;\012languagesystem latn CAT;\012";
name = Languagesystems;
}
);
features = (
{
automatic = 1;
code = "feature locl;\012feature sups;\012feature frac;\012feature ordn;\012";
name = aalt;
},
{
automatic = 1;

glyphs = (
{
color = 4;
glyphname = A;
lastChange = "2019-06-06 17:07:10 +0000";
layers = (
{
anchors = (
{
name = aboveUC;
position = "{416, 686}";
},
{
name = belowLC;
position = "{255, -22}";
},
{
name = ogonek;
position = "{516, 0}";
}
);
layerId = "7FECB189-581E-46CC-8EA5-5DBBB4FDF678";
paths = (
{
closed = 1;
nodes = (
"146 0 LINE",
"148 10 LINE",
"117 20 LINE SMOOTH",
"95 27 OFFCURVE",
"88 44 OFFCURVE",
"99 65 CURVE SMOOTH",
"350 551 LINE",
"419 66 LINE SMOOTH",
"423 41 OFFCURVE",
"412 26 OFFCURVE",
"390 18 CURVE",
"368 10 LINE",
"365 0 LINE",
"616 0 LINE",
"618 10 LINE",
"592 20 LINE SMOOTH",
"569 30 OFFCURVE",
"557 46 OFFCURVE",
"554 70 CURVE SMOOTH",
"460 660 LINE",
"379 660 LINE",
"75 69 LINE SMOOTH",
"62 42 OFFCURVE",
"45 28 OFFCURVE",
"17 20 CURVE SMOOTH",
"-19 10 LINE",
"-22 0 LINE"
);
},
{
closed = 1;
nodes = (
"462 227 LINE",
"461 247 LINE",
"179 247 LINE",
"173 227 LINE"
);
}
);
width = 658.81329;
}
);
leftKerningGroup = LAT_A;
rightKerningGroup = LAT_A;
unicode = 0041;
},
{
color = 4;
glyphname = AE;
lastChange = "2019-06-06 17:07:10 +0000";
layers = (
{
anchors = (
{
name = aboveUC;
position = "{648, 686}";
}
);
layerId = "7FECB189-581E-46CC-8EA5-5DBBB4FDF678";
paths = (
{
closed = 1;
nodes = (
"120 0 LINE",
"122 10 LINE",
"108 16 LINE SMOOTH",
"84 26 OFFCURVE",
"78 46 OFFCURVE",
"93 67 CURVE SMOOTH",
"208 236 LINE",
"413 236 LINE",
"381 64 LINE SMOOTH",
"377 39 OFFCURVE",
"364 25 OFFCURVE",
"341 17 CURVE SMOOTH",
"320 10 LINE",
"318 0 LINE",
"805 0 LINE",
"844 174 LINE",
"834 174 LINE",
"764 70 LINE SMOOTH",
"741 36 OFFCURVE",
"712 20 OFFCURVE",
"670 20 CURVE SMOOTH",
"510 20 LINE",
"524 104 OFFCURVE",
"548 236 OFFCURVE",
"566 330 CURVE",
"656 330 LINE SMOOTH",
"687 330 OFFCURVE",
"706 316 OFFCURVE",
"715 286 CURVE SMOOTH",
"727 245 LINE",
"737 245 LINE",
"773 436 LINE",
"763 436 LINE",
"728 384 LINE SMOOTH",
"712 360 OFFCURVE",
"693 350 OFFCURVE",
"664 350 CURVE SMOOTH",
"570 350 LINE",
"624 640 LINE",
"760 640 LINE SMOOTH",
"800 640 OFFCURVE",
"823 621 OFFCURVE",
"832 582 CURVE SMOOTH",
"854 486 LINE",
"864 486 LINE",
"889 660 LINE",
"386 660 LINE",
"384 650 LINE",
"402 644 LINE SMOOTH",
"429 634 OFFCURVE",
"437 612 OFFCURVE",
"420 588 CURVE SMOOTH",
"70 73 LINE SMOOTH",
"50 44 OFFCURVE",
"29 28 OFFCURVE",
"-4 16 CURVE SMOOTH",
"-20 10 LINE",
"-22 0 LINE"
);
},
{
closed = 1;
nodes = (
"477 630 LINE",
"485 630 LINE",
"471 549 OFFCURVE",
"450 431 OFFCURVE",
"435 350 CURVE SMOOTH",
"417 256 LINE",
"222 256 LINE"
);
}
);
width = 874.04272;
}
);
leftMetricsKey = A;
rightKerningGroup = LAT_E;
rightMetricsKey = E;
unicode = 00C6;
},
{
color = 4;
glyphname = B;
lastChange = "2019-06-06 17:07:10 +0000";
layers = (
{
anchors = (
{
name = aboveUC;
position = "{343, 686}";
},
{
name = belowLC;
position = "{264, -22}";
}
);
layerId = "7FECB189-581E-46CC-8EA5-5DBBB4FDF678";
paths = (
{
closed = 1;
nodes = (
"278 0 LINE SMOOTH",
"484 0 OFFCURVE",
"566 88 OFFCURVE",
"566 183 CURVE SMOOTH",
"566 261 OFFCURVE",
"508 333 OFFCURVE",
"366 350 CURVE",
"508 363 OFFCURVE",
"577 436 OFFCURVE",
"577 511 CURVE SMOOTH",
"577 589 OFFCURVE",
"521 660 OFFCURVE",
"363 660 CURVE SMOOTH",
"122 660 LINE",
"120 650 LINE",
"130 645 LINE SMOOTH",
"155 632 OFFCURVE",
"166 613 OFFCURVE",
"161 585 CURVE SMOOTH",
"147 508 OFFCURVE",
"133 424 OFFCURVE",
"119 350 CURVE SMOOTH",
"66 76 LINE SMOOTH",
"61 48 OFFCURVE",
"49 33 OFFCURVE",
"23 20 CURVE SMOOTH",
"5 10 LINE",
"2 0 LINE"
);
},
{
closed = 1;
nodes = (
"211 116 OFFCURVE",
"230 214 OFFCURVE",
"246 311 CURVE SMOOTH",
"251 338 LINE",
"297 338 LINE SMOOTH",
"387 338 OFFCURVE",
"429 294 OFFCURVE",
"429 201 CURVE SMOOTH",
"429 94 OFFCURVE",
"371 20 OFFCURVE",
"254 20 CURVE SMOOTH",
"195 20 LINE"
);
},
{
closed = 1;
nodes = (
"309 640 LINE",
"337 640 LINE SMOOTH",
"406 640 OFFCURVE",
"442 595 OFFCURVE",
"442 514 CURVE SMOOTH",
"442 414 OFFCURVE",
"391 358 OFFCURVE",
"291 358 CURVE SMOOTH",
"256 358 LINE"
);
}
);
width = 603.65981;
}
);
leftKerningGroup = LAT_E;
unicode = 0042;
},
{
color = 4;
glyphname = C;
lastChange = "2019-06-06 17:07:10 +0000";
layers = (
{
anchors = (
{
name = aboveUC;
position = "{433, 686}";
},
{
name = baseLC;
position = "{345, 0}";
},
{
name = belowLC;
position = "{331, -22}";
}
);
layerId = "7FECB189-581E-46CC-8EA5-5DBBB4FDF678";
paths = (
{
closed = 1;
nodes = (
"438 -18 OFFCURVE",
"493 2 OFFCURVE",
"545 31 CURVE",
"569 183 LINE",
"559 183 LINE",
"485 63 LINE SMOOTH",
"459 22 OFFCURVE",
"430 2 OFFCURVE",
"378 2 CURVE SMOOTH",
"258 2 OFFCURVE",
"191 107 OFFCURVE",
"191 274 CURVE SMOOTH",
"191 502 OFFCURVE",
"293 658 OFFCURVE",
"447 658 CURVE SMOOTH",
"507 658 OFFCURVE",
"543 639 OFFCURVE",
"560 582 CURVE SMOOTH",
"594 476 LINE",
"604 476 LINE",
"628 630 LINE",
"565 664 OFFCURVE",
"507 678 OFFCURVE",
"439 678 CURVE SMOOTH",
"210 678 OFFCURVE",
"48 497 OFFCURVE",
"48 275 CURVE SMOOTH",
"48 88 OFFCURVE",
"167 -18 OFFCURVE",
"355 -18 CURVE SMOOTH"
);
}
);
width = 599.74051;
}
);
leftKerningGroup = LAT_O;
rightKerningGroup = LAT_C;
unicode = 0043;
},
{
color = 4;
glyphname = D;
lastChange = "2019-06-06 17:07:10 +0000";
layers = (
{
anchors = (
{
name = aboveUC;
position = "{373, 686}";
},
{
name = belowLC;
position = "{258, -22}";
}
);
layerId = "7FECB189-581E-46CC-8EA5-5DBBB4FDF678";
paths = (
{
closed = 1;
nodes = (
"259 0 LINE SMOOTH",
"478 0 OFFCURVE",
"660 142 OFFCURVE",
"661 382 CURVE SMOOTH",
"661 542 OFFCURVE",
"555 660 OFFCURVE",
"347 660 CURVE SMOOTH",
"122 660 LINE",
"120 650 LINE",
"133 643 LINE SMOOTH",
"157 631 OFFCURVE",
"165 613 OFFCURVE",
"161 587 CURVE SMOOTH",
"148 510 OFFCURVE",
"132 421 OFFCURVE",
"119 350 CURVE SMOOTH",
"67 74 LINE SMOOTH",
"62 45 OFFCURVE",
"48 29 OFFCURVE",
"21 17 CURVE SMOOTH",
"5 10 LINE",
"2 0 LINE"
);
},
{
closed = 1;
nodes = (
"210 116 OFFCURVE",
"229 214 OFFCURVE",
"246 311 CURVE SMOOTH",
"309 640 LINE",
"336 640 LINE",
"455 634 OFFCURVE",
"517 556 OFFCURVE",
"517 391 CURVE SMOOTH",
"516 176 OFFCURVE",
"417 20 OFFCURVE",
"246 20 CURVE SMOOTH",
"195 20 LINE"
);
}
);
width = 663.24684;
}
);
leftKerningGroup = LAT_E;
rightKerningGroup = LAT_D;
unicode = 0044;
},
{
color = 4;
glyphname = Eth;
lastChange = "2019-06-06 17:07:10 +0000";
layers = (
{
components = (
{
alignment = -1;
name = D;
}
);
layerId = "7FECB189-581E-46CC-8EA5-5DBBB4FDF678";
paths = (
{
closed = 1;
nodes = (
"409 325 LINE",
"414 352 LINE",
"57 352 LINE",
"52 325 LINE"
);
}
);
width = 663.24684;
}
);
leftKerningGroup = LAT_E;
rightKerningGroup = LAT_D;
rightMetricsKey = D;
unicode = 00D0;
},
{
color = 4;
glyphname = E;
lastChange = "2019-06-06 17:07:10 +0000";
layers = (
{
anchors = (
{
name = aboveUC;
position = "{360, 686}";
},
{
name = belowLC;
position = "{260, -22}";
},
{
name = ogonek;
position = "{396, 0}";
}
);
layerId = "7FECB189-581E-46CC-8EA5-5DBBB4FDF678";
paths = (
{
closed = 1;
nodes = (
"489 0 LINE",
"529 174 LINE",
"519 174 LINE",
"452 75 LINE SMOOTH",
"424 35 OFFCURVE",
"397 20 OFFCURVE",
"356 20 CURVE SMOOTH",
"195 20 LINE",
"211 120 OFFCURVE",
"232 233 OFFCURVE",
"250 330 CURVE",
"339 330 LINE SMOOTH",
"370 330 OFFCURVE",
"390 315 OFFCURVE",
"399 285 CURVE SMOOTH",
"411 245 LINE",
"421 245 LINE",
"457 436 LINE",
"447 436 LINE",
"414 386 LINE SMOOTH",
"398 361 OFFCURVE",
"376 350 OFFCURVE",
"346 350 CURVE SMOOTH",
"254 350 LINE",
"309 640 LINE",
"440 640 LINE SMOOTH",
"486 640 OFFCURVE",
"508 621 OFFCURVE",
"518 578 CURVE SMOOTH",
"538 486 LINE",
"548 486 LINE",
"573 660 LINE",
"122 660 LINE",
"120 650 LINE",
"130 645 LINE SMOOTH",
"155 635 OFFCURVE",
"166 617 OFFCURVE",
"161 590 CURVE SMOOTH",
"148 513 OFFCURVE",
"132 420 OFFCURVE",
"119 350 CURVE SMOOTH",
"65 66 LINE SMOOTH",
"61 41 OFFCURVE",
"47 25 OFFCURVE",
"23 16 CURVE SMOOTH",
"4 10 LINE",
"2 0 LINE"
);
}
);
width = 558.23418;
}
);
leftKerningGroup = LAT_E;
rightKerningGroup = LAT_E;
unicode = 0045;
},
{
color = 4;
glyphname = F;
lastChange = "2019-06-06 17:07:10 +0000";
layers = (
{
anchors = (
{
name = aboveUC;
position = "{357, 686}";
},
{
name = belowLC;
position = "{127, -22}";
}
);
layerId = "7FECB189-581E-46CC-8EA5-5DBBB4FDF678";
paths = (
{
closed = 1;
nodes = (
"253 0 LINE",
"255 10 LINE",
"231 19 LINE",
"208 28 OFFCURVE",
"199 44 OFFCURVE",
"203 69 CURVE SMOOTH",
"217 149 OFFCURVE",
"235 255 OFFCURVE",
"250 330 CURVE",
"327 330 LINE SMOOTH",
"365 330 OFFCURVE",
"382 314 OFFCURVE",
"394 278 CURVE SMOOTH",
"410 233 LINE",
"420 233 LINE",
"459 442 LINE",
"449 442 LINE",
"410 391 LINE SMOOTH",
"388 362 OFFCURVE",
"366 350 OFFCURVE",
"329 350 CURVE SMOOTH",
"254 350 LINE",
"309 640 LINE",
"432 640 LINE SMOOTH",
"486 640 OFFCURVE",
"509 621 OFFCURVE",
"524 571 CURVE SMOOTH",
"546 486 LINE",
"556 486 LINE",
"584 660 LINE",
"122 660 LINE",
"120 650 LINE",
"130 645 LINE SMOOTH",
"155 635 OFFCURVE",
"166 617 OFFCURVE",
"161 590 CURVE SMOOTH",
"148 513 OFFCURVE",
"132 421 OFFCURVE",
"119 350 CURVE SMOOTH",
"66 67 LINE SMOOTH",
"61 43 OFFCURVE",
"49 29 OFFCURVE",
"26 19 CURVE SMOOTH",
"4 10 LINE",
"2 0 LINE"
);
}
);
width = 526.85127;
}
);
leftKerningGroup = LAT_E;
unicode = 0046;
},
{
color = 4;
glyphname = G;
lastChange = "2019-06-06 17:07:10 +0000";
layers = (
{
anchors = (
{
name = aboveUC;
position = "{436, 686}";
},
{
name = belowLC;
position = "{355, -22}";
}
);
layerId = "7FECB189-581E-46CC-8EA5-5DBBB4FDF678";
paths = (
{
closed = 1;
nodes = (
"435 -17 OFFCURVE",
"490 -1 OFFCURVE",
"549 25 CURVE",
"592 252 LINE SMOOTH",
"598 281 OFFCURVE",
"611 297 OFFCURVE",
"637 308 CURVE SMOOTH",
"659 318 LINE",
"661 328 LINE",
"390 328 LINE",
"388 318 LINE",
"410 311 LINE SMOOTH",
"445 300 OFFCURVE",
"460 277 OFFCURVE",
"453 241 CURVE SMOOTH",
"446 189 OFFCURVE",
"436 129 OFFCURVE",
"429 86 CURVE SMOOTH",
"423 55 LINE SMOOTH",
"416 14 OFFCURVE",
"395 3 OFFCURVE",
"361 3 CURVE SMOOTH",
"265 3 OFFCURVE",
"192 103 OFFCURVE",
"192 270 CURVE SMOOTH",
"192 494 OFFCURVE",
"299 658 OFFCURVE",
"453 658 CURVE SMOOTH",
"519 658 OFFCURVE",
"543 636 OFFCURVE",
"564 575 CURVE SMOOTH",
"602 471 LINE",
"612 471 LINE",
"636 628 LINE",
"575 662 OFFCURVE",
"511 678 OFFCURVE",
"441 678 CURVE SMOOTH",
"217 678 OFFCURVE",
"48 504 OFFCURVE",
"48 274 CURVE SMOOTH",
"48 90 OFFCURVE",
"164 -17 OFFCURVE",
"357 -17 CURVE SMOOTH"
);
}
);
width = 648.93196;
}
);
leftKerningGroup = LAT_O;
rightKerningGroup = LAT_G;
unicode = 0047;
},
{
color = 4;
glyphname = H;
lastChange = "2019-06-06 17:07:10 +0000";
layers = (
{
anchors = (
{
name = aboveUC;
position = "{430, 686}";
},
{
name = belowLC;
position = "{314, -22}";
}
);
layerId = "7FECB189-581E-46CC-8EA5-5DBBB4FDF678";
paths = (
{
closed = 1;
nodes = (
"242 0 LINE",
"244 10 LINE",
"225 18 LINE SMOOTH",
"207 26 OFFCURVE",
"199 41 OFFCURVE",
"202 61 CURVE SMOOTH",
"218 158 OFFCURVE",
"235 254 OFFCURVE",
"250 330 CURVE",
"498 330 LINE",
"447 60 LINE SMOOTH",
"443 40 OFFCURVE",
"432 27 OFFCURVE",
"412 20 CURVE SMOOTH",
"383 10 LINE",
"381 0 LINE",
"630 0 LINE",
"632 10 LINE",
"609 19 LINE SMOOTH",
"591 26 OFFCURVE",
"582 42 OFFCURVE",
"585 62 CURVE SMOOTH",
"601 155 OFFCURVE",
"615 236 OFFCURVE",
"629 311 CURVE SMOOTH",
"683 596 LINE SMOOTH",
"688 619 OFFCURVE",
"701 634 OFFCURVE",
"723 642 CURVE SMOOTH",
"747 650 LINE",
"749 660 LINE",
"503 660 LINE",
"501 650 LINE",
"516 645 LINE SMOOTH",
"539 636 OFFCURVE",
"549 617 OFFCURVE",
"545 593 CURVE",
"532 517 OFFCURVE",
"515 416 OFFCURVE",
"503 350 CURVE",
"255 350 LINE",
"300 596 LINE SMOOTH",
"304 619 OFFCURVE",
"318 634 OFFCURVE",
"340 642 CURVE SMOOTH",
"366 650 LINE",
"368 660 LINE",
"122 660 LINE",
"120 650 LINE",
"135 644 LINE",
"156 636 OFFCURVE",
"167 618 OFFCURVE",
"163 596 CURVE SMOOTH",
"149 517 OFFCURVE",
"132 422 OFFCURVE",
"119 350 CURVE SMOOTH",
"64 61 LINE SMOOTH",
"61 41 OFFCURVE",
"48 26 OFFCURVE",
"29 18 CURVE SMOOTH",
"4 10 LINE",
"2 0 LINE"
);
}
);
width = 700.67247;
}
);
leftKerningGroup = LAT_E;
note = "\012		skew 10 scale 120\012	";
rightKerningGroup = LAT_H;
unicode = 0048;
},
{
color = 4;
glyphname = I;
lastChange = "2019-06-06 17:07:10 +0000";
layers = (
{
anchors = (
{
name = aboveUC;
position = "{243, 686}";
},
{
name = belowLC;
position = "{121, -22}";
},
{
name = ogonek;
position = "{168, 0}";
}
);
layerId = "7FECB189-581E-46CC-8EA5-5DBBB4FDF678";
paths = (
{
closed = 1;
nodes = (
"244 0 LINE",
"247 10 LINE",
"224 20 LINE SMOOTH",
"208 28 OFFCURVE",
"199 44 OFFCURVE",
"201 62 CURVE SMOOTH",
"215 141 OFFCURVE",
"233 236 OFFCURVE",
"246 311 CURVE SMOOTH",
"301 602 LINE SMOOTH",
"305 619 OFFCURVE",
"316 633 OFFCURVE",
"332 639 CURVE SMOOTH",
"361 650 LINE",
"363 660 LINE",
"122 660 LINE",
"119 650 LINE",
"139 642 LINE SMOOTH",
"157 634 OFFCURVE",
"166 618 OFFCURVE",
"163 599 CURVE SMOOTH",
"150 520 OFFCURVE",
"132 424 OFFCURVE",
"119 350 CURVE SMOOTH",
"64 59 LINE SMOOTH",
"61 42 OFFCURVE",
"50 29 OFFCURVE",
"35 23 CURVE SMOOTH",
"5 10 LINE",
"2 0 LINE"
);
}
);
width = 314.63449;
}
);
leftKerningGroup = LAT_E;
rightKerningGroup = LAT_H;
unicode = 0049;
},
{
color = 4;
glyphname = J;
lastChange = "2019-06-06 17:07:10 +0000";
layers = (
{
anchors = (
{
name = aboveUC;
position = "{340, 686}";
},
{
name = belowLC;
position = "{108, -61}";
}
);
layerId = "7FECB189-581E-46CC-8EA5-5DBBB4FDF678";
paths = (
{
closed = 1;
nodes = (
"151 -18 OFFCURVE",
"227 31 OFFCURVE",
"278 119 CURVE SMOOTH",
"305 163 OFFCURVE",
"328 223 OFFCURVE",
"349 335 CURVE SMOOTH",
"394 584 LINE SMOOTH",
"399 611 OFFCURVE",
"413 630 OFFCURVE",
"438 641 CURVE SMOOTH",
"456 650 LINE",
"458 660 LINE",
"207 660 LINE",
"205 650 LINE",
"224 641 LINE SMOOTH",
"249 630 OFFCURVE",
"260 611 OFFCURVE",
"255 584 CURVE SMOOTH",
"241 495 OFFCURVE",
"228 414 OFFCURVE",
"218 352 CURVE SMOOTH",
"207 279 OFFCURVE",
"198 214 OFFCURVE",
"189 159 CURVE SMOOTH",
"181 104 OFFCURVE",
"167 57 OFFCURVE",
"149 28 CURVE SMOOTH",
"139 13 OFFCURVE",
"127 13 OFFCURVE",
"120 31 CURVE SMOOTH",
"101 92 OFFCURVE",
"69 105 OFFCURVE",
"38 105 CURVE SMOOTH",
"4 105 OFFCURVE",
"-21 82 OFFCURVE",
"-21 47 CURVE SMOOTH",
"-21 7 OFFCURVE",
"17 -18 OFFCURVE",
"71 -18 CURVE SMOOTH"
);
}
);
width = 392.64715;
}
);
leftKerningGroup = LAT_J;
rightKerningGroup = LAT_J;
unicode = 004A;
},
{
color = 4;
glyphname = K;
lastChange = "2019-10-15 13:49:23 +0000";
layers = (
{
anchors = (
{
name = aboveUC;
position = "{422, 686}";
},
{
name = belowLC;
position = "{305, -22}";
}
);
layerId = "7FECB189-581E-46CC-8EA5-5DBBB4FDF678";
paths = (
{
closed = 1;
nodes = (
"631 0 LINE",
"633 10 LINE",
"624 13 LINE SMOOTH",
"596 25 OFFCURVE",
"578 41 OFFCURVE",
"562 68 CURVE SMOOTH",
"355 403 LINE",
"556 585 LINE SMOOTH",
"590 616 OFFCURVE",
"615 630 OFFCURVE",
"661 646 CURVE SMOOTH",
"672 650 LINE",
"674 660 LINE",
"517 660 LINE",
"516 650 LINE",
"525 646 LINE",
"549 637 OFFCURVE",
"551 616 OFFCURVE",
"530 597 CURVE SMOOTH",
"250 344 LINE",
"416 61 LINE SMOOTH",
"428 41 OFFCURVE",
"422 25 OFFCURVE",
"400 15 CURVE SMOOTH",
"388 10 LINE",
"386 0 LINE"
);
},
{
closed = 1;
nodes = (
"239 0 LINE",
"241 10 LINE",
"226 16 LINE SMOOTH",
"203 25 OFFCURVE",
"194 42 OFFCURVE",
"198 65 CURVE SMOOTH",
"210 131 OFFCURVE",
"225 216 OFFCURVE",
"236 271 CURVE SMOOTH",
"295 593 LINE SMOOTH",
"300 619 OFFCURVE",
"314 634 OFFCURVE",
"338 643 CURVE SMOOTH",
"360 650 LINE",
"362 660 LINE",
"120 660 LINE",
"118 650 LINE",
"130 645 LINE SMOOTH",
"152 635 OFFCURVE",
"161 619 OFFCURVE",
"157 595 CURVE SMOOTH",
"144 517 OFFCURVE",
"128 422 OFFCURVE",
"114 350 CURVE SMOOTH",
"61 68 LINE SMOOTH",
"56 42 OFFCURVE",
"43 26 OFFCURVE",
"19 17 CURVE SMOOTH",
"2 10 LINE",
"0 0 LINE"
);
}
);
width = 639.51108;
}
);
leftKerningGroup = LAT_E;
rightKerningGroup = LAT_K;
unicode = 004B;
},
{
color = 4;
glyphname = L;
lastChange = "2019-06-06 17:07:10 +0000";
layers = (
{
anchors = (
{
name = aboveUC;
position = "{244, 686}";
},
{
name = belowLC;
position = "{244, -22}";
}
);
layerId = "7FECB189-581E-46CC-8EA5-5DBBB4FDF678";
paths = (
{
closed = 1;
nodes = (
"478 0 LINE",
"520 194 LINE",
"510 194 LINE",
"431 85 LINE SMOOTH",
"397 39 OFFCURVE",
"359 20 OFFCURVE",
"302 20 CURVE SMOOTH",
"195 20 LINE",
"209 105 OFFCURVE",
"230 226 OFFCURVE",
"246 311 CURVE SMOOTH",
"300 592 LINE SMOOTH",
"305 618 OFFCURVE",
"318 633 OFFCURVE",
"343 642 CURVE SMOOTH",
"368 650 LINE",
"369 660 LINE",
"122 660 LINE",
"120 650 LINE",
"133 645 LINE SMOOTH",
"156 634 OFFCURVE",
"166 617 OFFCURVE",
"162 592 CURVE SMOOTH",
"149 514 OFFCURVE",
"132 421 OFFCURVE",
"119 350 CURVE SMOOTH",
"65 65 LINE SMOOTH",
"60 40 OFFCURVE",
"47 25 OFFCURVE",
"23 17 CURVE SMOOTH",
"3 10 LINE",
"2 0 LINE"
);
}
);
width = 536.98734;
}
);
leftKerningGroup = LAT_E;
rightKerningGroup = LAT_L;
unicode = 004C;
},
{
glyphname = Lcaron;
lastChange = "2019-06-06 17:07:10 +0000";
layers = (
{
components = (
{
alignment = -1;
name = L;
}
);
layerId = "7FECB189-581E-46CC-8EA5-5DBBB4FDF678";
paths = (
{
closed = 1;
nodes = (
"565 723 OFFCURVE",
"552 721 OFFCURVE",
"534 712 CURVE",
"488 489 LINE",
"532 485 LINE",
"574 560 LINE SMOOTH",
"600 607 OFFCURVE",
"626 654 OFFCURVE",
"626 688 CURVE SMOOTH",
"626 705 OFFCURVE",
"616 723 OFFCURVE",
"583 723 CURVE SMOOTH"
);
}
);
width = 565.75316;
}
);
leftKerningGroup = LAT_E;
rightKerningGroup = LAT_L;
unicode = 013D;
},
{
color = 4;
glyphname = Lslash;
lastChange = "2019-06-06 17:07:10 +0000";
layers = (
{
components = (
{
alignment = -1;
name = L;
}
);
layerId = "7FECB189-581E-46CC-8EA5-5DBBB4FDF678";
paths = (
{
closed = 1;
nodes = (
"438 416 LINE",
"444 447 LINE",
"37 252 LINE",
"30 223 LINE"
);
}
);
width = 536.98734;
}
);
leftKerningGroup = LAT_E;
rightKerningGroup = LAT_L;
rightMetricsKey = L;
unicode = 0141;
},
{
color = 4;
glyphname = M;
lastChange = "2019-06-06 17:07:10 +0000";
layers = (
{
anchors = (
{
name = aboveUC;
position = "{494, 673}";
},
{
name = belowLC;
position = "{336, -22}";
}
);
layerId = "7FECB189-581E-46CC-8EA5-5DBBB4FDF678";
paths = (
{
closed = 1;
nodes = (
"144 0 LINE",
"146 10 LINE",
"128 15 LINE",
"98 25 OFFCURVE",
"86 45 OFFCURVE",
"92 76 CURVE SMOOTH",
"178 546 LINE",
"318 0 LINE",
"355 0 LINE",
"682 548 LINE",
"594 69 LINE SMOOTH",
"589 40 OFFCURVE",
"574 22 OFFCURVE",
"545 13 CURVE",
"535.008 10 LINE",
"533.008 0 LINE",
"772 0 LINE",
"774 10 LINE",
"766 13 LINE SMOOTH",
"739 21 OFFCURVE",
"726 39 OFFCURVE",
"731 68 CURVE SMOOTH",
"744 149 OFFCURVE",
"759 231 OFFCURVE",
"774 311 CURVE SMOOTH",
"823 585 LINE SMOOTH",
"828 613 OFFCURVE",
"840 630 OFFCURVE",
"866 641 CURVE SMOOTH",
"886 650 LINE",
"888 660 LINE",
"712 660 LINE",
"417 166 LINE",
"289 660 LINE",
"119 660 LINE",
"117 650 LINE",
"124 645 LINE SMOOTH",
"146 630 OFFCURVE",
"155 614 OFFCURVE",
"156 588 CURVE",
"159 577 LINE",
"65 74 LINE SMOOTH",
"59 42 OFFCURVE",
"42 25 OFFCURVE",
"11 16 CURVE SMOOTH",
"-12 10 LINE",
"-14 0 LINE"
);
}
);
width = 842.94462;
}
);
leftKerningGroup = LAT_M;
rightKerningGroup = LAT_H;
unicode = 004D;
},
{
color = 4;
glyphname = N;
lastChange = "2019-06-06 17:07:10 +0000";
layers = (
{
anchors = (
{
name = aboveUC;
position = "{388, 686}";
},
{
name = belowLC;
position = "{305, -22}";
}
);
layerId = "7FECB189-581E-46CC-8EA5-5DBBB4FDF678";
paths = (
{
closed = 1;
nodes = (
"516 -4 LINE",
"628 590 LINE SMOOTH",
"633 618 OFFCURVE",
"648 633 OFFCURVE",
"674 643 CURVE SMOOTH",
"695 650 LINE",
"696 660 LINE",
"560 660 LINE",
"558 650 LINE",
"574 644 LINE SMOOTH",
"598 635 OFFCURVE",
"608 618 OFFCURVE",
"603 592 CURVE SMOOTH",
"524 174 LINE",
"266 660 LINE",
"112 660 LINE",
"110 650 LINE",
"113 647 LINE",
"132 636 OFFCURVE",
"143 625 OFFCURVE",
"153 605 CURVE SMOOTH",
"165 580 LINE",
"69 73 LINE SMOOTH",
"64 44 OFFCURVE",
"48 28 OFFCURVE",
"22 18 CURVE SMOOTH",
"0 10 LINE",
"-2 0 LINE",
"143 0 LINE",
"144 10 LINE",
"127 16 LINE SMOOTH",
"101 26 OFFCURVE",
"90 46 OFFCURVE",
"95 73 CURVE SMOOTH",
"183 535 LINE",
"463 -4 LINE"
);
}
);
width = 624.83386;
}
);
leftKerningGroup = LAT_M;
rightKerningGroup = LAT_N;
unicode = 004E;
},
{
color = 4;
glyphname = O;
lastChange = "2019-06-06 17:07:10 +0000";
layers = (
{
anchors = (
{
name = aboveUC;
position = "{421, 686}";
},
{
name = belowLC;
position = "{301, -22}";
},
{
name = hornLC;
position = "{575, 672}";
},
{
name = ogonek;
position = "{404, 0}";
}
);
layerId = "7FECB189-581E-46CC-8EA5-5DBBB4FDF678";
paths = (
{
closed = 1;
nodes = (
"525 -17 OFFCURVE",
"670 178 OFFCURVE",
"670 403 CURVE SMOOTH",
"670 570 OFFCURVE",
"571 677 OFFCURVE",
"421 677 CURVE SMOOTH",
"196 677 OFFCURVE",
"51 478 OFFCURVE",
"51 258 CURVE SMOOTH",
"51 76 OFFCURVE",
"155 -17 OFFCURVE",
"299 -17 CURVE SMOOTH"
);
},
{
closed = 1;
nodes = (
"226 3 OFFCURVE",
"190 85 OFFCURVE",
"190 235 CURVE SMOOTH",
"190 468 OFFCURVE",
"293 657 OFFCURVE",
"416 657 CURVE SMOOTH",
"498 657 OFFCURVE",
"530 576 OFFCURVE",
"530 429 CURVE SMOOTH",
"530 196 OFFCURVE",
"429 3 OFFCURVE",
"309 3 CURVE SMOOTH"
);
}
);
width = 666.74051;
}
);
leftKerningGroup = LAT_O;
rightKerningGroup = LAT_O;
unicode = 004F;
},
{
color = 4;
glyphname = Oslash;
lastChange = "2019-06-06 17:07:10 +0000";
layers = (
{
anchors = (
{
name = aboveUC;
position = "{421, 686}";
}
);
layerId = "7FECB189-581E-46CC-8EA5-5DBBB4FDF678";
paths = (
{
closed = 1;
nodes = (
"662 678 LINE",
"18 -1 LINE",
"37 -19 LINE",
"682 660 LINE"
);
},
{
closed = 1;
nodes = (
"525 -17 OFFCURVE",
"670 178 OFFCURVE",
"670 403 CURVE SMOOTH",
"670 570 OFFCURVE",
"571 677 OFFCURVE",
"421 677 CURVE SMOOTH",
"196 677 OFFCURVE",
"51 478 OFFCURVE",
"51 258 CURVE SMOOTH",
"51 76 OFFCURVE",
"155 -17 OFFCURVE",
"299 -17 CURVE SMOOTH"
);
},
{
closed = 1;
nodes = (
"223 3 OFFCURVE",
"183 74 OFFCURVE",
"183 235 CURVE SMOOTH",
"183 467 OFFCURVE",
"288 657 OFFCURVE",
"414 657 CURVE SMOOTH",
"501 657 OFFCURVE",
"537 587 OFFCURVE",
"537 429 CURVE SMOOTH",
"537 198 OFFCURVE",
"433 3 OFFCURVE",
"309 3 CURVE SMOOTH"
);
}
);
width = 666.74051;
}
);
leftKerningGroup = LAT_O;
rightKerningGroup = LAT_O;
unicode = 00D8;
},
{
color = 4;
glyphname = OE;
lastChange = "2019-06-06 17:07:10 +0000";
layers = (
{
anchors = (
{
name = aboveUC;
position = "{583, 686}";
}
);
layerId = "7FECB189-581E-46CC-8EA5-5DBBB4FDF678";
paths = (
{
closed = 1;
nodes = (
"378 -18 OFFCURVE",
"410 -11 OFFCURVE",
"451 0 CURVE",
"817 0 LINE",
"857 174 LINE",
"847 174 LINE",
"777 69 LINE SMOOTH",
"754 35 OFFCURVE",
"725 20 OFFCURVE",
"684 20 CURVE SMOOTH",
"523 20 LINE",
"537 103 OFFCURVE",
"561 241 OFFCURVE",
"578 330 CURVE",
"666 330 LINE SMOOTH",
"698 330 OFFCURVE",
"719 315 OFFCURVE",
"728 284 CURVE SMOOTH",
"739 245 LINE",
"749 245 LINE",
"785 436 LINE",
"775 436 LINE",
"743 387 LINE SMOOTH",
"726 361 OFFCURVE",
"704 350 OFFCURVE",
"673 350 CURVE SMOOTH",
"583 350 LINE",
"637 640 LINE",
"772 640 LINE SMOOTH",
"812 640 OFFCURVE",
"836 620 OFFCURVE",
"845 582 CURVE SMOOTH",
"867 486 LINE",
"877 486 LINE",
"902 660 LINE",
"577 660 LINE",
"533 672 OFFCURVE",
"496 678 OFFCURVE",
"456 678 CURVE SMOOTH",
"215 678 OFFCURVE",
"51 476 OFFCURVE",
"51 263 CURVE SMOOTH",
"51 72 OFFCURVE",
"166 -18 OFFCURVE",
"329 -18 CURVE SMOOTH"
);
},
{
closed = 1;
nodes = (
"260 2 OFFCURVE",
"192 86 OFFCURVE",
"192 248 CURVE SMOOTH",
"192 481 OFFCURVE",
"306 658 OFFCURVE",
"452 658 CURVE SMOOTH",
"488 658 OFFCURVE",
"500 643 OFFCURVE",
"494 614 CURVE SMOOTH",
"480 535 OFFCURVE",
"464 442 OFFCURVE",
"447 350 CURVE SMOOTH",
"390 45 LINE SMOOTH",
"384 16 OFFCURVE",
"371 2 OFFCURVE",
"338 2 CURVE SMOOTH"
);
}
);
width = 886.62975;
}
);
leftKerningGroup = LAT_O;
leftMetricsKey = O;
rightKerningGroup = LAT_E;
rightMetricsKey = E;
unicode = 0152;
},
{
color = 4;
glyphname = P;
lastChange = "2019-06-06 17:07:10 +0000";
layers = (
{
anchors = (
{
name = aboveUC;
position = "{343, 686}";
},
{
name = belowLC;
position = "{128, -22}";
}
);
layerId = "7FECB189-581E-46CC-8EA5-5DBBB4FDF678";
paths = (
{
closed = 1;
nodes = (
"250 0 LINE",
"252 10 LINE",
"240 13 LINE SMOOTH",
"211 23 OFFCURVE",
"199 43 OFFCURVE",
"204 74 CURVE SMOOTH",
"216 139 OFFCURVE",
"227 207 OFFCURVE",
"238 260 CURVE",
"282 260 LINE SMOOTH",
"486 260 OFFCURVE",
"586 363 OFFCURVE",
"586 480 CURVE SMOOTH",
"586 588 OFFCURVE",
"512 660 OFFCURVE",
"340 660 CURVE SMOOTH",
"122 660 LINE",
"120 650 LINE",
"130 646 LINE SMOOTH",
"156 636 OFFCURVE",
"167 618 OFFCURVE",
"162 590 CURVE SMOOTH",
"146 496 OFFCURVE",
"133 423 OFFCURVE",
"119 350 CURVE SMOOTH",
"67 72 LINE SMOOTH",
"61 41 OFFCURVE",
"45 24 OFFCURVE",
"16 14 CURVE SMOOTH",
"5 10 LINE",
"3 0 LINE"
);
},
{
closed = 1;
nodes = (
"264 400 OFFCURVE",
"287 520 OFFCURVE",
"309 640 CURVE",
"333 640 LINE SMOOTH",
"407 640 OFFCURVE",
"449 585 OFFCURVE",
"449 485 CURVE SMOOTH",
"449 357 OFFCURVE",
"380 280 OFFCURVE",
"279 280 CURVE SMOOTH",
"242 280 LINE"
);
}
);
width = 559.07278;
}
);
leftKerningGroup = LAT_E;
unicode = 0050;
},
{
color = 4;
glyphname = Thorn;
lastChange = "2019-06-06 17:07:10 +0000";
layers = (
{
layerId = "7FECB189-581E-46CC-8EA5-5DBBB4FDF678";
paths = (
{
closed = 1;
nodes = (
"249 0 LINE",
"250 10 LINE",
"230 18 LINE SMOOTH",
"207 26 OFFCURVE",
"198 42 OFFCURVE",
"203 66 CURVE",
"206 91 OFFCURVE",
"211 116 OFFCURVE",
"215 141 CURVE",
"258 141 LINE SMOOTH",
"465 141 OFFCURVE",
"568 238 OFFCURVE",
"568 354 CURVE SMOOTH",
"568 466 OFFCURVE",
"496 536 OFFCURVE",
"324 536 CURVE SMOOTH",
"289 536 LINE",
"300 592 LINE SMOOTH",
"305 620 OFFCURVE",
"320 636 OFFCURVE",
"347 645 CURVE SMOOTH",
"361 650 LINE",
"363 660 LINE",
"122 660 LINE",
"120 650 LINE",
"135 645 LINE SMOOTH",
"157 636 OFFCURVE",
"166 620 OFFCURVE",
"163 596 CURVE SMOOTH",
"149 514 OFFCURVE",
"134 432 OFFCURVE",
"119 350 CURVE SMOOTH",
"66 69 LINE SMOOTH",
"61 41 OFFCURVE",
"46 25 OFFCURVE",
"19 15 CURVE SMOOTH",
"4 10 LINE",
"2 0 LINE"
);
},
{
closed = 1;
nodes = (
"228 211 OFFCURVE",
"237 261 OFFCURVE",
"246 311 CURVE",
"285 516 LINE",
"311 516 LINE SMOOTH",
"393 516 OFFCURVE",
"432 460 OFFCURVE",
"432 361 CURVE SMOOTH",
"432 236 OFFCURVE",
"368 161 OFFCURVE",
"262 161 CURVE SMOOTH",
"219 161 LINE"
);
}
);
width = 558.07278;
}
);
leftKerningGroup = LAT_E;
leftMetricsKey = P;
unicode = 00DE;
},
{
color = 4;
glyphname = Q;
lastChange = "2019-06-06 17:07:10 +0000";
layers = (
{
anchors = (
{
name = aboveUC;
position = "{412, 686}";
}
);
components = (
{
alignment = -1;
name = O;
}
);
layerId = "7FECB189-581E-46CC-8EA5-5DBBB4FDF678";
paths = (
{
closed = 1;
nodes = (
"417 -225 OFFCURVE",
"453 -206 OFFCURVE",
"493 -169 CURVE SMOOTH",
"546 -122 LINE",
"539 -111 LINE",
"509 -126 LINE SMOOTH",
"489 -137 OFFCURVE",
"472 -140 OFFCURVE",
"449 -135 CURVE SMOOTH",
"331 -107 OFFCURVE",
"208 -72 OFFCURVE",
"142 -53 CURVE",
"103 -117 LINE",
"229 21 LINE",
"207 34 LINE",
"26 -180 LINE",
"37 -188 LINE",
"50 -178 LINE SMOOTH",
"67 -163 OFFCURVE",
"85 -158 OFFCURVE",
"109 -164 CURVE SMOOTH",
"204 -187 OFFCURVE",
"338 -225 OFFCURVE",
"384 -225 CURVE SMOOTH"
);
}
);
width = 666.74051;
}
);
leftKerningGroup = LAT_O;
rightKerningGroup = LAT_O;
unicode = 0051;
},
{
color = 4;
glyphname = R;
lastChange = "2019-06-06 17:07:10 +0000";
layers = (
{
anchors = (
{
name = aboveUC;
position = "{351, 686}";
},
{
name = belowLC;
position = "{342, -22}";
}
);
layerId = "7FECB189-581E-46CC-8EA5-5DBBB4FDF678";
paths = (
{
closed = 1;
nodes = (
"245 0 LINE",
"247 10 LINE",
"235 16 LINE SMOOTH",
"210 26 OFFCURVE",
"199 44 OFFCURVE",
"204 71 CURVE SMOOTH",
"218 157 OFFCURVE",
"232 234 OFFCURVE",
"245 304 CURVE",
"309 304 LINE",
"410 0 LINE",
"589 0 LINE",
"592 10 LINE",
"585 14 LINE SMOOTH",
"560 26 OFFCURVE",
"546 42 OFFCURVE",
"535 68 CURVE SMOOTH",
"428 342 LINE",
"338 313 LINE",
"500 322 OFFCURVE",
"595 403 OFFCURVE",
"595 506 CURVE SMOOTH",
"595 601 OFFCURVE",
"525 660 OFFCURVE",
"374 660 CURVE SMOOTH",
"122 660 LINE",
"120 650 LINE",
"130 646 LINE",
"156 635 OFFCURVE",
"166 616 OFFCURVE",
"161 589 CURVE SMOOTH",
"147 510 OFFCURVE",
"132 426 OFFCURVE",
"119 350 CURVE",
"67 72 LINE SMOOTH",
"62 44 OFFCURVE",
"47 27 OFFCURVE",
"20 16 CURVE SMOOTH",
"4 10 LINE",
"2 0 LINE"
);
},
{
closed = 1;
nodes = (
"309 640 LINE",
"347 640 LINE SMOOTH",
"425 640 OFFCURVE",
"461 595 OFFCURVE",
"461 503 CURVE SMOOTH",
"461 394 OFFCURVE",
"407 326 OFFCURVE",
"299 324 CURVE SMOOTH",
"249 324 LINE"
);
}
);
width = 642.17089;
}
);
leftKerningGroup = LAT_E;
rightKerningGroup = LAT_R;
unicode = 0052;
},
{
color = 4;
glyphname = S;
lastChange = "2019-06-06 17:07:10 +0000";
layers = (
{
anchors = (
{
name = aboveUC;
position = "{350, 686}";
},
{
name = baseLC;
position = "{217, 0}";
},
{
name = belowLC;
position = "{218, -22}";
}
);
layerId = "7FECB189-581E-46CC-8EA5-5DBBB4FDF678";
paths = (
{
closed = 1;
nodes = (
"360 -18 OFFCURVE",
"464 60 OFFCURVE",
"464 187 CURVE SMOOTH",
"464 259 OFFCURVE",
"429 315 OFFCURVE",
"324 392 CURVE SMOOTH",
"244 449 OFFCURVE",
"218 491 OFFCURVE",
"218 548 CURVE SMOOTH",
"218 615 OFFCURVE",
"272 658 OFFCURVE",
"341 658 CURVE SMOOTH",
"411 658 OFFCURVE",
"441 625 OFFCURVE",
"462 554 CURVE SMOOTH",
"482 488 LINE",
"492 488 LINE",
"520 628 LINE",
"476 659 OFFCURVE",
"404 678 OFFCURVE",
"338 678 CURVE SMOOTH",
"201 678 OFFCURVE",
"103 599 OFFCURVE",
"103 481 CURVE SMOOTH",
"103 413 OFFCURVE",
"129 351 OFFCURVE",
"237 274 CURVE SMOOTH",
"324 211 OFFCURVE",
"342 173 OFFCURVE",
"342 121 CURVE SMOOTH",
"342 56 OFFCURVE",
"293 2 OFFCURVE",
"214 2 CURVE SMOOTH",
"143 2 OFFCURVE",
"112 31 OFFCURVE",
"89 97 CURVE SMOOTH",
"60 179 LINE",
"50 179 LINE",
"26 32 LINE",
"72 0 OFFCURVE",
"145 -18 OFFCURVE",
"214 -18 CURVE SMOOTH"
);
}
);
width = 499.05538;
}
);
leftKerningGroup = LAT_S;
rightKerningGroup = LAT_S;
unicode = 0053;
},
{
color = 4;
glyphname = T;
lastChange = "2019-06-06 17:07:10 +0000";
layers = (
{
anchors = (
{
name = aboveUC;
position = "{391, 686}";
},
{
name = baseLC;
position = "{269, 0}";
},
{
name = belowLC;
position = "{267, -22}";
}
);
layerId = "7FECB189-581E-46CC-8EA5-5DBBB4FDF678";
paths = (
{
closed = 1;
nodes = (
"400 0 LINE",
"402 10 LINE",
"389 16 LINE SMOOTH",
"358 29 OFFCURVE",
"344 53 OFFCURVE",
"350 88 CURVE SMOOTH",
"363 161 OFFCURVE",
"378 243 OFFCURVE",
"391 311 CURVE SMOOTH",
"453 640 LINE",
"494 640 LINE SMOOTH",
"540 640 OFFCURVE",
"570 620 OFFCURVE",
"585 577 CURVE SMOOTH",
"622 476 LINE",
"632 476 LINE",
"664 660 LINE",
"110 660 LINE",
"73 476 LINE",
"83 476 LINE",
"163 585 LINE SMOOTH",
"191 624 OFFCURVE",
"224 640 OFFCURVE",
"272 640 CURVE SMOOTH",
"315 640 LINE",
"301 555 OFFCURVE",
"279 434 OFFCURVE",
"263 350 CURVE SMOOTH",
"214 87 LINE SMOOTH",
"207 53 OFFCURVE",
"190 32 OFFCURVE",
"158 19 CURVE SMOOTH",
"134 10 LINE",
"132 0 LINE"
);
}
);
width = 598.89399;
}
);
leftKerningGroup = LAT_T;
rightKerningGroup = LAT_T;
unicode = 0054;
},
{
color = 4;
glyphname = U;
lastChange = "2019-06-06 17:07:10 +0000";
layers = (
{
anchors = (
{
name = aboveUC;
position = "{447, 686}";
},
{
name = belowLC;
position = "{300, -22}";
},
{
name = hornLC;
position = "{661, 680}";
},
{
name = ogonek;
position = "{402, 0}";
}
);
layerId = "7FECB189-581E-46CC-8EA5-5DBBB4FDF678";
paths = (
{
closed = 1;
nodes = (
"451 -18 OFFCURVE",
"538 79 OFFCURVE",
"565 225 CURVE SMOOTH",
"631 584 LINE SMOOTH",
"637 617 OFFCURVE",
"654 636 OFFCURVE",
"685 646 CURVE SMOOTH",
"695 650 LINE",
"697 660 LINE",
"563 660 LINE",
"561 650 LINE",
"567 648 LINE SMOOTH",
"598 637 OFFCURVE",
"610 616 OFFCURVE",
"604 583 CURVE SMOOTH",
"538 234 LINE SMOOTH",
"516 118 OFFCURVE",
"455 44 OFFCURVE",
"355 44 CURVE SMOOTH",
"270 44 OFFCURVE",
"224 98 OFFCURVE",
"224 187 CURVE SMOOTH",
"224 219 OFFCURVE",
"228 250 OFFCURVE",
"234 281 CURVE SMOOTH",
"291 584 LINE SMOOTH",
"297 616 OFFCURVE",
"314 636 OFFCURVE",
"345 646 CURVE SMOOTH",
"355 650 LINE",
"357 660 LINE",
"104 660 LINE",
"102 650 LINE",
"109 647 LINE SMOOTH",
"139 636 OFFCURVE",
"152 615 OFFCURVE",
"147 583 CURVE SMOOTH",
"134 509 OFFCURVE",
"117 424 OFFCURVE",
"106 358 CURVE SMOOTH",
"91 274 LINE SMOOTH",
"85 241 OFFCURVE",
"80 210 OFFCURVE",
"80 181 CURVE SMOOTH",
"80 48 OFFCURVE",
"171 -18 OFFCURVE",
"307 -18 CURVE SMOOTH"
);
}
);
width = 622.24684;
}
);
leftKerningGroup = LAT_U;
rightKerningGroup = LAT_U;
unicode = 0055;
},
{
color = 4;
glyphname = V;
lastChange = "2019-06-06 17:07:10 +0000";
layers = (
{
anchors = (
{
name = aboveUC;
position = "{427, 686}";
},
{
name = belowLC;
position = "{273, -22}";
}
);
layerId = "7FECB189-581E-46CC-8EA5-5DBBB4FDF678";
paths = (
{
closed = 1;
nodes = (
"289 -4 LINE",
"590 588 LINE SMOOTH",
"605 618 OFFCURVE",
"625 636 OFFCURVE",
"657 647 CURVE SMOOTH",
"668 650 LINE",
"670 660 LINE",
"534 660 LINE",
"532 650 LINE",
"542 647 LINE",
"568 638 OFFCURVE",
"576 618 OFFCURVE",
"564 593 CURVE SMOOTH",
"337 140 LINE",
"272 590 LINE SMOOTH",
"268 616 OFFCURVE",
"279 634 OFFCURVE",
"304 645 CURVE SMOOTH",
"317 650 LINE",
"318 660 LINE",
"83 660 LINE",
"81 650 LINE",
"85 648 LINE",
"109 634 OFFCURVE",
"122 617 OFFCURVE",
"126 590 CURVE SMOOTH",
"225 -4 LINE"
);
}
);
width = 603.31487;
}
);
unicode = 0056;
},
{
color = 4;
glyphname = W;
lastChange = "2019-06-06 17:07:10 +0000";
layers = (
{
anchors = (
{
name = aboveUC;
position = "{551, 686}";
},
{
name = belowLC;
position = "{433, -13}";
}
);
layerId = "7FECB189-581E-46CC-8EA5-5DBBB4FDF678";
paths = (
{
closed = 1;
nodes = (
"609 -4 LINE",
"873 592 LINE SMOOTH",
"885 617 OFFCURVE",
"901 633 OFFCURVE",
"928 642 CURVE SMOOTH",
"952 650 LINE",
"954 660 LINE",
"807 660 LINE",
"805 650 LINE",
"825 642 LINE SMOOTH",
"847 633 OFFCURVE",
"854 616 OFFCURVE",
"845 594 CURVE SMOOTH",
"646 149 LINE",
"597 593 LINE SMOOTH",
"594 616 OFFCURVE",
"604 632 OFFCURVE",
"625 640 CURVE SMOOTH",
"652 650 LINE",
"654 660 LINE",
"411 660 LINE",
"409 650 LINE",
"431 642 LINE SMOOTH",
"453 633 OFFCURVE",
"465 619 OFFCURVE",
"468 594 CURVE SMOOTH",
"538 -4 LINE"
);
},
{
closed = 1;
nodes = (
"251 -4 LINE",
"489 478 LINE",
"484 533 LINE",
"293 151 LINE",
"263 595 LINE SMOOTH",
"262 618 OFFCURVE",
"271 634 OFFCURVE",
"293 642 CURVE SMOOTH",
"315 650 LINE",
"317 660 LINE",
"78 660 LINE",
"76 650 LINE",
"88 644 LINE SMOOTH",
"110 635 OFFCURVE",
"122 620 OFFCURVE",
"124 596 CURVE SMOOTH",
"181 -4 LINE"
);
}
);
width = 876.15348;
}
);
leftKerningGroup = LAT_W;
rightKerningGroup = LAT_W;
unicode = 0057;
},
{
color = 4;
glyphname = X;
lastChange = "2019-06-06 17:07:10 +0000";
layers = (
{
anchors = (
{
name = aboveUC;
position = "{428, 686}";
},
{
name = belowLC;
position = "{257, -22}";
}
);
layerId = "7FECB189-581E-46CC-8EA5-5DBBB4FDF678";
paths = (
{
closed = 1;
nodes = (
"592 0 LINE",
"595 10 LINE",
"576 18 LINE SMOOTH",
"550 30 OFFCURVE",
"534 46 OFFCURVE",
"523 72 CURVE SMOOTH",
"310 594 LINE SMOOTH",
"300 618 OFFCURVE",
"309 636 OFFCURVE",
"334 644 CURVE SMOOTH",
"352 650 LINE",
"354 660 LINE",
"98 660 LINE",
"96 650 LINE",
"108 646 LINE SMOOTH",
"135 636 OFFCURVE",
"151 620 OFFCURVE",
"162 593 CURVE SMOOTH",
"375 71 LINE SMOOTH",
"385 45 OFFCURVE",
"378 27 OFFCURVE",
"354 15 CURVE SMOOTH",
"343 10 LINE",
"341 0 LINE"
);
},
{
closed = 1;
nodes = (
"166 0 LINE",
"168 10 LINE",
"141 19 LINE SMOOTH",
"117 27 OFFCURVE",
"112 46 OFFCURVE",
"127 66 CURVE SMOOTH",
"336 324 LINE",
"318 340 LINE",
"95 65 LINE SMOOTH",
"78 44 OFFCURVE",
"60 31 OFFCURVE",
"34 22 CURVE SMOOTH",
"-1 10 LINE",
"-3 0 LINE"
);
},
{
closed = 1;
nodes = (
"584 599 LINE SMOOTH",
"602 621 OFFCURVE",
"621 633 OFFCURVE",
"648 642 CURVE SMOOTH",
"670 650 LINE",
"672 660 LINE",
"532 660 LINE",
"531 650 LINE",
"545 644 LINE SMOOTH",
"566 635 OFFCURVE",
"571 619 OFFCURVE",
"557 600 CURVE SMOOTH",
"357 351 LINE",
"374 336 LINE"
);
}
);
width = 623.40032;
}
);
unicode = 0058;
},
{
color = 4;
glyphname = Y;
lastChange = "2019-06-06 17:07:10 +0000";
layers = (
{
anchors = (
{
name = aboveUC;
position = "{415, 686}";
},
{
name = belowLC;
position = "{255, -22}";
}
);
layerId = "7FECB189-581E-46CC-8EA5-5DBBB4FDF678";
paths = (
{
closed = 1;
nodes = (
"390 0 LINE",
"392 10 LINE",
"369 18 LINE SMOOTH",
"346 27 OFFCURVE",
"336 44 OFFCURVE",
"340 69 CURVE SMOOTH",
"352 138 OFFCURVE",
"368 225 OFFCURVE",
"379 287 CURVE",
"568 599 LINE SMOOTH",
"582 623 OFFCURVE",
"599 635 OFFCURVE",
"624 643 CURVE SMOOTH",
"643 650 LINE",
"645 660 LINE",
"509 660 LINE",
"507 650 LINE",
"527 644 LINE SMOOTH",
"549 637 OFFCURVE",
"554 621 OFFCURVE",
"543 602 CURVE SMOOTH",
"366 312 LINE",
"281 600 LINE SMOOTH",
"275 621 OFFCURVE",
"282 636 OFFCURVE",
"304 643 CURVE SMOOTH",
"326 650 LINE",
"328 660 LINE",
"77 660 LINE",
"75 650 LINE",
"86 645 LINE SMOOTH",
"109 636 OFFCURVE",
"123 621 OFFCURVE",
"130 598 CURVE SMOOTH",
"240 267 LINE",
"203 72 LINE SMOOTH",
"198 43 OFFCURVE",
"184 28 OFFCURVE",
"157 19 CURVE SMOOTH",
"132 10 LINE",
"130 0 LINE"
);
}
);
width = 569.85127;
}
);
leftKerningGroup = LAT_Y;
rightKerningGroup = LAT_Y;
unicode = 0059;
},
{
color = 4;
glyphname = Z;
lastChange = "2019-06-06 17:07:10 +0000";
layers = (
{
anchors = (
{
name = aboveUC;
position = "{360, 686}";
},
{
name = belowLC;
position = "{251, -22}";
}
);
layerId = "7FECB189-581E-46CC-8EA5-5DBBB4FDF678";
paths = (
{
closed = 1;
nodes = (
"491 0 LINE",
"531 184 LINE",
"521 184 LINE",
"440 84 LINE SMOOTH",
"403 39 OFFCURVE",
"364 20 OFFCURVE",
"305 20 CURVE SMOOTH",
"150 20 LINE",
"592 640 LINE",
"596 660 LINE",
"115 660 LINE",
"75 476 LINE",
"85 476 LINE",
"174 585 LINE SMOOTH",
"205 623 OFFCURVE",
"240 640 OFFCURVE",
"290 640 CURVE SMOOTH",
"441 640 LINE",
"-1 18 LINE",
"-5 0 LINE"
);
}
);
width = 542.61709;
}
);
leftKerningGroup = LAT_Z;
rightKerningGroup = LAT_Z;
unicode = 005A;
},
{
color = 4;
glyphname = a;
lastChange = "2019-06-06 21:00:21 +0000";
layers = (
{
anchors = (
{
name = aboveLC;
position = "{377, 514}";
},
{
name = belowLC;
position = "{260, -22}";
},
{
name = ogonek;
position = "{440, 0}";
}
);
layerId = "7FECB189-581E-46CC-8EA5-5DBBB4FDF678";
paths = (
{
closed = 1;
nodes = (
"220 -15 OFFCURVE",
"297 60 OFFCURVE",
"357 135 CURVE",
"355 152 LINE",
"304 96 OFFCURVE",
"267 65 OFFCURVE",
"228 65 CURVE SMOOTH",
"189 65 OFFCURVE",
"164 94 OFFCURVE",
"164 165 CURVE SMOOTH",
"164 262 OFFCURVE",
"194 358 OFFCURVE",
"243 413 CURVE SMOOTH",
"274 447 OFFCURVE",
"305 464 OFFCURVE",
"333 464 CURVE SMOOTH",
"362 464 OFFCURVE",
"406 448 OFFCURVE",
"416 392 CURVE",
"477 437 LINE",
"449 472 OFFCURVE",
"417 496 OFFCURVE",
"377 496 CURVE SMOOTH",
"239 496 OFFCURVE",
"46 297 OFFCURVE",
"46 120 CURVE SMOOTH",
"46 21 OFFCURVE",
"99 -15 OFFCURVE",
"155 -15 CURVE SMOOTH"
);
},
{
closed = 1;
nodes = (
"460 -15 OFFCURVE",
"515 37 OFFCURVE",
"545 84 CURVE",
"537 92 LINE",
"505 62 OFFCURVE",
"481 44 OFFCURVE",
"462 44 CURVE SMOOTH",
"450 44 OFFCURVE",
"443 51 OFFCURVE",
"443 65 CURVE SMOOTH",
"443 76 OFFCURVE",
"445 91 OFFCURVE",
"450 111 CURVE SMOOTH",
"537 494 LINE",
"529 499 LINE",
"399 449 LINE",
"333 148 LINE SMOOTH",
"326 118 OFFCURVE",
"323 95 OFFCURVE",
"323 69 CURVE SMOOTH",
"323 12 OFFCURVE",
"354 -15 OFFCURVE",
"399 -15 CURVE SMOOTH"
);
}
);
width = 558.63449;
}
);
leftKerningGroup = LAT_a;
rightKerningGroup = LAT_a;
unicode = 0061;
},
{
color = 4;
glyphname = ae;
lastChange = "2019-06-06 17:07:10 +0000";
layers = (
{
anchors = (
{
name = aboveLC;
position = "{486, 514}";
},
{
name = belowLC;
position = "{343, -22}";
}
);
components = (
{
alignment = -1;
name = e;
transform = "{1, 0, 0, 1, 280, 0}";
}
);
layerId = "7FECB189-581E-46CC-8EA5-5DBBB4FDF678";
paths = (
{
closed = 1;
nodes = (
"220 -15 OFFCURVE",
"297 60 OFFCURVE",
"359 132 CURVE",
"357 155 LINE",
"306 98 OFFCURVE",
"267 65 OFFCURVE",
"228 65 CURVE SMOOTH",
"189 65 OFFCURVE",
"164 94 OFFCURVE",
"164 165 CURVE SMOOTH",
"164 262 OFFCURVE",
"194 358 OFFCURVE",
"243 413 CURVE SMOOTH",
"274 447 OFFCURVE",
"305 464 OFFCURVE",
"333 464 CURVE SMOOTH",
"362 464 OFFCURVE",
"406 448 OFFCURVE",
"419 381 CURVE",
"483 432 LINE",
"449 472 OFFCURVE",
"417 496 OFFCURVE",
"377 496 CURVE SMOOTH",
"239 496 OFFCURVE",
"46 297 OFFCURVE",
"46 120 CURVE SMOOTH",
"46 21 OFFCURVE",
"99 -15 OFFCURVE",
"155 -15 CURVE SMOOTH"
);
}
);
width = 736.33703;
}
);
leftKerningGroup = LAT_a;
leftMetricsKey = a;
rightKerningGroup = LAT_e;
rightMetricsKey = e;
unicode = 00E6;
},
{
color = 4;
glyphname = b;
lastChange = "2019-06-06 17:07:10 +0000";
layers = (
{
anchors = (
{
name = aboveLC;
position = "{227, 697}";
},
{
name = belowLC;
position = "{196, -22}";
}
);
layerId = "7FECB189-581E-46CC-8EA5-5DBBB4FDF678";
paths = (
{
closed = 1;
nodes = (
"336 -15 OFFCURVE",
"518 174 OFFCURVE",
"518 361 CURVE SMOOTH",
"518 458 OFFCURVE",
"476 496 OFFCURVE",
"417 496 CURVE SMOOTH",
"349 496 OFFCURVE",
"264 436 OFFCURVE",
"208 351 CURVE",
"211 335 LINE",
"258 390 OFFCURVE",
"298 425 OFFCURVE",
"335 425 CURVE SMOOTH",
"370 425 OFFCURVE",
"391 389 OFFCURVE",
"391 317 CURVE SMOOTH",
"391 234 OFFCURVE",
"359 132 OFFCURVE",
"319 80 CURVE",
"287 39 OFFCURVE",
"254 18 OFFCURVE",
"217 18 CURVE SMOOTH",
"188 18 OFFCURVE",
"175 43 OFFCURVE",
"175 76 CURVE SMOOTH",
"175 102 OFFCURVE",
"185 154 OFFCURVE",
"201 230 CURVE SMOOTH",
"229 360 LINE",
"229 372 LINE",
"298 690 LINE",
"292 697 LINE",
"96 641 LINE",
"95 631 LINE",
"113 624 LINE SMOOTH",
"139 615 OFFCURVE",
"149 596 OFFCURVE",
"144 568 CURVE SMOOTH",
"83 260 LINE SMOOTH",
"71 201 OFFCURVE",
"57 140 OFFCURVE",
"57 92 CURVE SMOOTH",
"57 20 OFFCURVE",
"101 -15 OFFCURVE",
"167 -15 CURVE SMOOTH"
);
}
);
width = 511.73259;
}
);
leftKerningGroup = LAT_h;
rightKerningGroup = LAT_b;
unicode = 0062;
},
{
color = 4;
glyphname = c;
lastChange = "2019-06-06 17:07:10 +0000";
layers = (
{
anchors = (
{
name = aboveLC;
position = "{348, 513}";
},
{
name = baseLC;
position = "{199, 0}";
},
{
name = belowLC;
position = "{207, -22}";
}
);
layerId = "7FECB189-581E-46CC-8EA5-5DBBB4FDF678";
paths = (
{
closed = 1;
nodes = (
"315 -15 OFFCURVE",
"397 56 OFFCURVE",
"439 134 CURVE",
"425 144 LINE",
"385 89 OFFCURVE",
"337 57 OFFCURVE",
"289 57 CURVE SMOOTH",
"216 57 OFFCURVE",
"169 103 OFFCURVE",
"169 203 CURVE SMOOTH",
"169 300 OFFCURVE",
"216 401 OFFCURVE",
"271 447 CURVE SMOOTH",
"304 475 OFFCURVE",
"312 466 OFFCURVE",
"331 422 CURVE SMOOTH",
"337 405 LINE SMOOTH",
"350 375 OFFCURVE",
"372 349 OFFCURVE",
"409 349 CURVE SMOOTH",
"443 349 OFFCURVE",
"467 371 OFFCURVE",
"468 407 CURVE SMOOTH",
"469 461 OFFCURVE",
"406 496 OFFCURVE",
"336 496 CURVE SMOOTH",
"179 496 OFFCURVE",
"51 345 OFFCURVE",
"51 175 CURVE SMOOTH",
"51 55 OFFCURVE",
"120 -15 OFFCURVE",
"219 -15 CURVE SMOOTH"
);
}
);
width = 454.43038;
}
);
leftKerningGroup = LAT_o;
rightKerningGroup = LAT_c;
unicode = 0063;
},
{
color = 4;
glyphname = d;
lastChange = "2019-06-06 17:07:10 +0000";
layers = (
{
anchors = (
{
name = aboveLC;
position = "{506, 701}";
},
{
name = belowLC;
position = "{275, -22}";
}
);
layerId = "7FECB189-581E-46CC-8EA5-5DBBB4FDF678";
paths = (
{
closed = 1;
nodes = (
"215 -15 OFFCURVE",
"299 51 OFFCURVE",
"356 140 CURVE",
"357 162 LINE",
"305 93 OFFCURVE",
"264 62 OFFCURVE",
"227 62 CURVE SMOOTH",
"192 62 OFFCURVE",
"169 89 OFFCURVE",
"169 156 CURVE SMOOTH",
"169 250 OFFCURVE",
"203 365 OFFCURVE",
"250 417 CURVE SMOOTH",
"275 445 OFFCURVE",
"303 461 OFFCURVE",
"337 461 CURVE SMOOTH",
"370 461 OFFCURVE",
"393 447 OFFCURVE",
"418 415 CURVE",
"474 447 LINE",
"443 481 OFFCURVE",
"413 496 OFFCURVE",
"375 496 CURVE SMOOTH",
"229 496 OFFCURVE",
"47 297 OFFCURVE",
"47 124 CURVE SMOOTH",
"47 21 OFFCURVE",
"95 -15 OFFCURVE",
"148 -15 CURVE SMOOTH"
);
},
{
closed = 1;
nodes = (
"458 -15 OFFCURVE",
"517 31 OFFCURVE",
"549 84 CURVE",
"538 94 LINE",
"510 61 OFFCURVE",
"480 44 OFFCURVE",
"464 44 CURVE SMOOTH",
"453 44 OFFCURVE",
"447 52 OFFCURVE",
"447 65 CURVE SMOOTH",
"447 78 OFFCURVE",
"449 90 OFFCURVE",
"453 112 CURVE SMOOTH",
"576 694 LINE",
"569 701 LINE",
"375 645 LINE",
"373 635 LINE",
"395 626 LINE SMOOTH",
"422 616 OFFCURVE",
"434 595 OFFCURVE",
"428 565 CURVE SMOOTH",
"408 466 LINE",
"398 446 LINE",
"335 143 LINE SMOOTH",
"329 110 OFFCURVE",
"326 82 OFFCURVE",
"326 62 CURVE",
"326 17 OFFCURVE",
"353 -15 OFFCURVE",
"397 -15 CURVE SMOOTH"
);
}
);
width = 553.30696;
}
);
leftKerningGroup = LAT_a;
rightKerningGroup = LAT_l;
unicode = 0064;
},
{
color = 4;
glyphname = eth;
lastChange = "2019-06-06 17:07:10 +0000";
layers = (
{
layerId = "7FECB189-581E-46CC-8EA5-5DBBB4FDF678";
paths = (
{
closed = 1;
nodes = (
"394 -15 OFFCURVE",
"513 127 OFFCURVE",
"513 332 CURVE SMOOTH",
"513 532 OFFCURVE",
"406 677 OFFCURVE",
"237 739 CURVE",
"225 721 LINE",
"344 646 OFFCURVE",
"390 563 OFFCURVE",
"402 374 CURVE",
"427 388 LINE",
"408 452 OFFCURVE",
"376 486 OFFCURVE",
"312 486 CURVE SMOOTH",
"168 486 OFFCURVE",
"48 351 OFFCURVE",
"48 177 CURVE SMOOTH",
"48 48 OFFCURVE",
"127 -15 OFFCURVE",
"236 -15 CURVE SMOOTH"
);
},
{
closed = 1;
nodes = (
"207 5 OFFCURVE",
"179 43 OFFCURVE",
"179 161 CURVE SMOOTH",
"179 326 OFFCURVE",
"242 466 OFFCURVE",
"321 466 CURVE SMOOTH",
"362 466 OFFCURVE",
"389 434 OFFCURVE",
"389 331 CURVE SMOOTH",
"389 161 OFFCURVE",
"328 5 OFFCURVE",
"247 5 CURVE SMOOTH"
);
},
{
closed = 1;
nodes = (
"504 701 LINE",
"493 723 LINE",
"191 568 LINE",
"200 548 LINE"
);
}
);
width = 515.64715;
}
);
leftKerningGroup = LAT_o;
unicode = 00F0;
},
{
glyphname = dcaron;
lastChange = "2019-06-06 17:07:10 +0000";
layers = (
{
components = (
{
alignment = -1;
name = d;
}
);
layerId = "7FECB189-581E-46CC-8EA5-5DBBB4FDF678";
paths = (
{
closed = 1;
nodes = (
"689 745 OFFCURVE",
"676 742 OFFCURVE",
"658 734 CURVE",
"612 510 LINE",
"655 506 LINE",
"698 582 LINE SMOOTH",
"724 628 OFFCURVE",
"750 675 OFFCURVE",
"750 709 CURVE SMOOTH",
"750 726 OFFCURVE",
"739 745 OFFCURVE",
"706 745 CURVE SMOOTH"
);
}
);
width = 599.73259;
}
);
leftKerningGroup = LAT_a;
rightKerningGroup = LAT_dcaron;
unicode = 010F;
},
{
color = 4;
glyphname = dcroat;
lastChange = "2019-06-06 17:07:10 +0000";
layers = (
{
layerId = "7FECB189-581E-46CC-8EA5-5DBBB4FDF678";
paths = (
{
closed = 1;
nodes = (
"216 -15 OFFCURVE",
"299 49 OFFCURVE",
"356 137 CURVE",
"356 160 LINE",
"307 94 OFFCURVE",
"268 63 OFFCURVE",
"232 63 CURVE SMOOTH",
"197 63 OFFCURVE",
"174 90 OFFCURVE",
"174 157 CURVE SMOOTH",
"174 243 OFFCURVE",
"209 350 OFFCURVE",
"256 400 CURVE SMOOTH",
"279 425 OFFCURVE",
"307 442 OFFCURVE",
"339 442 CURVE SMOOTH",
"372 442 OFFCURVE",
"394 428 OFFCURVE",
"419 398 CURVE",
"477 428 LINE",
"447 461 OFFCURVE",
"415 476 OFFCURVE",
"378 476 CURVE SMOOTH",
"231 476 OFFCURVE",
"47 289 OFFCURVE",
"47 125 CURVE SMOOTH",
"47 21 OFFCURVE",
"95 -15 OFFCURVE",
"149 -15 CURVE SMOOTH"
);
},
{
closed = 1;
nodes = (
"463 -15 OFFCURVE",
"523 32 OFFCURVE",
"555 86 CURVE",
"544 96 LINE",
"515 63 OFFCURVE",
"485 46 OFFCURVE",
"470 46 CURVE SMOOTH",
"459 46 OFFCURVE",
"453 53 OFFCURVE",
"453 67 CURVE SMOOTH",
"453 79 OFFCURVE",
"455 90 OFFCURVE",
"460 112 CURVE SMOOTH",
"583 693 LINE",
"575 701 LINE",
"375 643 LINE",
"374 633 LINE",
"396 624 LINE SMOOTH",
"423 614 OFFCURVE",
"434 593 OFFCURVE",
"428 563 CURVE SMOOTH",
"409 467 LINE",
"400 449 LINE",
"337 146 LINE SMOOTH",
"331 114 OFFCURVE",
"327 86 OFFCURVE",
"327 64 CURVE",
"327 18 OFFCURVE",
"354 -15 OFFCURVE",
"400 -15 CURVE SMOOTH"
);
},
{
closed = 1;
nodes = (
"640 536 LINE",
"645 558 LINE",
"288 558 LINE",
"284 536 LINE"
);
}
);
width = 565.26776;
}
);
leftKerningGroup = LAT_a;
rightKerningGroup = LAT_l;
unicode = 0111;
},
{
color = 4;
glyphname = e;
lastChange = "2019-06-06 17:07:10 +0000";
layers = (
{
anchors = (
{
name = aboveLC;
position = "{349, 514}";
},
{
name = belowLC;
position = "{220, -22}";
},
{
name = ogonek;
position = "{282, 0}";
}
);
layerId = "7FECB189-581E-46CC-8EA5-5DBBB4FDF678";
paths = (
{
closed = 1;
nodes = (
"319 -15 OFFCURVE",
"394 61 OFFCURVE",
"435 139 CURVE",
"425 146 LINE",
"391 103 OFFCURVE",
"342 67 OFFCURVE",
"285 67 CURVE SMOOTH",
"216 67 OFFCURVE",
"175 110 OFFCURVE",
"175 206 CURVE SMOOTH",
"175 345 OFFCURVE",
"267 469 OFFCURVE",
"332 469 CURVE SMOOTH",
"358 469 OFFCURVE",
"378 451 OFFCURVE",
"378 411 CURVE SMOOTH",
"378 322 OFFCURVE",
"313 251 OFFCURVE",
"140 212 CURVE",
"142 195 LINE",
"338 222 OFFCURVE",
"469 310 OFFCURVE",
"469 392 CURVE SMOOTH",
"469 455 OFFCURVE",
"423 496 OFFCURVE",
"339 496 CURVE SMOOTH",
"177 496 OFFCURVE",
"51 344 OFFCURVE",
"51 173 CURVE SMOOTH",
"51 53 OFFCURVE",
"120 -15 OFFCURVE",
"220 -15 CURVE SMOOTH"
);
}
);
width = 456.11551;
}
);
leftKerningGroup = LAT_o;
rightKerningGroup = LAT_e;
unicode = 0065;
},
{
color = 4;
glyphname = f;
lastChange = "2019-06-06 17:07:10 +0000";
layers = (
{
anchors = (
{
name = aboveLC;
position = "{374, 744}";
},
{
name = belowLC;
position = "{-16, -243}";
}
);
layerId = "7FECB189-581E-46CC-8EA5-5DBBB4FDF678";
paths = (
{
closed = 1;
nodes = (
"10 -240 OFFCURVE",
"63 -219 OFFCURVE",
"104 -177 CURVE SMOOTH",
"154 -127 OFFCURVE",
"182 -55 OFFCURVE",
"201 44 CURVE SMOOTH",
"225 175 OFFCURVE",
"245 320 OFFCURVE",
"266 461 CURVE",
"386 460 LINE",
"391 481 LINE",
"269 481 LINE",
"284 573 OFFCURVE",
"302 628 OFFCURVE",
"325 660 CURVE SMOOTH",
"336 680 OFFCURVE",
"353 683 OFFCURVE",
"365 655 CURVE SMOOTH",
"369 639 LINE SMOOTH",
"389 598 OFFCURVE",
"416 576 OFFCURVE",
"447 576 CURVE SMOOTH",
"479 576 OFFCURVE",
"505 599 OFFCURVE",
"505 635 CURVE SMOOTH",
"505 679 OFFCURVE",
"460 711 OFFCURVE",
"393 711 CURVE SMOOTH",
"276 711 OFFCURVE",
"194 646 OFFCURVE",
"158 530 CURVE SMOOTH",
"148 497 OFFCURVE",
"135 480 OFFCURVE",
"103 476 CURVE SMOOTH",
"64 472 LINE",
"62 463 LINE",
"143 463 LINE",
"121 311 OFFCURVE",
"102 175 OFFCURVE",
"81 45 CURVE SMOOTH",
"69 -34 OFFCURVE",
"55 -100 OFFCURVE",
"37 -145 CURVE SMOOTH",
"29 -168 OFFCURVE",
"24 -182 OFFCURVE",
"18 -194 CURVE SMOOTH",
"8 -210 OFFCURVE",
"-3 -207 OFFCURVE",
"-11 -192 CURVE SMOOTH",
"-21 -167 LINE SMOOTH",
"-41 -127 OFFCURVE",
"-67 -113 OFFCURVE",
"-98 -113 CURVE SMOOTH",
"-129 -113 OFFCURVE",
"-155 -133 OFFCURVE",
"-155 -167 CURVE SMOOTH",
"-155 -214 OFFCURVE",
"-101 -240 OFFCURVE",
"-45 -240 CURVE SMOOTH"
);
}
);
width = 331.75791;
}
);
leftKerningGroup = LAT_f;
rightKerningGroup = LAT_f;
unicode = 0066;
},
{
color = 4;
glyphname = g;
lastChange = "2019-06-06 17:07:10 +0000";
layers = (
{
anchors = (
{
name = aboveLC;
position = "{306, 514}";
},
{
name = belowLC;
position = "{182, -236}";
}
);
layerId = "7FECB189-581E-46CC-8EA5-5DBBB4FDF678";
paths = (
{
closed = 1;
nodes = (
"336 -236 OFFCURVE",
"472 -157 OFFCURVE",
"472 -45 CURVE SMOOTH",
"472 17 OFFCURVE",
"433 50 OFFCURVE",
"322 73 CURVE SMOOTH",
"158 106 LINE SMOOTH",
"134 110 OFFCURVE",
"131 129 OFFCURVE",
"142 145 CURVE SMOOTH",
"172 194 LINE",
"166 200 LINE",
"102 155 OFFCURVE",
"43 98 OFFCURVE",
"43 61 CURVE SMOOTH",
"43 23 OFFCURVE",
"80 3 OFFCURVE",
"139 -8 CURVE SMOOTH",
"256 -30 LINE SMOOTH",
"341 -46 OFFCURVE",
"371 -66 OFFCURVE",
"371 -105 CURVE SMOOTH",
"371 -171 OFFCURVE",
"308 -206 OFFCURVE",
"206 -206 CURVE SMOOTH",
"125 -206 OFFCURVE",
"73 -166 OFFCURVE",
"73 -99 CURVE SMOOTH",
"73 -59 OFFCURVE",
"95 -27 OFFCURVE",
"130 -6 CURVE",
"123 0 LINE",
"54 -22 OFFCURVE",
"-28 -70 OFFCURVE",
"-28 -134 CURVE SMOOTH",
"-28 -201 OFFCURVE",
"41 -236 OFFCURVE",
"153 -236 CURVE SMOOTH"
);
},
{
closed = 1;
nodes = (
"367 152 OFFCURVE",
"452 238 OFFCURVE",
"452 360 CURVE SMOOTH",
"452 450 OFFCURVE",
"379 496 OFFCURVE",
"288 496 CURVE SMOOTH",
"173 496 OFFCURVE",
"80 402 OFFCURVE",
"80 293 CURVE SMOOTH",
"80 219 OFFCURVE",
"136 152 OFFCURVE",
"242 152 CURVE SMOOTH"
);
},
{
closed = 1;
nodes = (
"216 171 OFFCURVE",
"198 234 OFFCURVE",
"198 308 CURVE SMOOTH",
"198 409 OFFCURVE",
"226 475 OFFCURVE",
"280 476 CURVE SMOOTH",
"315 476 OFFCURVE",
"340 427 OFFCURVE",
"340 342 CURVE SMOOTH",
"340 216 OFFCURVE",
"304 172 OFFCURVE",
"260 172 CURVE SMOOTH"
);
},
{
closed = 1;
nodes = (
"528 437 LINE",
"538 489 LINE",
"531 496 LINE",
"491 472 OFFCURVE",
"447 458 OFFCURVE",
"401 452 CURVE",
"405 437 LINE"
);
}
);
width = 521.51108;
}
);
leftKerningGroup = LAT_g;
rightKerningGroup = LAT_g;
unicode = 0067;
},
{
color = 4;
glyphname = gcommaaccent;
lastChange = "2019-06-06 17:07:10 +0000";
layers = (
{
components = (
{
alignment = -1;
name = g;
}
);
layerId = "7FECB189-581E-46CC-8EA5-5DBBB4FDF678";
paths = (
{
closed = 1;
nodes = (
"310 740 OFFCURVE",
"262 698 OFFCURVE",
"262 635 CURVE SMOOTH",
"262 616 OFFCURVE",
"265 605 OFFCURVE",
"273 587 CURVE",
"291 573 OFFCURVE",
"307 568 OFFCURVE",
"325 568 CURVE SMOOTH",
"358 568 OFFCURVE",
"386 592 OFFCURVE",
"386 628 CURVE SMOOTH",
"386 659 OFFCURVE",
"362 683 OFFCURVE",
"323 711 CURVE",
"315 648 LINE",
"336 700 OFFCURVE",
"359 717 OFFCURVE",
"404 746 CURVE",
"384 778 LINE"
);
}
);
width = 521.51108;
}
);
leftKerningGroup = LAT_g;
rightKerningGroup = LAT_g;
unicode = 0123;
},
{
color = 4;
glyphname = h;
lastChange = "2019-06-06 17:07:10 +0000";
layers = (
{
anchors = (
{
name = aboveLC;
position = "{236, 701}";
},
{
name = belowLC;
position = "{227, -18}";
}
);
layerId = "7FECB189-581E-46CC-8EA5-5DBBB4FDF678";
paths = (
{
closed = 1;
nodes = (
"156 0 LINE",
"168 72 OFFCURVE",
"179 132 OFFCURVE",
"197 214 CURVE SMOOTH",
"228 357 LINE",
"228 373 LINE",
"296 694 LINE",
"289 701 LINE",
"98 645 LINE",
"96 635 LINE",
"112 630 LINE SMOOTH",
"138 621 OFFCURVE",
"150 601 OFFCURVE",
"145 573 CURVE SMOOTH",
"136 522 OFFCURVE",
"128 487 OFFCURVE",
"118 436 CURVE SMOOTH",
"27 0 LINE",
"33 -6 LINE"
);
},
{
closed = 1;
nodes = (
"447 -15 OFFCURVE",
"504 33 OFFCURVE",
"536 82 CURVE",
"527 91 LINE",
"496 62 OFFCURVE",
"473 47 OFFCURVE",
"454 47 CURVE SMOOTH",
"444 47 OFFCURVE",
"436 54 OFFCURVE",
"436 68 CURVE SMOOTH",
"436 79 OFFCURVE",
"442 96 OFFCURVE",
"448 122 CURVE SMOOTH",
"498 326 LINE SMOOTH",
"506 358 OFFCURVE",
"512 388 OFFCURVE",
"512 416 CURVE SMOOTH",
"512 470 OFFCURVE",
"482 496 OFFCURVE",
"439 496 CURVE SMOOTH",
"369 496 OFFCURVE",
"280 435 OFFCURVE",
"211 356 CURVE",
"211 336 LINE",
"273 402 OFFCURVE",
"320 433 OFFCURVE",
"356 433 CURVE SMOOTH",
"379 433 OFFCURVE",
"389 420 OFFCURVE",
"389 398 CURVE SMOOTH",
"389 377 OFFCURVE",
"380 346 OFFCURVE",
"371 310 CURVE SMOOTH",
"326 134 LINE SMOOTH",
"317 102 OFFCURVE",
"309 72 OFFCURVE",
"309 44 CURVE SMOOTH",
"309 7 OFFCURVE",
"334 -15 OFFCURVE",
"378 -15 CURVE SMOOTH"
);
}
);
width = 545.22627;
}
);
leftKerningGroup = LAT_h;
rightKerningGroup = LAT_h;
unicode = 0068;
},
{
color = 4;
glyphname = i;
lastChange = "2019-06-06 17:07:10 +0000";
layers = (
{
anchors = (
{
name = aboveLC;
position = "{238, 737}";
},
{
name = belowLC;
position = "{126, -22}";
},
{
name = ogonek;
position = "{173, 0}";
}
);
layerId = "7FECB189-581E-46CC-8EA5-5DBBB4FDF678";
paths = (
{
closed = 1;
nodes = (
"193 -15 OFFCURVE",
"244 31 OFFCURVE",
"278 81 CURVE",
"269 90 LINE",
"238 61 OFFCURVE",
"221 49 OFFCURVE",
"201 49 CURVE SMOOTH",
"188 49 OFFCURVE",
"181 58 OFFCURVE",
"181 71 CURVE SMOOTH",
"181 87 OFFCURVE",
"184 102 OFFCURVE",
"189 126 CURVE SMOOTH",
"267 488 LINE",
"257 497 LINE",
"69 443 LINE",
"68 432 LINE",
"84 424 LINE SMOOTH",
"109 413 OFFCURVE",
"119 394 OFFCURVE",
"113 366 CURVE SMOOTH",
"66 141 LINE SMOOTH",
"59 108 OFFCURVE",
"53 72 OFFCURVE",
"53 48 CURVE SMOOTH",
"53 7 OFFCURVE",
"82 -15 OFFCURVE",
"124 -15 CURVE SMOOTH"
);
},
{
closed = 1;
nodes = (
"258 552 OFFCURVE",
"296 587 OFFCURVE",
"296 632 CURVE SMOOTH",
"296 672 OFFCURVE",
"268 700 OFFCURVE",
"228 700 CURVE SMOOTH",
"187 700 OFFCURVE",
"148 666 OFFCURVE",
"148 620 CURVE SMOOTH",
"148 578 OFFCURVE",
"180 552 OFFCURVE",
"217 552 CURVE SMOOTH"
);
}
);
width = 285.11551;
}
);
leftKerningGroup = LAT_i;
rightKerningGroup = LAT_i;
unicode = 0069;
},
{
color = 4;
glyphname = idotless;
lastChange = "2019-06-06 17:07:10 +0000";
layers = (
{
anchors = (
{
name = aboveLC;
position = "{201, 514}";
},
{
name = belowLC;
position = "{126, -22}";
},
{
name = ogonek;
position = "{173, 0}";
}
);
layerId = "7FECB189-581E-46CC-8EA5-5DBBB4FDF678";
paths = (
{
closed = 1;
nodes = (
"199 -15 OFFCURVE",
"257 41 OFFCURVE",
"294 99 CURVE",
"284 107 LINE",
"246 65 OFFCURVE",
"225 49 OFFCURVE",
"201 49 CURVE SMOOTH",
"188 49 OFFCURVE",
"181 58 OFFCURVE",
"181 71 CURVE SMOOTH",
"181 87 OFFCURVE",
"184 102 OFFCURVE",
"189 126 CURVE SMOOTH",
"267 488 LINE",
"257 497 LINE",
"69 443 LINE",
"68 432 LINE",
"84 424 LINE SMOOTH",
"109 413 OFFCURVE",
"119 394 OFFCURVE",
"113 366 CURVE SMOOTH",
"66 141 LINE SMOOTH",
"59 108 OFFCURVE",
"53 72 OFFCURVE",
"53 48 CURVE SMOOTH",
"53 7 OFFCURVE",
"82 -15 OFFCURVE",
"124 -15 CURVE SMOOTH"
);
}
);
width = 285.11551;
}
);
leftKerningGroup = LAT_m;
rightKerningGroup = LAT_i;
unicode = 0131;
},
{
color = 4;
glyphname = j;
lastChange = "2019-06-06 17:07:10 +0000";
layers = (
{
anchors = (
{
name = aboveLC;
position = "{258, 737}";
},
{
name = belowLC;
position = "{9, -244}";
}
);
layerId = "7FECB189-581E-46CC-8EA5-5DBBB4FDF678";
paths = (
{
closed = 1;
nodes = (
"8 -234 OFFCURVE",
"61 -206 OFFCURVE",
"99 -164 CURVE SMOOTH",
"146 -116 OFFCURVE",
"177 -47 OFFCURVE",
"197 54 CURVE SMOOTH",
"282 489 LINE",
"274 497 LINE",
"87 443 LINE",
"86 432 LINE",
"100 426 LINE SMOOTH",
"126 414 OFFCURVE",
"138 394 OFFCURVE",
"132 365 CURVE SMOOTH",
"73 50 LINE SMOOTH",
"53 -60 OFFCURVE",
"35 -125 OFFCURVE",
"12 -165 CURVE SMOOTH",
"-6 -199 OFFCURVE",
"-31 -211 OFFCURVE",
"-63 -224 CURVE",
"-60 -239 LINE"
);
},
{
closed = 1;
nodes = (
"277 552 OFFCURVE",
"315 587 OFFCURVE",
"315 632 CURVE SMOOTH",
"315 672 OFFCURVE",
"286 700 OFFCURVE",
"246 700 CURVE SMOOTH",
"205 700 OFFCURVE",
"166 666 OFFCURVE",
"166 620 CURVE SMOOTH",
"166 578 OFFCURVE",
"199 552 OFFCURVE",
"236 552 CURVE SMOOTH"
);
}
);
width = 282.96203;
}
);
leftKerningGroup = LAT_j;
rightKerningGroup = LAT_j;
unicode = 006A;
},
{
color = 4;
glyphname = k;
lastChange = "2019-10-15 13:49:26 +0000";
layers = (
{
anchors = (
{
name = aboveLC;
position = "{235, 701}";
},
{
name = belowLC;
position = "{236, -22}";
}
);
layerId = "7FECB189-581E-46CC-8EA5-5DBBB4FDF678";
paths = (
{
closed = 1;
nodes = (
"155 0 LINE",
"167 72 OFFCURVE",
"179 132 OFFCURVE",
"196 214 CURVE SMOOTH",
"296 694 LINE",
"289 701 LINE",
"97 645 LINE",
"95 636 LINE",
"112 629 LINE SMOOTH",
"138 620 OFFCURVE",
"148 601 OFFCURVE",
"144 574 CURVE SMOOTH",
"136 527 OFFCURVE",
"126 482 OFFCURVE",
"117 436 CURVE SMOOTH",
"27 3 LINE",
"40 -8 LINE"
);
},
{
closed = 1;
nodes = (
"473 0 LINE",
"475 10 LINE",
"467 15 LINE SMOOTH",
"450 26 OFFCURVE",
"439 35 OFFCURVE",
"425 51 CURVE SMOOTH",
"246 257 LINE",
"445 351 LINE SMOOTH",
"489 372 OFFCURVE",
"520 393 OFFCURVE",
"520 428 CURVE SMOOTH",
"520 467 OFFCURVE",
"491 489 OFFCURVE",
"455 490 CURVE",
"206 254 LINE",
"262 100 LINE SMOOTH",
"276 63 OFFCURVE",
"292 18 OFFCURVE",
"311 0 CURVE"
);
}
);
width = 489.95411;
}
);
leftKerningGroup = LAT_h;
rightKerningGroup = LAT_k;
unicode = 006B;
},
{
color = 4;
glyphname = l;
lastChange = "2019-06-06 17:07:10 +0000";
layers = (
{
anchors = (
{
name = aboveLC;
position = "{229, 701}";
},
{
name = belowLC;
position = "{117, -22}";
}
);
layerId = "7FECB189-581E-46CC-8EA5-5DBBB4FDF678";
paths = (
{
closed = 1;
nodes = (
"188 -15 OFFCURVE",
"238 34 OFFCURVE",
"272 83 CURVE",
"262 91 LINE",
"229 60 OFFCURVE",
"205 46 OFFCURVE",
"189 46 CURVE SMOOTH",
"178 46 OFFCURVE",
"170 53 OFFCURVE",
"170 68 CURVE SMOOTH",
"170 78 OFFCURVE",
"173 94 OFFCURVE",
"177 114 CURVE SMOOTH",
"300 694 LINE",
"294 701 LINE",
"98 645 LINE",
"96 635 LINE",
"113 629 LINE SMOOTH",
"139 620 OFFCURVE",
"150 602 OFFCURVE",
"145 575 CURVE SMOOTH",
"136 523 OFFCURVE",
"129 487 OFFCURVE",
"119 436 CURVE SMOOTH",
"62 160 LINE SMOOTH",
"51 106 OFFCURVE",
"46 75 OFFCURVE",
"46 51 CURVE SMOOTH",
"46 8 OFFCURVE",
"74 -15 OFFCURVE",
"118 -15 CURVE SMOOTH"
);
}
);
width = 275.04747;
}
);
leftKerningGroup = LAT_h;
rightKerningGroup = LAT_l;
unicode = 006C;
},
{
glyphname = lcaron;
lastChange = "2019-06-06 17:07:10 +0000";
layers = (
{
components = (
{
alignment = -1;
name = l;
}
);
layerId = "7FECB189-581E-46CC-8EA5-5DBBB4FDF678";
paths = (
{
closed = 1;
nodes = (
"428 745 OFFCURVE",
"415 742 OFFCURVE",
"396 734 CURVE",
"351 510 LINE",
"394 506 LINE",
"437 582 LINE SMOOTH",
"462 628 OFFCURVE",
"489 675 OFFCURVE",
"489 709 CURVE SMOOTH",
"489 726 OFFCURVE",
"478 745 OFFCURVE",
"445 745 CURVE SMOOTH"
);
}
);
width = 338.51108;
}
);
leftKerningGroup = LAT_h;
rightKerningGroup = LAT_dcaron;
unicode = 013E;
},
{
color = 4;
glyphname = lslash;
lastChange = "2019-06-06 17:07:10 +0000";
layers = (
{
components = (
{
alignment = -1;
name = l;
}
);
layerId = "7FECB189-581E-46CC-8EA5-5DBBB4FDF678";
paths = (
{
closed = 1;
nodes = (
"22 318 LINE",
"13 282 LINE",
"195 372 LINE",
"203 407 LINE"
);
},
{
closed = 1;
nodes = (
"147 367 LINE",
"138 332 LINE",
"324 424 LINE",
"332 460 LINE"
);
}
);
width = 275.04747;
}
);
leftKerningGroup = LAT_h;
rightKerningGroup = LAT_l;
unicode = 0142;
},
{
color = 4;
glyphname = m;
lastChange = "2019-06-06 17:07:10 +0000";
layers = (
{
anchors = (
{
name = aboveLC;
position = "{470, 514}";
},
{
name = belowLC;
position = "{382, -22}";
}
);
layerId = "7FECB189-581E-46CC-8EA5-5DBBB4FDF678";
paths = (
{
closed = 1;
nodes = (
"731 -15 OFFCURVE",
"787 38 OFFCURVE",
"815 82 CURVE",
"805 92 LINE",
"776 63 OFFCURVE",
"751 45 OFFCURVE",
"731 45 CURVE SMOOTH",
"721 45 OFFCURVE",
"714 52 OFFCURVE",
"714 66 CURVE SMOOTH",
"714 76 OFFCURVE",
"718 91 OFFCURVE",
"724 112 CURVE SMOOTH",
"776 326 LINE SMOOTH",
"784 358 OFFCURVE",
"790 388 OFFCURVE",
"790 416 CURVE SMOOTH",
"790 470 OFFCURVE",
"759 496 OFFCURVE",
"717 496 CURVE SMOOTH",
"648 496 OFFCURVE",
"568 440 OFFCURVE",
"494 354 CURVE",
"495 336 LINE",
"548 392 OFFCURVE",
"595 422 OFFCURVE",
"628 422 CURVE SMOOTH",
"649 422 OFFCURVE",
"660 412 OFFCURVE",
"660 387 CURVE SMOOTH",
"660 368 OFFCURVE",
"653 337 OFFCURVE",
"645 303 CURVE SMOOTH",
"604 134 LINE SMOOTH",
"595 102 OFFCURVE",
"587 72 OFFCURVE",
"587 44 CURVE SMOOTH",
"587 7 OFFCURVE",
"612 -15 OFFCURVE",
"656 -15 CURVE SMOOTH"
);
},
{
closed = 1;
nodes = (
"179 72 OFFCURVE",
"192 142 OFFCURVE",
"207 213 CURVE SMOOTH",
"239 359 LINE",
"264 488 LINE",
"255 497 LINE",
"69 442 LINE",
"67 432 LINE",
"85 423 LINE SMOOTH",
"110 413 OFFCURVE",
"119 394 OFFCURVE",
"113 368 CURVE SMOOTH",
"36 0 LINE",
"44 -7 LINE",
"166 0 LINE"
);
},
{
closed = 1;
nodes = (
"454 72 OFFCURVE",
"467 142 OFFCURVE",
"482 213 CURVE SMOOTH",
"510 343 LINE SMOOTH",
"515 369 OFFCURVE",
"520 393 OFFCURVE",
"520 416 CURVE SMOOTH",
"520 470 OFFCURVE",
"489 496 OFFCURVE",
"446 496 CURVE SMOOTH",
"377 496 OFFCURVE",
"294 440 OFFCURVE",
"220 355 CURVE",
"221 337 LINE",
"275 391 OFFCURVE",
"318 418 OFFCURVE",
"358 418 CURVE SMOOTH",
"377 418 OFFCURVE",
"388 408 OFFCURVE",
"388 385 CURVE SMOOTH",
"388 367 OFFCURVE",
"383 343 OFFCURVE",
"378 317 CURVE",
"311 0 LINE",
"319 -7 LINE",
"440 0 LINE"
);
}
);
width = 823.02215;
}
);
leftKerningGroup = LAT_m;
rightKerningGroup = LAT_h;
unicode = 006D;
},
{
color = 4;
glyphname = n;
lastChange = "2019-06-06 17:07:10 +0000";
layers = (
{
anchors = (
{
name = aboveLC;
position = "{332, 514}";
},
{
name = belowLC;
position = "{238, -18}";
}
);
layerId = "7FECB189-581E-46CC-8EA5-5DBBB4FDF678";
paths = (
{
closed = 1;
nodes = (
"455 -15 OFFCURVE",
"513 32 OFFCURVE",
"546 82 CURVE",
"536 92 LINE",
"508 63 OFFCURVE",
"482 47 OFFCURVE",
"465 47 CURVE SMOOTH",
"454 47 OFFCURVE",
"448 54 OFFCURVE",
"448 68 CURVE SMOOTH",
"448 78 OFFCURVE",
"451 92 OFFCURVE",
"456 113 CURVE SMOOTH",
"509 326 LINE SMOOTH",
"517 358 OFFCURVE",
"523 388 OFFCURVE",
"523 416 CURVE SMOOTH",
"523 470 OFFCURVE",
"492 496 OFFCURVE",
"449 496 CURVE SMOOTH",
"378 496 OFFCURVE",
"293 434 OFFCURVE",
"217 340 CURVE",
"221 323 LINE",
"280 394 OFFCURVE",
"329 426 OFFCURVE",
"363 426 CURVE SMOOTH",
"381 426 OFFCURVE",
"393 417 OFFCURVE",
"393 393 CURVE SMOOTH",
"393 365 OFFCURVE",
"386 332 OFFCURVE",
"375 290 CURVE SMOOTH",
"336 134 LINE SMOOTH",
"328 102 OFFCURVE",
"320 72 OFFCURVE",
"320 44 CURVE SMOOTH",
"320 7 OFFCURVE",
"345 -15 OFFCURVE",
"389 -15 CURVE SMOOTH"
);
},
{
closed = 1;
nodes = (
"166 0 LINE",
"179 72 OFFCURVE",
"192 142 OFFCURVE",
"207 213 CURVE SMOOTH",
"239 359 LINE",
"264 489 LINE",
"255 497 LINE",
"69 442 LINE",
"68 432 LINE",
"85 424 LINE SMOOTH",
"109 413 OFFCURVE",
"119 395 OFFCURVE",
"113 368 CURVE SMOOTH",
"36 0 LINE",
"45 -7 LINE"
);
}
);
width = 553.03481;
}
);
leftKerningGroup = LAT_m;
rightKerningGroup = LAT_h;
unicode = 006E;
},
{
color = 4;
glyphname = o;
lastChange = "2019-06-06 17:07:10 +0000";
layers = (
{
anchors = (
{
name = aboveLC;
position = "{337, 514}";
},
{
name = belowLC;
position = "{227, -22}";
},
{
name = hornLC;
position = "{405, 485}";
},
{
name = ogonek;
position = "{306, 0}";
}
);
layerId = "7FECB189-581E-46CC-8EA5-5DBBB4FDF678";
paths = (
{
closed = 1;
nodes = (
"397 -15 OFFCURVE",
"519 140 OFFCURVE",
"519 309 CURVE SMOOTH",
"519 436 OFFCURVE",
"439 496 OFFCURVE",
"334 496 CURVE SMOOTH",
"172 496 OFFCURVE",
"48 343 OFFCURVE",
"48 173 CURVE SMOOTH",
"48 46 OFFCURVE",
"131 -15 OFFCURVE",
"236 -15 CURVE SMOOTH"
);
},
{
closed = 1;
nodes = (
"209 5 OFFCURVE",
"179 41 OFFCURVE",
"179 155 CURVE SMOOTH",
"179 308 OFFCURVE",
"241 476 OFFCURVE",
"327 476 CURVE SMOOTH",
"363 476 OFFCURVE",
"388 439 OFFCURVE",
"388 329 CURVE SMOOTH",
"388 176 OFFCURVE",
"331 5 OFFCURVE",
"248 5 CURVE SMOOTH"
);
}
);
width = 522.94937;
}
);
leftKerningGroup = LAT_o;
rightKerningGroup = LAT_o;
unicode = 006F;
},
{
color = 4;
glyphname = oslash;
lastChange = "2019-06-06 17:07:10 +0000";
layers = (
{
anchors = (
{
name = aboveLC;
position = "{337, 514}";
}
);
layerId = "7FECB189-581E-46CC-8EA5-5DBBB4FDF678";
paths = (
{
closed = 1;
nodes = (
"524 507 LINE",
"15 -7 LINE",
"34 -23 LINE",
"542 492 LINE"
);
},
{
closed = 1;
nodes = (
"397 -15 OFFCURVE",
"519 140 OFFCURVE",
"519 309 CURVE SMOOTH",
"519 436 OFFCURVE",
"439 496 OFFCURVE",
"334 496 CURVE SMOOTH",
"172 496 OFFCURVE",
"48 343 OFFCURVE",
"48 173 CURVE SMOOTH",
"48 46 OFFCURVE",
"131 -15 OFFCURVE",
"236 -15 CURVE SMOOTH"
);
},
{
closed = 1;
nodes = (
"204 5 OFFCURVE",
"172 36 OFFCURVE",
"172 155 CURVE SMOOTH",
"172 308 OFFCURVE",
"234 476 OFFCURVE",
"321 476 CURVE SMOOTH",
"365 476 OFFCURVE",
"395 444 OFFCURVE",
"395 329 CURVE SMOOTH",
"395 176 OFFCURVE",
"335 5 OFFCURVE",
"248 5 CURVE SMOOTH"
);
}
);
width = 522.94937;
}
);
leftKerningGroup = LAT_o;
rightKerningGroup = LAT_o;
unicode = 00F8;
},
{
color = 4;
glyphname = oe;
lastChange = "2019-06-06 17:07:10 +0000";
layers = (
{
anchors = (
{
name = aboveLC;
position = "{494, 514}";
}
);
components = (
{
alignment = -1;
name = e;
transform = "{1, 0, 0, 1, 327, 0}";
}
);
layerId = "7FECB189-581E-46CC-8EA5-5DBBB4FDF678";
paths = (
{
closed = 1;
nodes = (
"329 -15 OFFCURVE",
"409 37 OFFCURVE",
"460 114 CURVE",
"511 369 LINE",
"490 455 OFFCURVE",
"421 496 OFFCURVE",
"334 496 CURVE SMOOTH",
"172 496 OFFCURVE",
"48 343 OFFCURVE",
"48 173 CURVE SMOOTH",
"48 46 OFFCURVE",
"131 -15 OFFCURVE",
"236 -15 CURVE SMOOTH"
);
},
{
closed = 1;
nodes = (
"209 5 OFFCURVE",
"179 41 OFFCURVE",
"179 155 CURVE SMOOTH",
"179 308 OFFCURVE",
"241 476 OFFCURVE",
"327 476 CURVE SMOOTH",
"363 476 OFFCURVE",
"386 439 OFFCURVE",
"386 329 CURVE SMOOTH",
"386 176 OFFCURVE",
"331 5 OFFCURVE",
"248 5 CURVE SMOOTH"
);
}
);
width = 783.00475;
}
);
leftKerningGroup = LAT_o;
leftMetricsKey = o;
rightKerningGroup = LAT_e;
rightMetricsKey = e;
unicode = 0153;
},
{
color = 4;
glyphname = p;
lastChange = "2019-06-06 17:07:10 +0000";
layers = (
{
anchors = (
{
name = aboveLC;
position = "{320, 514}";
},
{
name = belowLC;
position = "{56, -245}";
}
);
layerId = "7FECB189-581E-46CC-8EA5-5DBBB4FDF678";
paths = (
{
closed = 1;
nodes = (
"179 -230 LINE",
"181 -220 LINE",
"156 -212 LINE SMOOTH",
"134 -206 OFFCURVE",
"125 -192 OFFCURVE",
"128 -170 CURVE SMOOTH",
"137 -118 OFFCURVE",
"149 -61 OFFCURVE",
"165 15 CURVE",
"171 33 LINE",
"264 489 LINE",
"254 497 LINE",
"69 443 LINE",
"67 432 LINE",
"86 424 LINE SMOOTH",
"110 413 OFFCURVE",
"119 395 OFFCURVE",
"114 369 CURVE SMOOTH",
"1 -170 LINE SMOOTH",
"-4 -195 OFFCURVE",
"-17 -208 OFFCURVE",
"-41 -215 CURVE",
"-60 -220 LINE",
"-62 -230 LINE"
);
},
{
closed = 1;
nodes = (
"356 -15 OFFCURVE",
"528 179 OFFCURVE",
"528 362 CURVE SMOOTH",
"528 463 OFFCURVE",
"482 496 OFFCURVE",
"427 496 CURVE SMOOTH",
"357 496 OFFCURVE",
"266 429 OFFCURVE",
"215 345 CURVE",
"220 333 LINE",
"260 388 OFFCURVE",
"305 422 OFFCURVE",
"340 422 CURVE SMOOTH",
"383 422 OFFCURVE",
"405 383 OFFCURVE",
"405 316 CURVE SMOOTH",
"405 234 OFFCURVE",
"380 137 OFFCURVE",
"352 90 CURVE SMOOTH",
"326 48 OFFCURVE",
"295 28 OFFCURVE",
"255 28 CURVE SMOOTH",
"214 28 OFFCURVE",
"169 62 OFFCURVE",
"141 114 CURVE",
"106 39 LINE",
"137 5 OFFCURVE",
"170 -15 OFFCURVE",
"211 -15 CURVE SMOOTH"
);
}
);
width = 523.41772;
}
);
rightKerningGroup = LAT_b;
unicode = 0070;
},
{
color = 4;
glyphname = thorn;
lastChange = "2019-06-06 17:07:10 +0000";
layers = (
{
anchors = (
{
name = aboveLC;
position = "{248, 723}";
},
{
name = belowLC;
position = "{337, -14}";
}
);
layerId = "7FECB189-581E-46CC-8EA5-5DBBB4FDF678";
paths = (
{
closed = 1;
nodes = (
"168 -230 LINE",
"170 -220 LINE",
"150 -214 LINE SMOOTH",
"128 -207 OFFCURVE",
"119 -192 OFFCURVE",
"123 -170 CURVE SMOOTH",
"134 -111 OFFCURVE",
"147 -44 OFFCURVE",
"159 17 CURVE",
"170 33 LINE",
"237 357 LINE",
"237 369 LINE",
"306 694 LINE",
"300 701 LINE",
"104 645 LINE",
"102 635 LINE",
"122 628 LINE SMOOTH",
"147 619 OFFCURVE",
"158 601 OFFCURVE",
"154 574 CURVE SMOOTH",
"147 529 OFFCURVE",
"136 477 OFFCURVE",
"123 417 CURVE SMOOTH",
"0 -170 LINE SMOOTH",
"-5 -195 OFFCURVE",
"-19 -209 OFFCURVE",
"-44 -216 CURVE SMOOTH",
"-60 -220 LINE",
"-62 -230 LINE"
);
},
{
closed = 1;
nodes = (
"356 -15 OFFCURVE",
"528 179 OFFCURVE",
"528 362 CURVE SMOOTH",
"528 463 OFFCURVE",
"482 496 OFFCURVE",
"427 496 CURVE SMOOTH",
"357 496 OFFCURVE",
"266 429 OFFCURVE",
"215 345 CURVE",
"220 333 LINE",
"260 388 OFFCURVE",
"305 422 OFFCURVE",
"340 422 CURVE SMOOTH",
"383 422 OFFCURVE",
"405 383 OFFCURVE",
"405 316 CURVE SMOOTH",
"405 234 OFFCURVE",
"380 137 OFFCURVE",
"352 90 CURVE SMOOTH",
"326 48 OFFCURVE",
"295 28 OFFCURVE",
"255 28 CURVE SMOOTH",
"214 28 OFFCURVE",
"169 62 OFFCURVE",
"141 114 CURVE",
"106 39 LINE",
"137 5 OFFCURVE",
"170 -15 OFFCURVE",
"211 -15 CURVE SMOOTH"
);
}
);
width = 523.41772;
}
);
widthMetricsKey = p;
rightKerningGroup = LAT_b;
rightMetricsKey = p;
unicode = 00FE;
},
{
color = 4;
glyphname = q;
lastChange = "2019-06-06 17:07:10 +0000";
layers = (
{
anchors = (
{
name = aboveLC;
position = "{390, 514}";
},
{
name = belowLC;
position = "{321, -245}";
}
);
layerId = "7FECB189-581E-46CC-8EA5-5DBBB4FDF678";
paths = (
{
closed = 1;
nodes = (
"454 -230 LINE",
"456 -220 LINE",
"431 -212 LINE SMOOTH",
"410 -206 OFFCURVE",
"401 -192 OFFCURVE",
"404 -171 CURVE SMOOTH",
"413 -122 OFFCURVE",
"422 -70 OFFCURVE",
"432 -21 CURVE SMOOTH",
"539 496 LINE",
"530 503 LINE",
"405 445 LINE",
"333 113 LINE",
"335 104 LINE",
"278 -166 LINE SMOOTH",
"273 -192 OFFCURVE",
"258 -207 OFFCURVE",
"233 -214 CURVE SMOOTH",
"208 -220 LINE",
"206 -230 LINE"
);
},
{
closed = 1;
nodes = (
"215 -14 OFFCURVE",
"309 54 OFFCURVE",
"369 142 CURVE",
"367 158 LINE",
"318 95 OFFCURVE",
"275 65 OFFCURVE",
"236 65 CURVE SMOOTH",
"197 65 OFFCURVE",
"172 95 OFFCURVE",
"172 167 CURVE SMOOTH",
"172 257 OFFCURVE",
"200 346 OFFCURVE",
"240 399 CURVE SMOOTH",
"264 430 OFFCURVE",
"299 456 OFFCURVE",
"338 456 CURVE SMOOTH",
"373 456 OFFCURVE",
"403 437 OFFCURVE",
"426 401 CURVE",
"478 446 LINE",
"448 480 OFFCURVE",
"419 496 OFFCURVE",
"380 496 CURVE SMOOTH",
"231 496 OFFCURVE",
"47 297 OFFCURVE",
"47 124 CURVE SMOOTH",
"47 21 OFFCURVE",
"94 -15 OFFCURVE",
"148 -15 CURVE SMOOTH"
);
}
);
width = 525.6519;
}
);
leftKerningGroup = LAT_a;
unicode = 0071;
},
{
color = 4;
glyphname = r;
lastChange = "2019-06-06 17:07:10 +0000";
layers = (
{
anchors = (
{
name = aboveLC;
position = "{296, 514}";
},
{
name = belowLC;
position = "{101, -22}";
}
);
layerId = "7FECB189-581E-46CC-8EA5-5DBBB4FDF678";
paths = (
{
closed = 1;
nodes = (
"166 0 LINE",
"179 72 OFFCURVE",
"192 142 OFFCURVE",
"207 213 CURVE SMOOTH",
"226 304 LINE",
"224 314 LINE",
"253 488 LINE",
"243 497 LINE",
"69 442 LINE",
"67 432 LINE",
"82 425 LINE SMOOTH",
"107 414 OFFCURVE",
"119 400 OFFCURVE",
"112 366 CURVE SMOOTH",
"36 0 LINE",
"46 -7 LINE"
);
},
{
closed = 1;
nodes = (
"247 331 OFFCURVE",
"287 403 OFFCURVE",
"352 436 CURVE",
"308 433 LINE",
"322 418 LINE SMOOTH",
"348 388 OFFCURVE",
"374 372 OFFCURVE",
"404 372 CURVE SMOOTH",
"441 372 OFFCURVE",
"465 398 OFFCURVE",
"465 436 CURVE SMOOTH",
"465 472 OFFCURVE",
"437 496 OFFCURVE",
"396 496 CURVE SMOOTH",
"325 496 OFFCURVE",
"250 394 OFFCURVE",
"208 281 CURVE",
"212 248 LINE"
);
}
);
width = 426.14557;
}
);
leftKerningGroup = LAT_m;
rightKerningGroup = LAT_r;
unicode = 0072;
},
{
color = 4;
glyphname = s;
lastChange = "2019-06-06 17:07:10 +0000";
layers = (
{
anchors = (
{
name = aboveLC;
position = "{282, 514}";
},
{
name = baseLC;
position = "{192, 0}";
},
{
name = belowLC;
position = "{159.005, -22}";
}
);
layerId = "7FECB189-581E-46CC-8EA5-5DBBB4FDF678";
paths = (
{
closed = 1;
nodes = (
"304 -15 OFFCURVE",
"378 53 OFFCURVE",
"378 135 CURVE SMOOTH",
"378 194 OFFCURVE",
"352 230 OFFCURVE",
"293 274 CURVE SMOOTH",
"235 316 OFFCURVE",
"207 353 OFFCURVE",
"207 401 CURVE SMOOTH",
"207 452 OFFCURVE",
"235 474 OFFCURVE",
"257 474 CURVE SMOOTH",
"257 474 OFFCURVE",
"257 474 OFFCURVE",
"257 474 CURVE SMOOTH",
"277 474 OFFCURVE",
"284 465 OFFCURVE",
"291 438 CURVE SMOOTH",
"301 410 LINE SMOOTH",
"313 370 OFFCURVE",
"336 352 OFFCURVE",
"366 352 CURVE SMOOTH",
"400 352 OFFCURVE",
"418 374 OFFCURVE",
"418 403 CURVE SMOOTH",
"418 457 OFFCURVE",
"365 496 OFFCURVE",
"278 496 CURVE SMOOTH",
"165 496 OFFCURVE",
"97 428 OFFCURVE",
"97 344 CURVE SMOOTH",
"97 280 OFFCURVE",
"133 238 OFFCURVE",
"188 195 CURVE",
"243 153 OFFCURVE",
"264 121 OFFCURVE",
"264 84 CURVE SMOOTH",
"264 34 OFFCURVE",
"234 5 OFFCURVE",
"201 5 CURVE SMOOTH",
"201 5 OFFCURVE",
"201 5 OFFCURVE",
"201 5 CURVE SMOOTH",
"172 5 OFFCURVE",
"165 24 OFFCURVE",
"159 52 CURVE SMOOTH",
"153 80 LINE SMOOTH",
"145 120 OFFCURVE",
"124 141 OFFCURVE",
"91 141 CURVE SMOOTH",
"55 141 OFFCURVE",
"30 113 OFFCURVE",
"30 81 CURVE SMOOTH",
"30 20 OFFCURVE",
"87 -15 OFFCURVE",
"171 -15 CURVE SMOOTH"
);
}
);
width = 406.86867;
}
);
leftKerningGroup = LAT_s;
rightKerningGroup = LAT_s;
unicode = 0073;
},
{
color = 4;
glyphname = germandbls;
lastChange = "2019-06-06 17:07:10 +0000";
layers = (
{
layerId = "7FECB189-581E-46CC-8EA5-5DBBB4FDF678";
paths = (
{
closed = 1;
nodes = (
"9 -240 OFFCURVE",
"58 -221 OFFCURVE",
"101 -177 CURVE SMOOTH",
"151 -127 OFFCURVE",
"179 -55 OFFCURVE",
"198 44 CURVE SMOOTH",
"225 183 OFFCURVE",
"245 335 OFFCURVE",
"269 490 CURVE SMOOTH",
"291 624 OFFCURVE",
"337 691 OFFCURVE",
"413 691 CURVE SMOOTH",
"452 691 OFFCURVE",
"478 660 OFFCURVE",
"478 610 CURVE SMOOTH",
"478 564 OFFCURVE",
"468 517 OFFCURVE",
"418 475 CURVE SMOOTH",
"357 425 OFFCURVE",
"309 388 OFFCURVE",
"309 330 CURVE SMOOTH",
"309 273 OFFCURVE",
"337 234 OFFCURVE",
"390 194 CURVE SMOOTH",
"444 155 OFFCURVE",
"461 125 OFFCURVE",
"461 81 CURVE SMOOTH",
"461 39 OFFCURVE",
"435 5 OFFCURVE",
"400 5 CURVE SMOOTH",
"379 5 OFFCURVE",
"369 14 OFFCURVE",
"363 41 CURVE SMOOTH",
"356 69 LINE SMOOTH",
"347 109 OFFCURVE",
"326 125 OFFCURVE",
"298 125 CURVE SMOOTH",
"270 125 OFFCURVE",
"245 105 OFFCURVE",
"245 71 CURVE SMOOTH",
"245 13 OFFCURVE",
"304 -15 OFFCURVE",
"386 -15 CURVE SMOOTH",
"492 -15 OFFCURVE",
"564 50 OFFCURVE",
"564 131 CURVE SMOOTH",
"564 195 OFFCURVE",
"542 232 OFFCURVE",
"485 277 CURVE SMOOTH",
"425 316 OFFCURVE",
"394 346 OFFCURVE",
"394 383 CURVE SMOOTH",
"394 419 OFFCURVE",
"414 441 OFFCURVE",
"456 471 CURVE SMOOTH",
"523 519 OFFCURVE",
"586 549 OFFCURVE",
"586 610 CURVE SMOOTH",
"586 667 OFFCURVE",
"522 711 OFFCURVE",
"416 711 CURVE SMOOTH",
"283 711 OFFCURVE",
"169 637 OFFCURVE",
"140 449 CURVE SMOOTH",
"119 310 OFFCURVE",
"101 177 OFFCURVE",
"79 45 CURVE SMOOTH",
"65 -34 OFFCURVE",
"51 -97 OFFCURVE",
"34 -143 CURVE SMOOTH",
"26 -169 OFFCURVE",
"16 -192 OFFCURVE",
"10 -205 CURVE SMOOTH",
"3 -216 OFFCURVE",
"-8 -214 OFFCURVE",
"-15 -203 CURVE SMOOTH",
"-26 -166 LINE SMOOTH",
"-44 -130 OFFCURVE",
"-69 -113 OFFCURVE",
"-101 -113 CURVE SMOOTH",
"-134 -113 OFFCURVE",
"-158 -136 OFFCURVE",
"-158 -170 CURVE SMOOTH",
"-158 -213 OFFCURVE",
"-114 -240 OFFCURVE",
"-42 -240 CURVE SMOOTH"
);
}
);
width = 566.4731;
}
);
leftKerningGroup = LAT_germandbls;
unicode = 00DF;
},
{
color = 4;
glyphname = t;
lastChange = "2019-06-06 17:07:10 +0000";
layers = (
{
anchors = (
{
name = aboveLC;
position = "{270, 636}";
},
{
name = baseLC;
position = "{143, 0}";
},
{
name = belowLC;
position = "{141, -22}";
}
);
layerId = "7FECB189-581E-46CC-8EA5-5DBBB4FDF678";
paths = (
{
closed = 1;
nodes = (
"213 -15 OFFCURVE",
"267 36 OFFCURVE",
"301 86 CURVE",
"289 96 LINE",
"257 65 OFFCURVE",
"237 50 OFFCURVE",
"219 50 CURVE SMOOTH",
"209 50 OFFCURVE",
"200 58 OFFCURVE",
"200 72 CURVE SMOOTH",
"200 84 OFFCURVE",
"203 102 OFFCURVE",
"208 127 CURVE SMOOTH",
"277 460 LINE",
"386 460 LINE",
"391 481 LINE",
"282 481 LINE",
"310 618 LINE",
"295 618 LINE",
"199 521 LINE SMOOTH",
"173 494 OFFCURVE",
"147 480 OFFCURVE",
"110 476 CURVE SMOOTH",
"74 472 LINE",
"71 460 LINE",
"154 460 LINE",
"85 144 LINE SMOOTH",
"78 108 OFFCURVE",
"72 76 OFFCURVE",
"72 50 CURVE SMOOTH",
"72 7 OFFCURVE",
"102 -15 OFFCURVE",
"144 -15 CURVE SMOOTH"
);
}
);
width = 341.9193;
}
);
leftKerningGroup = LAT_t;
rightKerningGroup = LAT_t;
unicode = 0074;
},
{
glyphname = tcaron;
lastChange = "2019-06-06 17:07:10 +0000";
layers = (
{
components = (
{
alignment = -1;
name = t;
}
);
layerId = "7FECB189-581E-46CC-8EA5-5DBBB4FDF678";
paths = (
{
closed = 1;
nodes = (
"432 756 OFFCURVE",
"419 754 OFFCURVE",
"401 745 CURVE",
"355 522 LINE",
"399 518 LINE",
"441 593 LINE SMOOTH",
"467 640 OFFCURVE",
"494 687 OFFCURVE",
"494 721 CURVE SMOOTH",
"494 738 OFFCURVE",
"483 756 OFFCURVE",
"450 756 CURVE SMOOTH"
);
}
);
width = 344.72785;
}
);
leftKerningGroup = LAT_t;
rightKerningGroup = LAT_dcaron;
unicode = 0165;
},
{
color = 4;
glyphname = u;
lastChange = "2019-06-06 17:07:10 +0000";
layers = (
{
anchors = (
{
name = aboveLC;
position = "{338, 514}";
},
{
name = belowLC;
position = "{267.005, -22}";
},
{
name = hornLC;
position = "{502, 468}";
},
{
name = ogonek;
position = "{447, 0}";
}
);
layerId = "7FECB189-581E-46CC-8EA5-5DBBB4FDF678";
paths = (
{
closed = 1;
nodes = (
"207 -15 OFFCURVE",
"287 44 OFFCURVE",
"369 139 CURVE",
"366 158 LINE",
"299 89 OFFCURVE",
"257 60 OFFCURVE",
"220 60 CURVE SMOOTH",
"199 60 OFFCURVE",
"184 71 OFFCURVE",
"184 101 CURVE SMOOTH",
"184 123 OFFCURVE",
"190 150 OFFCURVE",
"198 183 CURVE SMOOTH",
"268 489 LINE",
"259 497 LINE",
"70 443 LINE",
"69 432 LINE",
"88 424 LINE SMOOTH",
"112 412 OFFCURVE",
"121 394 OFFCURVE",
"115 367 CURVE SMOOTH",
"71 170 LINE SMOOTH",
"63 135 OFFCURVE",
"55 98 OFFCURVE",
"55 67 CURVE SMOOTH",
"55 12 OFFCURVE",
"93 -15 OFFCURVE",
"138 -15 CURVE SMOOTH"
);
},
{
closed = 1;
nodes = (
"466 -15 OFFCURVE",
"519 34 OFFCURVE",
"552 83 CURVE",
"540 95 LINE",
"509 64 OFFCURVE",
"490 49 OFFCURVE",
"471 49 CURVE SMOOTH",
"461 49 OFFCURVE",
"453 56 OFFCURVE",
"453 70 CURVE SMOOTH",
"453 83 OFFCURVE",
"456 103 OFFCURVE",
"461 125 CURVE SMOOTH",
"540 488 LINE",
"529 497 LINE",
"403 460 LINE",
"394 406 OFFCURVE",
"384 354 OFFCURVE",
"373 302 CURVE SMOOTH",
"339 141 LINE SMOOTH",
"332 110 OFFCURVE",
"329 91 OFFCURVE",
"329 68 CURVE SMOOTH",
"329 15 OFFCURVE",
"360 -15 OFFCURVE",
"401 -15 CURVE SMOOTH"
);
}
);
width = 554.60918;
}
);
leftKerningGroup = LAT_u;
rightKerningGroup = LAT_u;
unicode = 0075;
},
{
color = 4;
glyphname = v;
lastChange = "2019-06-06 17:07:10 +0000";
layers = (
{
anchors = (
{
name = aboveLC;
position = "{332, 509}";
},
{
name = belowLC;
position = "{215, -22}";
}
);
layerId = "7FECB189-581E-46CC-8EA5-5DBBB4FDF678";
paths = (
{
closed = 1;
nodes = (
"249 -2 LINE",
"351 102 OFFCURVE",
"435 214 OFFCURVE",
"487 301 CURVE SMOOTH",
"526 366 OFFCURVE",
"537 401 OFFCURVE",
"537 428 CURVE SMOOTH",
"537 467 OFFCURVE",
"520 499 OFFCURVE",
"473 499 CURVE SMOOTH",
"428 499 OFFCURVE",
"399 454 OFFCURVE",
"417 402 CURVE SMOOTH",
"434 355 LINE SMOOTH",
"448 317 OFFCURVE",
"447 287 OFFCURVE",
"424 252 CURVE SMOOTH",
"384 191 OFFCURVE",
"340 136 OFFCURVE",
"289 75 CURVE",
"281 199 OFFCURVE",
"272 308 OFFCURVE",
"264 403 CURVE SMOOTH",
"258 466 OFFCURVE",
"234 496 OFFCURVE",
"185 496 CURVE SMOOTH",
"140 496 OFFCURVE",
"97 463 OFFCURVE",
"51 399 CURVE",
"63 387 LINE",
"83 411 OFFCURVE",
"100 425 OFFCURVE",
"113 425 CURVE SMOOTH",
"125 425 OFFCURVE",
"135 420 OFFCURVE",
"138 389 CURVE SMOOTH",
"151 268 OFFCURVE",
"165 145 OFFCURVE",
"177 -1 CURVE",
"187 -9 LINE"
);
}
);
width = 512.38766;
}
);
leftKerningGroup = LAT_v;
rightKerningGroup = LAT_v;
unicode = 0076;
},
{
color = 4;
glyphname = w;
lastChange = "2019-06-06 17:07:10 +0000";
layers = (
{
anchors = (
{
name = aboveLC;
position = "{492, 514}";
},
{
name = belowLC;
position = "{356, -22}";
}
);
layerId = "7FECB189-581E-46CC-8EA5-5DBBB4FDF678";
paths = (
{
closed = 1;
nodes = (
"249 -2 LINE",
"308 92 OFFCURVE",
"370 210 OFFCURVE",
"419 314 CURVE",
"433 195 OFFCURVE",
"442 103 OFFCURVE",
"453 -1 CURVE",
"462 -9 LINE",
"521 -2 LINE",
"621 103 OFFCURVE",
"703 213 OFFCURVE",
"754 302 CURVE SMOOTH",
"790 366 OFFCURVE",
"802 395 OFFCURVE",
"802 426 CURVE SMOOTH",
"802 469 OFFCURVE",
"781 499 OFFCURVE",
"739 499 CURVE SMOOTH",
"695 499 OFFCURVE",
"664 453 OFFCURVE",
"684 398 CURVE SMOOTH",
"701 354 LINE SMOOTH",
"714 320 OFFCURVE",
"706 286 OFFCURVE",
"685 251 CURVE SMOOTH",
"648 189 OFFCURVE",
"614 146 OFFCURVE",
"567 86 CURVE",
"556 193 OFFCURVE",
"541 398 OFFCURVE",
"530 476 CURVE",
"469 476 LINE",
"405 346 OFFCURVE",
"344 222 OFFCURVE",
"283 110 CURVE",
"278 213 OFFCURVE",
"270 323 OFFCURVE",
"262 408 CURVE SMOOTH",
"258 469 OFFCURVE",
"234 496 OFFCURVE",
"184 496 CURVE SMOOTH",
"138 496 OFFCURVE",
"95 462 OFFCURVE",
"48 396 CURVE",
"60 384 LINE",
"78 403 OFFCURVE",
"96 415 OFFCURVE",
"110 415 CURVE SMOOTH",
"123 415 OFFCURVE",
"132 408 OFFCURVE",
"135 380 CURVE SMOOTH",
"149 264 OFFCURVE",
"163 143 OFFCURVE",
"177 -1 CURVE",
"186 -9 LINE"
);
}
);
width = 780.36234;
}
);
leftKerningGroup = LAT_v;
rightKerningGroup = LAT_v;
unicode = 0077;
},
{
color = 4;
glyphname = x;
lastChange = "2019-06-06 17:07:10 +0000";
layers = (
{
anchors = (
{
name = aboveLC;
position = "{370, 514}";
},
{
name = belowLC;
position = "{241, -22}";
}
);
layerId = "7FECB189-581E-46CC-8EA5-5DBBB4FDF678";
paths = (
{
closed = 1;
nodes = (
"450 -17 OFFCURVE",
"497 27 OFFCURVE",
"533 84 CURVE",
"521 95 LINE",
"497 71 OFFCURVE",
"478 57 OFFCURVE",
"458 57 CURVE SMOOTH",
"436 57 OFFCURVE",
"426 71 OFFCURVE",
"411 119 CURVE SMOOTH",
"316 405 LINE SMOOTH",
"295 467 OFFCURVE",
"275 496 OFFCURVE",
"223 496 CURVE SMOOTH",
"179 496 OFFCURVE",
"135 464 OFFCURVE",
"90 400 CURVE",
"102 387 LINE",
"122 413 OFFCURVE",
"142 419 OFFCURVE",
"156 419 CURVE SMOOTH",
"179 419 OFFCURVE",
"192 401 OFFCURVE",
"208 352 CURVE SMOOTH",
"303 63 LINE SMOOTH",
"323 2 OFFCURVE",
"353 -17 OFFCURVE",
"395 -17 CURVE SMOOTH"
);
},
{
closed = 1;
nodes = (
"125 -15 OFFCURVE",
"151 2 OFFCURVE",
"177 39 CURVE SMOOTH",
"212 87 OFFCURVE",
"258 153 OFFCURVE",
"312 243 CURVE",
"306 266 LINE",
"260 194 OFFCURVE",
"217 134 OFFCURVE",
"178 81 CURVE SMOOTH",
"157 52 OFFCURVE",
"140 53 OFFCURVE",
"121 79 CURVE SMOOTH",
"105 99 OFFCURVE",
"87 109 OFFCURVE",
"66 109 CURVE SMOOTH",
"33 109 OFFCURVE",
"9 86 OFFCURVE",
"9 51 CURVE SMOOTH",
"9 10 OFFCURVE",
"44 -15 OFFCURVE",
"83 -15 CURVE SMOOTH"
);
},
{
closed = 1;
nodes = (
"362 296 OFFCURVE",
"415 373 OFFCURVE",
"441 405 CURVE SMOOTH",
"462 430 OFFCURVE",
"472 425 OFFCURVE",
"488 405 CURVE SMOOTH",
"504 386 OFFCURVE",
"523 377 OFFCURVE",
"543 377 CURVE SMOOTH",
"572 377 OFFCURVE",
"598 400 OFFCURVE",
"598 437 CURVE SMOOTH",
"598 476 OFFCURVE",
"568 496 OFFCURVE",
"534 496 CURVE SMOOTH",
"500 496 OFFCURVE",
"468 482 OFFCURVE",
"431 436 CURVE SMOOTH",
"410 410 OFFCURVE",
"360 336 OFFCURVE",
"309 244 CURVE",
"313 226 LINE"
);
}
);
width = 564.74525;
}
);
unicode = 0078;
},
{
color = 4;
glyphname = y;
lastChange = "2019-06-06 17:07:10 +0000";
layers = (
{
anchors = (
{
name = aboveLC;
position = "{343, 509}";
},
{
name = belowLC;
position = "{35, -244}";
}
);
layerId = "7FECB189-581E-46CC-8EA5-5DBBB4FDF678";
paths = (
{
closed = 1;
nodes = (
"77 -230 OFFCURVE",
"132 -192 OFFCURVE",
"186 -135 CURVE SMOOTH",
"236 -83 OFFCURVE",
"267 -39 OFFCURVE",
"298 3 CURVE SMOOTH",
"354 81 OFFCURVE",
"393 148 OFFCURVE",
"431 207 CURVE SMOOTH",
"466 263 OFFCURVE",
"489 307 OFFCURVE",
"511 348 CURVE SMOOTH",
"534 390 OFFCURVE",
"547 415 OFFCURVE",
"547 448 CURVE SMOOTH",
"547 479 OFFCURVE",
"520 499 OFFCURVE",
"491 499 CURVE SMOOTH",
"447 499 OFFCURVE",
"425 472 OFFCURVE",
"402 379 CURVE SMOOTH",
"370 244 OFFCURVE",
"339 135 OFFCURVE",
"289 17 CURVE",
"259 -19 OFFCURVE",
"232 -53 OFFCURVE",
"196 -88 CURVE SMOOTH",
"178 -107 OFFCURVE",
"162 -122 OFFCURVE",
"144 -135 CURVE SMOOTH",
"115 -157 OFFCURVE",
"88 -149 OFFCURVE",
"60 -124 CURVE SMOOTH",
"41 -107 OFFCURVE",
"22 -100 OFFCURVE",
"1 -100 CURVE SMOOTH",
"-35 -100 OFFCURVE",
"-63 -127 OFFCURVE",
"-63 -161 CURVE SMOOTH",
"-63 -203 OFFCURVE",
"-28 -230 OFFCURVE",
"20 -230 CURVE SMOOTH"
);
},
{
closed = 1;
nodes = (
"298 17 LINE",
"287 150 OFFCURVE",
"275 261 OFFCURVE",
"261 391 CURVE SMOOTH",
"254 464 OFFCURVE",
"235 496 OFFCURVE",
"185 496 CURVE SMOOTH",
"138 496 OFFCURVE",
"90 460 OFFCURVE",
"43 387 CURVE",
"56 374 LINE",
"77 403 OFFCURVE",
"93 414 OFFCURVE",
"107 414 CURVE SMOOTH",
"123 414 OFFCURVE",
"131 405 OFFCURVE",
"141 329 CURVE SMOOTH",
"163 183 OFFCURVE",
"184 52 OFFCURVE",
"204 -98 CURVE"
);
}
);
width = 521.18354;
}
);
leftKerningGroup = LAT_y;
rightKerningGroup = LAT_v;
unicode = 0079;
},
{
color = 4;
glyphname = z;
lastChange = "2019-06-06 17:07:10 +0000";
layers = (
{
anchors = (
{
name = aboveLC;
position = "{314, 514}";
},
{
name = belowLC;
position = "{186, -22}";
}
);
layerId = "7FECB189-581E-46CC-8EA5-5DBBB4FDF678";
paths = (
{
closed = 1;
nodes = (
"504 470 LINE",
"480 494 LINE",
"9 4 LINE",
"31 -18 LINE"
);
},
{
closed = 1;
nodes = (
"408 -27 OFFCURVE",
"486 59 OFFCURVE",
"486 162 CURVE SMOOTH",
"486 209 OFFCURVE",
"461 232 OFFCURVE",
"428 232 CURVE SMOOTH",
"395 232 OFFCURVE",
"370 207 OFFCURVE",
"370 175 CURVE SMOOTH",
"370 159 OFFCURVE",
"378 134 OFFCURVE",
"419 106 CURVE SMOOTH",
"433 96 OFFCURVE",
"433 79 OFFCURVE",
"417 72 CURVE SMOOTH",
"403 66 OFFCURVE",
"384 64 OFFCURVE",
"362 64 CURVE SMOOTH",
"289 64 OFFCURVE",
"213 102 OFFCURVE",
"167 159 CURVE",
"102 92 LINE",
"147 44 LINE SMOOTH",
"183 5 OFFCURVE",
"243 -27 OFFCURVE",
"299 -27 CURVE SMOOTH"
);
},
{
closed = 1;
nodes = (
"93 343 LINE SMOOTH",
"110 372 OFFCURVE",
"134 384 OFFCURVE",
"167 378 CURVE SMOOTH",
"243 365 OFFCURVE",
"309 351 OFFCURVE",
"363 342 CURVE",
"444 438 LINE",
"349 451 OFFCURVE",
"218 476 OFFCURVE",
"104 497 CURVE",
"73 335 LINE",
"87 332 LINE"
);
}
);
width = 489.08544;
}
);
leftKerningGroup = LAT_z;
rightKerningGroup = LAT_z;
unicode = 007A;
},
{
color = 4;
export = 0;
glyphname = jdotless;
lastChange = "2019-06-06 17:07:10 +0000";
layers = (
{
anchors = (
{
name = aboveLC;
position = "{221, 514}";
}
);
layerId = "7FECB189-581E-46CC-8EA5-5DBBB4FDF678";
paths = (
{
closed = 1;
nodes = (
"8 -234 OFFCURVE",
"61 -206 OFFCURVE",
"99 -164 CURVE SMOOTH",
"146 -116 OFFCURVE",
"177 -47 OFFCURVE",
"197 54 CURVE SMOOTH",
"282 489 LINE",
"274 497 LINE",
"87 443 LINE",
"86 432 LINE",
"100 426 LINE SMOOTH",
"126 414 OFFCURVE",
"138 394 OFFCURVE",
"132 365 CURVE SMOOTH",
"73 50 LINE SMOOTH",
"53 -60 OFFCURVE",
"35 -125 OFFCURVE",
"12 -165 CURVE SMOOTH",
"-6 -199 OFFCURVE",
"-31 -211 OFFCURVE",
"-63 -224 CURVE",
"-60 -239 LINE"
);
}
);
width = 284.2769;
}
);
leftKerningGroup = LAT_j;
rightKerningGroup = LAT_j;
unicode = 0237;
},
{
color = 0;
export = 0;
glyphname = longs;
lastChange = "2019-06-06 17:07:10 +0000";
layers = (
{
layerId = "7FECB189-581E-46CC-8EA5-5DBBB4FDF678";
paths = (
{
closed = 1;
nodes = (
"333 739 OFFCURVE",
"293 724 OFFCURVE",
"256 697 CURVE SMOOTH",
"198 653 OFFCURVE",
"158 580 OFFCURVE",
"140 459 CURVE SMOOTH",
"118 318 OFFCURVE",
"101 181 OFFCURVE",
"79 45 CURVE SMOOTH",
"65 -34 OFFCURVE",
"53 -91 OFFCURVE",
"33 -136 CURVE SMOOTH",
"18 -170 OFFCURVE",
"1 -190 OFFCURVE",
"-16 -207 CURVE",
"10 -205 LINE",
"-20 -164 LINE SMOOTH",
"-43 -134 OFFCURVE",
"-68 -113 OFFCURVE",
"-101 -113 CURVE SMOOTH",
"-133 -113 OFFCURVE",
"-153 -135 OFFCURVE",
"-158 -167 CURVE",
"-138 -219 OFFCURVE",
"-89 -240 OFFCURVE",
"-33 -240 CURVE SMOOTH",
"9 -240 OFFCURVE",
"60 -219 OFFCURVE",
"101 -177 CURVE SMOOTH",
"151 -127 OFFCURVE",
"179 -55 OFFCURVE",
"198 44 CURVE SMOOTH",
"225 187 OFFCURVE",
"245 346 OFFCURVE",
"269 500 CURVE SMOOTH",
"291 636 OFFCURVE",
"310 676 OFFCURVE",
"342 699 CURVE SMOOTH",
"359 711 OFFCURVE",
"373 716 OFFCURVE",
"389 721 CURVE",
"338 714 LINE",
"369 663 LINE SMOOTH",
"393 629 OFFCURVE",
"415 610 OFFCURVE",
"446 610 CURVE SMOOTH",
"473 610 OFFCURVE",
"502 632 OFFCURVE",
"507 664 CURVE",
"496 707 OFFCURVE",
"441 739 OFFCURVE",
"380 739 CURVE SMOOTH"
);
}
);
width = 326.14082;
}
);
leftKerningGroup = LAT_germandbls;
rightKerningGroup = LAT_f;
unicode = 017F;
},
{
color = 4;
glyphname = f_f;
lastChange = "2019-06-06 17:07:10 +0000";
layers = (
{
anchors = (
{
name = caret_1;
position = "{309, 0}";
}
);
layerId = "7FECB189-581E-46CC-8EA5-5DBBB4FDF678";
paths = (
{
closed = 1;
nodes = (
"10 -240 OFFCURVE",
"63 -219 OFFCURVE",
"104 -177 CURVE SMOOTH",
"154 -127 OFFCURVE",
"182 -55 OFFCURVE",
"201 44 CURVE SMOOTH",
"225 175 OFFCURVE",
"245 320 OFFCURVE",
"266 461 CURVE",
"428 460 LINE",
"406 308 OFFCURVE",
"387 174 OFFCURVE",
"366 45 CURVE SMOOTH",
"353 -34 OFFCURVE",
"339 -100 OFFCURVE",
"322 -145 CURVE SMOOTH",
"315 -166 OFFCURVE",
"308 -183 OFFCURVE",
"301 -198 CURVE SMOOTH",
"294 -209 OFFCURVE",
"282 -207 OFFCURVE",
"276 -196 CURVE SMOOTH",
"264 -167 LINE SMOOTH",
"244 -128 OFFCURVE",
"218 -113 OFFCURVE",
"187 -113 CURVE SMOOTH",
"156 -113 OFFCURVE",
"130 -133 OFFCURVE",
"130 -167 CURVE SMOOTH",
"130 -214 OFFCURVE",
"184 -240 OFFCURVE",
"240 -240 CURVE SMOOTH",
"295 -240 OFFCURVE",
"348 -219 OFFCURVE",
"389 -177 CURVE SMOOTH",
"439 -127 OFFCURVE",
"467 -55 OFFCURVE",
"486 44 CURVE SMOOTH",
"510 175 OFFCURVE",
"530 320 OFFCURVE",
"551 461 CURVE",
"671 460 LINE",
"675 481 LINE",
"554 481 LINE",
"570 575 OFFCURVE",
"587 633 OFFCURVE",
"614 667 CURVE",
"624 680 OFFCURVE",
"639 677 OFFCURVE",
"647 662 CURVE SMOOTH",
"655 639 LINE SMOOTH",
"676 598 OFFCURVE",
"702 576 OFFCURVE",
"732 576 CURVE SMOOTH",
"764 576 OFFCURVE",
"790 599 OFFCURVE",
"790 635 CURVE SMOOTH",
"790 679 OFFCURVE",
"745 711 OFFCURVE",
"679 711 CURVE SMOOTH",
"562 711 OFFCURVE",
"482 645 OFFCURVE",
"444 529 CURVE SMOOTH",
"434 497 OFFCURVE",
"416 481 OFFCURVE",
"383 481 CURVE SMOOTH",
"269 481 LINE",
"285 576 OFFCURVE",
"302 634 OFFCURVE",
"329 667 CURVE SMOOTH",
"339 681 OFFCURVE",
"353 676 OFFCURVE",
"361 662 CURVE SMOOTH",
"370 639 LINE SMOOTH",
"388 603 OFFCURVE",
"412 583 OFFCURVE",
"439 583 CURVE SMOOTH",
"472 583 OFFCURVE",
"498 606 OFFCURVE",
"498 642 CURVE SMOOTH",
"498 682 OFFCURVE",
"455 711 OFFCURVE",
"394 711 CURVE SMOOTH",
"285 711 OFFCURVE",
"200 653 OFFCURVE",
"158 527 CURVE SMOOTH",
"149 496 OFFCURVE",
"132 480 OFFCURVE",
"101 476 CURVE SMOOTH",
"64 472 LINE",
"62 463 LINE",
"143 463 LINE",
"121 311 OFFCURVE",
"102 175 OFFCURVE",
"81 45 CURVE SMOOTH",
"68 -34 OFFCURVE",
"55 -100 OFFCURVE",
"37 -145 CURVE SMOOTH",
"30 -166 OFFCURVE",
"23 -183 OFFCURVE",
"16 -198 CURVE SMOOTH",
"9 -209 OFFCURVE",
"-2 -207 OFFCURVE",
"-9 -196 CURVE SMOOTH",
"-21 -167 LINE SMOOTH",
"-41 -128 OFFCURVE",
"-67 -113 OFFCURVE",
"-98 -113 CURVE SMOOTH",
"-129 -113 OFFCURVE",
"-155 -133 OFFCURVE",
"-155 -167 CURVE SMOOTH",
"-155 -214 OFFCURVE",
"-101 -240 OFFCURVE",
"-45 -240 CURVE SMOOTH"
);
}
);
width = 617.22627;
}
);
leftKerningGroup = LAT_f;
leftMetricsKey = f;
rightKerningGroup = LAT_f;
rightMetricsKey = f;
unicode = FB00;
},
{
color = 4;
glyphname = f_i;
lastChange = "2019-06-06 17:07:10 +0000";
layers = (
{
anchors = (
{
name = bottom_1;
position = "{97, 0}";
},
{
name = bottom_2;
position = "{391, 0}";
},
{
name = caret_1;
position = "{295, 0}";
},
{
name = top_1;
position = "{249, 719}";
},
{
name = top_2;
position = "{544, 719}";
}
);
layerId = "7FECB189-581E-46CC-8EA5-5DBBB4FDF678";
paths = (
{
closed = 1;
nodes = (
"5 -240 OFFCURVE",
"63 -219 OFFCURVE",
"104 -177 CURVE SMOOTH",
"154 -127 OFFCURVE",
"182 -55 OFFCURVE",
"201 44 CURVE SMOOTH",
"225 170 OFFCURVE",
"246 323 OFFCURVE",
"266 461 CURVE",
"437 459 LINE",
"371 141 LINE SMOOTH",
"364 108 OFFCURVE",
"357 72 OFFCURVE",
"357 48 CURVE SMOOTH",
"357 7 OFFCURVE",
"387 -15 OFFCURVE",
"429 -15 CURVE SMOOTH",
"506 -15 OFFCURVE",
"562 42 OFFCURVE",
"599 99 CURVE",
"588 107 LINE",
"552 68 OFFCURVE",
"530 49 OFFCURVE",
"506 49 CURVE SMOOTH",
"493 49 OFFCURVE",
"485 58 OFFCURVE",
"485 71 CURVE SMOOTH",
"485 84 OFFCURVE",
"488 98 OFFCURVE",
"492 117 CURVE SMOOTH",
"571 488 LINE",
"560 497 LINE",
"531 491 LINE SMOOTH",
"501 484 OFFCURVE",
"477 481 OFFCURVE",
"447 481 CURVE SMOOTH",
"269 481 LINE",
"289 598 OFFCURVE",
"340 689 OFFCURVE",
"413 689 CURVE SMOOTH",
"435 689 OFFCURVE",
"446 679 OFFCURVE",
"458 655 CURVE SMOOTH",
"464 639 LINE SMOOTH",
"486 598 OFFCURVE",
"511 579 OFFCURVE",
"542 579 CURVE SMOOTH",
"574 579 OFFCURVE",
"599 597 OFFCURVE",
"599 633 CURVE SMOOTH",
"599 679 OFFCURVE",
"544 711 OFFCURVE",
"463 711 CURVE SMOOTH",
"310 711 OFFCURVE",
"210 645 OFFCURVE",
"162 527 CURVE SMOOTH",
"149 496 OFFCURVE",
"131 480 OFFCURVE",
"98 476 CURVE SMOOTH",
"64 472 LINE",
"62 463 LINE",
"143 463 LINE",
"122 316 OFFCURVE",
"102 170 OFFCURVE",
"81 45 CURVE SMOOTH",
"69 -34 OFFCURVE",
"55 -100 OFFCURVE",
"37 -145 CURVE SMOOTH",
"29 -170 OFFCURVE",
"23 -184 OFFCURVE",
"16 -197 CURVE SMOOTH",
"9 -208 OFFCURVE",
"-2 -206 OFFCURVE",
"-8 -195 CURVE SMOOTH",
"-21 -166 LINE SMOOTH",
"-39 -130 OFFCURVE",
"-66 -113 OFFCURVE",
"-98 -113 CURVE SMOOTH",
"-132 -113 OFFCURVE",
"-155 -136 OFFCURVE",
"-155 -167 CURVE SMOOTH",
"-155 -216 OFFCURVE",
"-98 -240 OFFCURVE",
"-45 -240 CURVE SMOOTH"
);
}
);
width = 589.62184;
}
);
leftKerningGroup = LAT_f;
leftMetricsKey = f;
rightKerningGroup = LAT_i;
rightMetricsKey = idotless;
unicode = FB01;
},
{
color = 4;
glyphname = f_j;
lastChange = "2019-06-06 17:07:10 +0000";
layers = (
{
anchors = (
{
name = bottom_1;
position = "{97, 0}";
},
{
name = bottom_2;
position = "{391, 0}";
},
{
name = caret_1;
position = "{295, 0}";
},
{
name = top_1;
position = "{249, 719}";
},
{
name = top_2;
position = "{544, 719}";
}
);
layerId = "7FECB189-581E-46CC-8EA5-5DBBB4FDF678";
paths = (
{
closed = 1;
nodes = (
"5 -240 OFFCURVE",
"63 -219 OFFCURVE",
"104 -177 CURVE SMOOTH",
"154 -127 OFFCURVE",
"182 -55 OFFCURVE",
"201 44 CURVE SMOOTH",
"225 170 OFFCURVE",
"246 323 OFFCURVE",
"266 461 CURVE",
"437 459 LINE",
"362 50 LINE SMOOTH",
"342 -60 OFFCURVE",
"324 -125 OFFCURVE",
"301 -165 CURVE SMOOTH",
"283 -199 OFFCURVE",
"257 -211 OFFCURVE",
"226 -224 CURVE",
"229 -239 LINE",
"297 -234 OFFCURVE",
"350 -206 OFFCURVE",
"388 -164 CURVE SMOOTH",
"435 -116 OFFCURVE",
"466 -47 OFFCURVE",
"486 54 CURVE SMOOTH",
"571 488 LINE",
"560 497 LINE",
"531 491 LINE SMOOTH",
"501 484 OFFCURVE",
"477 481 OFFCURVE",
"447 481 CURVE SMOOTH",
"269 481 LINE",
"289 598 OFFCURVE",
"340 689 OFFCURVE",
"413 689 CURVE SMOOTH",
"435 689 OFFCURVE",
"446 679 OFFCURVE",
"458 655 CURVE SMOOTH",
"464 639 LINE SMOOTH",
"486 598 OFFCURVE",
"511 579 OFFCURVE",
"542 579 CURVE SMOOTH",
"574 579 OFFCURVE",
"599 597 OFFCURVE",
"599 633 CURVE SMOOTH",
"599 679 OFFCURVE",
"544 711 OFFCURVE",
"463 711 CURVE SMOOTH",
"310 711 OFFCURVE",
"210 645 OFFCURVE",
"162 527 CURVE SMOOTH",
"149 496 OFFCURVE",
"131 480 OFFCURVE",
"98 476 CURVE SMOOTH",
"64 472 LINE",
"62 463 LINE",
"143 463 LINE",
"122 316 OFFCURVE",
"102 170 OFFCURVE",
"81 45 CURVE SMOOTH",
"69 -34 OFFCURVE",
"55 -100 OFFCURVE",
"37 -145 CURVE SMOOTH",
"29 -170 OFFCURVE",
"23 -184 OFFCURVE",
"16 -197 CURVE SMOOTH",
"9 -208 OFFCURVE",
"-2 -206 OFFCURVE",
"-8 -195 CURVE",
"-21 -166 LINE SMOOTH",
"-39 -130 OFFCURVE",
"-66 -113 OFFCURVE",
"-98 -113 CURVE SMOOTH",
"-132 -113 OFFCURVE",
"-155 -136 OFFCURVE",
"-155 -167 CURVE SMOOTH",
"-155 -216 OFFCURVE",
"-98 -240 OFFCURVE",
"-45 -240 CURVE SMOOTH"
);
}
);
width = 589.62184;
}
);
leftKerningGroup = LAT_f;
rightKerningGroup = LAT_j;
},
{
color = 8;
export = 0;
glyphname = f_f_b;
lastChange = "2019-06-06 17:07:10 +0000";
layers = (
{
anchors = (
{
name = bottom_1;
position = "{135, 0}";
},
{
name = bottom_2;
position = "{506.005, 0}";
},
{
name = bottom_3;
position = "{877, 0}";
},
{
name = caret_1;
position = "{371, 0}";
},
{
name = caret_2;
position = "{742, 0}";
},
{
name = top_1;
position = "{288, 719}";
},
{
name = top_2;
position = "{659, 719}";
},
{
name = top_3;
position = "{1030, 719}";
}
);
components = (
{
alignment = -1;
name = f_b;
transform = "{1, 0, 0, 1, 285, 0}";
}
);
layerId = "7FECB189-581E-46CC-8EA5-5DBBB4FDF678";
paths = (
{
closed = 1;
nodes = (
"10 -240 OFFCURVE",
"63 -219 OFFCURVE",
"104 -177 CURVE SMOOTH",
"154 -127 OFFCURVE",
"182 -55 OFFCURVE",
"201 44 CURVE SMOOTH",
"225 175 OFFCURVE",
"245 320 OFFCURVE",
"266 461 CURVE",
"469 460 LINE",
"474 481 LINE",
"269 481 LINE",
"291 612 OFFCURVE",
"310 662 OFFCURVE",
"348 688 CURVE",
"348 688 OFFCURVE",
"348 688 OFFCURVE",
"348 688 CURVE",
"370 639 LINE SMOOTH",
"388 603 OFFCURVE",
"412 583 OFFCURVE",
"439 583 CURVE SMOOTH",
"472 583 OFFCURVE",
"498 606 OFFCURVE",
"498 642 CURVE SMOOTH",
"498 682 OFFCURVE",
"455 711 OFFCURVE",
"394 711 CURVE SMOOTH",
"263 711 OFFCURVE",
"177 628 OFFCURVE",
"146 481 CURVE",
"146 481 OFFCURVE",
"146 481 OFFCURVE",
"146 481 CURVE",
"64 472 LINE",
"62 463 LINE",
"143 463 LINE",
"121 311 OFFCURVE",
"102 175 OFFCURVE",
"81 45 CURVE SMOOTH",
"68 -34 OFFCURVE",
"55 -100 OFFCURVE",
"37 -145 CURVE SMOOTH",
"24 -183 OFFCURVE",
"16 -197 OFFCURVE",
"2 -215 CURVE",
"2 -215 OFFCURVE",
"2 -215 OFFCURVE",
"2 -215 CURVE",
"-21 -167 LINE SMOOTH",
"-41 -128 OFFCURVE",
"-67 -113 OFFCURVE",
"-98 -113 CURVE SMOOTH",
"-129 -113 OFFCURVE",
"-155 -133 OFFCURVE",
"-155 -167 CURVE SMOOTH",
"-155 -214 OFFCURVE",
"-101 -240 OFFCURVE",
"-45 -240 CURVE SMOOTH"
);
}
);
width = 1113.69462;
}
);
leftKerningGroup = LAT_f;
rightKerningGroup = LAT_b;
},
{
color = 0;
export = 0;
glyphname = f_f_f;
lastChange = "2019-06-06 17:07:10 +0000";
layers = (
{
components = (
{
alignment = -1;
name = f_f;
transform = "{1, 0, 0, 1, 285, 0}";
}
);
layerId = "7FECB189-581E-46CC-8EA5-5DBBB4FDF678";
paths = (
{
closed = 1;
nodes = (
"10 -240 OFFCURVE",
"63 -219 OFFCURVE",
"104 -177 CURVE SMOOTH",
"154 -127 OFFCURVE",
"182 -55 OFFCURVE",
"201 44 CURVE SMOOTH",
"225 175 OFFCURVE",
"245 320 OFFCURVE",
"266 461 CURVE",
"469 460 LINE",
"474 481 LINE",
"269 481 LINE",
"291 612 OFFCURVE",
"310 662 OFFCURVE",
"348 688 CURVE",
"348 688 OFFCURVE",
"348 688 OFFCURVE",
"348 688 CURVE",
"370 639 LINE SMOOTH",
"388 603 OFFCURVE",
"412 583 OFFCURVE",
"439 583 CURVE SMOOTH",
"472 583 OFFCURVE",
"498 606 OFFCURVE",
"498 642 CURVE SMOOTH",
"498 682 OFFCURVE",
"455 711 OFFCURVE",
"394 711 CURVE SMOOTH",
"263 711 OFFCURVE",
"177 628 OFFCURVE",
"146 481 CURVE",
"146 481 OFFCURVE",
"146 481 OFFCURVE",
"146 481 CURVE",
"64 472 LINE",
"62 463 LINE",
"143 463 LINE",
"121 311 OFFCURVE",
"102 175 OFFCURVE",
"81 45 CURVE SMOOTH",
"68 -34 OFFCURVE",
"55 -100 OFFCURVE",
"37 -145 CURVE SMOOTH",
"24 -183 OFFCURVE",
"16 -197 OFFCURVE",
"2 -215 CURVE",
"2 -215 OFFCURVE",
"2 -215 OFFCURVE",
"2 -215 CURVE",
"-21 -167 LINE SMOOTH",
"-41 -128 OFFCURVE",
"-67 -113 OFFCURVE",
"-98 -113 CURVE SMOOTH",
"-129 -113 OFFCURVE",
"-155 -133 OFFCURVE",
"-155 -167 CURVE SMOOTH",
"-155 -214 OFFCURVE",
"-101 -240 OFFCURVE",
"-45 -240 CURVE SMOOTH"
);
}
);
width = 902.00949;
}
);
leftKerningGroup = LAT_f;
rightKerningGroup = LAT_f;
},
{
color = 8;
export = 0;
glyphname = f_f_h;
lastChange = "2019-06-06 17:07:10 +0000";
layers = (
{
components = (
{
alignment = -1;
name = f_h;
transform = "{1, 0, 0, 1, 285, 0}";
}
);
layerId = "7FECB189-581E-46CC-8EA5-5DBBB4FDF678";
paths = (
{
closed = 1;
nodes = (
"10 -240 OFFCURVE",
"63 -219 OFFCURVE",
"104 -177 CURVE SMOOTH",
"154 -127 OFFCURVE",
"182 -55 OFFCURVE",
"201 44 CURVE SMOOTH",
"225 175 OFFCURVE",
"245 320 OFFCURVE",
"266 461 CURVE",
"469 460 LINE",
"474 481 LINE",
"269 481 LINE",
"291 612 OFFCURVE",
"310 662 OFFCURVE",
"348 688 CURVE",
"348 688 OFFCURVE",
"348 688 OFFCURVE",
"348 688 CURVE",
"370 639 LINE SMOOTH",
"388 603 OFFCURVE",
"412 583 OFFCURVE",
"439 583 CURVE SMOOTH",
"472 583 OFFCURVE",
"498 606 OFFCURVE",
"498 642 CURVE SMOOTH",
"498 682 OFFCURVE",
"455 711 OFFCURVE",
"394 711 CURVE SMOOTH",
"263 711 OFFCURVE",
"177 628 OFFCURVE",
"146 481 CURVE",
"146 481 OFFCURVE",
"146 481 OFFCURVE",
"146 481 CURVE",
"64 472 LINE",
"62 463 LINE",
"143 463 LINE",
"121 311 OFFCURVE",
"102 175 OFFCURVE",
"81 45 CURVE SMOOTH",
"68 -34 OFFCURVE",
"55 -100 OFFCURVE",
"37 -145 CURVE SMOOTH",
"24 -183 OFFCURVE",
"16 -197 OFFCURVE",
"2 -215 CURVE",
"2 -215 OFFCURVE",
"2 -215 OFFCURVE",
"2 -215 CURVE",
"-21 -167 LINE SMOOTH",
"-41 -128 OFFCURVE",
"-67 -113 OFFCURVE",
"-98 -113 CURVE SMOOTH",
"-129 -113 OFFCURVE",
"-155 -133 OFFCURVE",
"-155 -167 CURVE SMOOTH",
"-155 -214 OFFCURVE",
"-101 -240 OFFCURVE",
"-45 -240 CURVE SMOOTH"
);
}
);
width = 1160.8307;
}
);
leftKerningGroup = LAT_f;
rightKerningGroup = LAT_h;
},
{
color = 8;
export = 0;
glyphname = f_f_i;
lastChange = "2019-06-06 17:07:10 +0000";
layers = (
{
components = (
{
alignment = -1;
name = f_i;
transform = "{1, 0, 0, 1, 285, 0}";
}
);
layerId = "7FECB189-581E-46CC-8EA5-5DBBB4FDF678";
paths = (
{
closed = 1;
nodes = (
"10 -240 OFFCURVE",
"63 -219 OFFCURVE",
"104 -177 CURVE SMOOTH",
"154 -127 OFFCURVE",
"182 -55 OFFCURVE",
"201 44 CURVE SMOOTH",
"225 175 OFFCURVE",
"245 320 OFFCURVE",
"266 461 CURVE",
"469 460 LINE",
"474 481 LINE",
"269 481 LINE",
"291 612 OFFCURVE",
"310 662 OFFCURVE",
"348 688 CURVE",
"348 688 OFFCURVE",
"348 688 OFFCURVE",
"348 688 CURVE",
"370 639 LINE SMOOTH",
"388 603 OFFCURVE",
"412 583 OFFCURVE",
"439 583 CURVE SMOOTH",
"472 583 OFFCURVE",
"498 606 OFFCURVE",
"498 642 CURVE SMOOTH",
"498 682 OFFCURVE",
"455 711 OFFCURVE",
"394 711 CURVE SMOOTH",
"263 711 OFFCURVE",
"177 628 OFFCURVE",
"146 481 CURVE",
"146 481 OFFCURVE",
"146 481 OFFCURVE",
"146 481 CURVE",
"64 472 LINE",
"62 463 LINE",
"143 463 LINE",
"121 311 OFFCURVE",
"102 175 OFFCURVE",
"81 45 CURVE SMOOTH",
"68 -34 OFFCURVE",
"55 -100 OFFCURVE",
"37 -145 CURVE SMOOTH",
"24 -183 OFFCURVE",
"16 -197 OFFCURVE",
"2 -215 CURVE",
"2 -215 OFFCURVE",
"2 -215 OFFCURVE",
"2 -215 CURVE",
"-21 -167 LINE SMOOTH",
"-41 -128 OFFCURVE",
"-67 -113 OFFCURVE",
"-98 -113 CURVE SMOOTH",
"-129 -113 OFFCURVE",
"-155 -133 OFFCURVE",
"-155 -167 CURVE SMOOTH",
"-155 -214 OFFCURVE",
"-101 -240 OFFCURVE",
"-45 -240 CURVE SMOOTH"
);
}
);
width = 886.48576;
}
);
leftKerningGroup = LAT_f;
rightKerningGroup = LAT_i;
unicode = FB03;
},
{
color = 8;
export = 0;
glyphname = f_f_j;
lastChange = "2019-06-06 17:07:10 +0000";
layers = (
{
components = (
{
alignment = -1;
name = f_j;
transform = "{1, 0, 0, 1, 285, 0}";
}
);
layerId = "7FECB189-581E-46CC-8EA5-5DBBB4FDF678";
paths = (
{
closed = 1;
nodes = (
"266 739 OFFCURVE",
"170 638 OFFCURVE",
"143 459 CURVE SMOOTH",
"120 318 OFFCURVE",
"103 181 OFFCURVE",
"81 45 CURVE SMOOTH",
"68 -34 OFFCURVE",
"56 -91 OFFCURVE",
"36 -136 CURVE SMOOTH",
"20 -170 OFFCURVE",
"4 -190 OFFCURVE",
"-13 -207 CURVE",
"12 -205 LINE",
"-17 -164 LINE SMOOTH",
"-40 -134 OFFCURVE",
"-65 -113 OFFCURVE",
"-98 -113 CURVE SMOOTH",
"-130 -113 OFFCURVE",
"-150 -135 OFFCURVE",
"-155 -167 CURVE",
"-135 -219 OFFCURVE",
"-87 -240 OFFCURVE",
"-30 -240 CURVE SMOOTH",
"12 -240 OFFCURVE",
"63 -219 OFFCURVE",
"104 -177 CURVE SMOOTH",
"154 -127 OFFCURVE",
"182 -55 OFFCURVE",
"201 44 CURVE SMOOTH",
"227 187 OFFCURVE",
"248 346 OFFCURVE",
"272 500 CURVE SMOOTH",
"297 657 OFFCURVE",
"343 698 OFFCURVE",
"400 721 CURVE",
"348 714 LINE",
"377 668 LINE SMOOTH",
"400 634 OFFCURVE",
"422 618 OFFCURVE",
"456 618 CURVE SMOOTH",
"479 618 OFFCURVE",
"500 638 OFFCURVE",
"505 667 CURVE",
"494 707 OFFCURVE",
"450 739 OFFCURVE",
"390 739 CURVE SMOOTH"
);
},
{
closed = 1;
nodes = (
"175 427 LINE",
"475 427 LINE",
"486 481 LINE",
"183 481 LINE",
"183 486 LINE",
"64 472 LINE",
"55 427 LINE"
);
}
);
width = 854.52848;
}
);
leftKerningGroup = LAT_f;
rightKerningGroup = LAT_j;
},
{
color = 8;
export = 0;
glyphname = f_f_k;
lastChange = "2019-06-06 17:07:10 +0000";
layers = (
{
components = (
{
alignment = -1;
name = f_k;
transform = "{1, 0, 0, 1, 285, 0}";
}
);
layerId = "7FECB189-581E-46CC-8EA5-5DBBB4FDF678";
paths = (
{
closed = 1;
nodes = (
"10 -240 OFFCURVE",
"63 -219 OFFCURVE",
"104 -177 CURVE SMOOTH",
"154 -127 OFFCURVE",
"182 -55 OFFCURVE",
"201 44 CURVE SMOOTH",
"225 175 OFFCURVE",
"245 320 OFFCURVE",
"266 461 CURVE",
"469 460 LINE",
"474 481 LINE",
"269 481 LINE",
"291 612 OFFCURVE",
"310 662 OFFCURVE",
"348 688 CURVE",
"348 688 OFFCURVE",
"348 688 OFFCURVE",
"348 688 CURVE",
"370 639 LINE SMOOTH",
"388 603 OFFCURVE",
"412 583 OFFCURVE",
"439 583 CURVE SMOOTH",
"472 583 OFFCURVE",
"498 606 OFFCURVE",
"498 642 CURVE SMOOTH",
"498 682 OFFCURVE",
"455 711 OFFCURVE",
"394 711 CURVE SMOOTH",
"263 711 OFFCURVE",
"177 628 OFFCURVE",
"146 481 CURVE",
"146 481 OFFCURVE",
"146 481 OFFCURVE",
"146 481 CURVE",
"64 472 LINE",
"62 463 LINE",
"143 463 LINE",
"121 311 OFFCURVE",
"102 175 OFFCURVE",
"81 45 CURVE SMOOTH",
"68 -34 OFFCURVE",
"55 -100 OFFCURVE",
"37 -145 CURVE SMOOTH",
"24 -183 OFFCURVE",
"16 -197 OFFCURVE",
"2 -215 CURVE",
"2 -215 OFFCURVE",
"2 -215 OFFCURVE",
"2 -215 CURVE",
"-21 -167 LINE SMOOTH",
"-41 -128 OFFCURVE",
"-67 -113 OFFCURVE",
"-98 -113 CURVE SMOOTH",
"-129 -113 OFFCURVE",
"-155 -133 OFFCURVE",
"-155 -167 CURVE SMOOTH",
"-155 -214 OFFCURVE",
"-101 -240 OFFCURVE",
"-45 -240 CURVE SMOOTH"
);
}
);
width = 1104.75;
}
);
leftKerningGroup = LAT_f;
rightKerningGroup = LAT_k;
},
{
color = 8;
export = 0;
glyphname = f_f_l;
lastChange = "2019-06-06 17:07:10 +0000";
layers = (
{
components = (
{
alignment = -1;
name = f_l;
transform = "{1, 0, 0, 1, 285, 0}";
}
);
layerId = "7FECB189-581E-46CC-8EA5-5DBBB4FDF678";
paths = (
{
closed = 1;
nodes = (
"10 -240 OFFCURVE",
"63 -219 OFFCURVE",
"104 -177 CURVE SMOOTH",
"154 -127 OFFCURVE",
"182 -55 OFFCURVE",
"201 44 CURVE SMOOTH",
"225 175 OFFCURVE",
"245 320 OFFCURVE",
"266 461 CURVE",
"469 460 LINE",
"474 481 LINE",
"269 481 LINE",
"291 612 OFFCURVE",
"310 662 OFFCURVE",
"348 688 CURVE",
"348 688 OFFCURVE",
"348 688 OFFCURVE",
"348 688 CURVE",
"370 639 LINE SMOOTH",
"388 603 OFFCURVE",
"412 583 OFFCURVE",
"439 583 CURVE SMOOTH",
"472 583 OFFCURVE",
"498 606 OFFCURVE",
"498 642 CURVE SMOOTH",
"498 682 OFFCURVE",
"455 711 OFFCURVE",
"394 711 CURVE SMOOTH",
"263 711 OFFCURVE",
"177 628 OFFCURVE",
"146 481 CURVE",
"146 481 OFFCURVE",
"146 481 OFFCURVE",
"146 481 CURVE",
"64 472 LINE",
"62 463 LINE",
"143 463 LINE",
"121 311 OFFCURVE",
"102 175 OFFCURVE",
"81 45 CURVE SMOOTH",
"68 -34 OFFCURVE",
"55 -100 OFFCURVE",
"37 -145 CURVE SMOOTH",
"24 -183 OFFCURVE",
"16 -197 OFFCURVE",
"2 -215 CURVE",
"2 -215 OFFCURVE",
"2 -215 OFFCURVE",
"2 -215 CURVE",
"-21 -167 LINE SMOOTH",
"-41 -128 OFFCURVE",
"-67 -113 OFFCURVE",
"-98 -113 CURVE SMOOTH",
"-129 -113 OFFCURVE",
"-155 -133 OFFCURVE",
"-155 -167 CURVE SMOOTH",
"-155 -214 OFFCURVE",
"-101 -240 OFFCURVE",
"-45 -240 CURVE SMOOTH"
);
}
);
width = 887.03481;
}
);
leftKerningGroup = LAT_f;
rightKerningGroup = LAT_l;
unicode = FB04;
},
{
color = 8;
export = 0;
glyphname = f_f_t;
lastChange = "2019-06-06 17:07:10 +0000";
layers = (
{
components = (
{
alignment = -1;
name = f_t;
transform = "{1, 0, 0, 1, 285, 0}";
}
);
layerId = "7FECB189-581E-46CC-8EA5-5DBBB4FDF678";
paths = (
{
closed = 1;
nodes = (
"10 -240 OFFCURVE",
"63 -219 OFFCURVE",
"104 -177 CURVE SMOOTH",
"154 -127 OFFCURVE",
"182 -55 OFFCURVE",
"201 44 CURVE SMOOTH",
"225 175 OFFCURVE",
"245 320 OFFCURVE",
"266 461 CURVE",
"469 460 LINE",
"474 481 LINE",
"269 481 LINE",
"291 612 OFFCURVE",
"310 662 OFFCURVE",
"348 688 CURVE",
"348 688 OFFCURVE",
"348 688 OFFCURVE",
"348 688 CURVE",
"370 639 LINE SMOOTH",
"388 603 OFFCURVE",
"412 583 OFFCURVE",
"439 583 CURVE SMOOTH",
"472 583 OFFCURVE",
"498 606 OFFCURVE",
"498 642 CURVE SMOOTH",
"498 682 OFFCURVE",
"455 711 OFFCURVE",
"394 711 CURVE SMOOTH",
"263 711 OFFCURVE",
"177 628 OFFCURVE",
"146 481 CURVE",
"146 481 OFFCURVE",
"146 481 OFFCURVE",
"146 481 CURVE",
"64 472 LINE",
"62 463 LINE",
"143 463 LINE",
"121 311 OFFCURVE",
"102 175 OFFCURVE",
"81 45 CURVE SMOOTH",
"68 -34 OFFCURVE",
"55 -100 OFFCURVE",
"37 -145 CURVE SMOOTH",
"24 -183 OFFCURVE",
"16 -197 OFFCURVE",
"2 -215 CURVE",
"2 -215 OFFCURVE",
"2 -215 OFFCURVE",
"2 -215 CURVE",
"-21 -167 LINE SMOOTH",
"-41 -128 OFFCURVE",
"-67 -113 OFFCURVE",
"-98 -113 CURVE SMOOTH",
"-129 -113 OFFCURVE",
"-155 -133 OFFCURVE",
"-155 -167 CURVE SMOOTH",
"-155 -214 OFFCURVE",
"-101 -240 OFFCURVE",
"-45 -240 CURVE SMOOTH"
);
}
);
width = 907.78797;
}
);
leftKerningGroup = LAT_f;
rightKerningGroup = LAT_t;
},
{
color = 0;
export = 0;
glyphname = a.sups;
lastChange = "2019-06-06 17:07:10 +0000";
layers = (
{
layerId = "7FECB189-581E-46CC-8EA5-5DBBB4FDF678";
paths = (
{
closed = 1;
nodes = (
"222 405 OFFCURVE",
"277 446 OFFCURVE",
"318 500 CURVE",
"313 520 LINE",
"280 488 OFFCURVE",
"254 469 OFFCURVE",
"231 469 CURVE SMOOTH",
"208 469 OFFCURVE",
"193 486 OFFCURVE",
"193 527 CURVE SMOOTH",
"193 615 OFFCURVE",
"250 691 OFFCURVE",
"299 691 CURVE SMOOTH",
"319 691 OFFCURVE",
"338 682 OFFCURVE",
"354 671 CURVE",
"395 702 LINE",
"376 724 OFFCURVE",
"355 738 OFFCURVE",
"327 738 CURVE SMOOTH",
"231 738 OFFCURVE",
"106 610 OFFCURVE",
"106 494 CURVE SMOOTH",
"106 428 OFFCURVE",
"140 405 OFFCURVE",
"176 405 CURVE SMOOTH"
);
},
{
closed = 1;
nodes = (
"393 405 OFFCURVE",
"437 450 OFFCURVE",
"462 491 CURVE",
"442 504 LINE",
"421 478 OFFCURVE",
"403 462 OFFCURVE",
"390 462 CURVE SMOOTH",
"382 462 OFFCURVE",
"377 467 OFFCURVE",
"377 476 CURVE SMOOTH",
"377 483 OFFCURVE",
"378 493 OFFCURVE",
"381 505 CURVE SMOOTH",
"434 733 LINE",
"422 741 LINE",
"340 699 LINE",
"300 513 LINE SMOOTH",
"295 494 OFFCURVE",
"293 478 OFFCURVE",
"293 462 CURVE SMOOTH",
"294 423 OFFCURVE",
"314 405 OFFCURVE",
"344 405 CURVE SMOOTH"
);
}
);
width = 380.35759;
}
);
leftKerningGroup = sups_round;
rightKerningGroup = sups_corner;
unicode = 1D43;
},
{
color = 0;
export = 0;
glyphname = b.sups;
lastChange = "2019-06-06 17:07:10 +0000";
layers = (
{
layerId = "7FECB189-581E-46CC-8EA5-5DBBB4FDF678";
paths = (
{
closed = 1;
nodes = (
"312 405 OFFCURVE",
"433 525 OFFCURVE",
"433 649 CURVE SMOOTH",
"433 714 OFFCURVE",
"404 738 OFFCURVE",
"364 738 CURVE SMOOTH",
"316 738 OFFCURVE",
"257 699 OFFCURVE",
"219 640 CURVE",
"225 626 LINE",
"256 656 OFFCURVE",
"284 675 OFFCURVE",
"309 675 CURVE SMOOTH",
"333 675 OFFCURVE",
"347 656 OFFCURVE",
"347 620 CURVE SMOOTH",
"347 533 OFFCURVE",
"289 451 OFFCURVE",
"239 451 CURVE SMOOTH",
"217 451 OFFCURVE",
"206 464 OFFCURVE",
"206 484 CURVE SMOOTH",
"206 502 OFFCURVE",
"210 524 OFFCURVE",
"219 563 CURVE SMOOTH",
"238 649 LINE",
"238 656 LINE",
"285 877 LINE",
"275 884 LINE",
"138 844 LINE",
"134 820 LINE",
"218 812 LINE",
"190 831 LINE",
"141 587 LINE SMOOTH",
"133 549 OFFCURVE",
"124 508 OFFCURVE",
"124 477 CURVE SMOOTH",
"124 428 OFFCURVE",
"154 405 OFFCURVE",
"197 405 CURVE SMOOTH"
);
}
);
width = 358.35759;
}
);
leftKerningGroup = sups_corner;
rightKerningGroup = sups_round;
unicode = 1D47;
},
{
color = 0;
export = 0;
glyphname = c.sups;
lastChange = "2019-06-06 17:07:10 +0000";
layers = (
{
layerId = "7FECB189-581E-46CC-8EA5-5DBBB4FDF678";
paths = (
{
closed = 1;
nodes = (
"287 405 OFFCURVE",
"342 452 OFFCURVE",
"370 504 CURVE",
"352 517 LINE",
"328 488 OFFCURVE",
"298 470 OFFCURVE",
"268 470 CURVE SMOOTH",
"224 470 OFFCURVE",
"195 493 OFFCURVE",
"195 546 CURVE SMOOTH",
"195 616 OFFCURVE",
"233 691 OFFCURVE",
"303 717 CURVE",
"271 720 LINE",
"301 672 LINE SMOOTH",
"312 655 OFFCURVE",
"325 639 OFFCURVE",
"346 639 CURVE SMOOTH",
"368 639 OFFCURVE",
"387 656 OFFCURVE",
"389 679 CURVE",
"378 716 OFFCURVE",
"347 738 OFFCURVE",
"299 738 CURVE SMOOTH",
"194 738 OFFCURVE",
"109 639 OFFCURVE",
"109 528 CURVE SMOOTH",
"109 451 OFFCURVE",
"156 405 OFFCURVE",
"223 405 CURVE SMOOTH"
);
}
);
width = 310.0981;
}
);
leftKerningGroup = sups_round;
rightKerningGroup = sups_round;
unicode = 1D9C;
},
{
color = 0;
export = 0;
glyphname = d.sups;
lastChange = "2019-06-06 17:07:10 +0000";
layers = (
{
layerId = "7FECB189-581E-46CC-8EA5-5DBBB4FDF678";
paths = (
{
closed = 1;
nodes = (
"221 405 OFFCURVE",
"279 445 OFFCURVE",
"318 500 CURVE",
"314 520 LINE",
"282 487 OFFCURVE",
"256 469 OFFCURVE",
"232 469 CURVE SMOOTH",
"209 469 OFFCURVE",
"193 486 OFFCURVE",
"193 528 CURVE SMOOTH",
"193 612 OFFCURVE",
"240 691 OFFCURVE",
"298 691 CURVE SMOOTH",
"320 691 OFFCURVE",
"334 684 OFFCURVE",
"351 670 CURVE",
"393 707 LINE",
"371 729 OFFCURVE",
"351 738 OFFCURVE",
"326 738 CURVE SMOOTH",
"228 738 OFFCURVE",
"107 610 OFFCURVE",
"107 496 CURVE SMOOTH",
"107 428 OFFCURVE",
"139 405 OFFCURVE",
"175 405 CURVE SMOOTH"
);
},
{
closed = 1;
nodes = (
"462 877 LINE",
"452 884 LINE",
"315 844 LINE",
"312 820 LINE",
"395 812 LINE",
"372 836 LINE",
"347 714 LINE",
"340 697 LINE",
"302 510 LINE SMOOTH",
"297 490 OFFCURVE",
"296 471 OFFCURVE",
"296 457 CURVE SMOOTH",
"296 427 OFFCURVE",
"313 405 OFFCURVE",
"343 405 CURVE SMOOTH",
"392 405 OFFCURVE",
"438 445 OFFCURVE",
"464 490 CURVE",
"445 504 LINE",
"424 477 OFFCURVE",
"404 462 OFFCURVE",
"392 462 CURVE SMOOTH",
"378 462 OFFCURVE",
"377 474 OFFCURVE",
"384 505 CURVE SMOOTH"
);
}
);
width = 381.79589;
}
);
leftKerningGroup = sups_round;
rightKerningGroup = sups_corner;
unicode = 1D48;
},
{
color = 0;
export = 0;
glyphname = e.sups;
lastChange = "2019-06-06 17:07:10 +0000";
layers = (
{
layerId = "7FECB189-581E-46CC-8EA5-5DBBB4FDF678";
paths = (
{
closed = 1;
nodes = (
"291 405 OFFCURVE",
"343 454 OFFCURVE",
"370 504 CURVE",
"352 517 LINE",
"332 492 OFFCURVE",
"302 470 OFFCURVE",
"261 470 CURVE SMOOTH",
"219 470 OFFCURVE",
"193 495 OFFCURVE",
"193 550 CURVE SMOOTH",
"193 631 OFFCURVE",
"251 703 OFFCURVE",
"290 703 CURVE SMOOTH",
"307 703 OFFCURVE",
"319 693 OFFCURVE",
"319 671 CURVE SMOOTH",
"319 631 OFFCURVE",
"281 579 OFFCURVE",
"157 548 CURVE",
"159 524 LINE",
"321 557 OFFCURVE",
"389 611 OFFCURVE",
"389 669 CURVE SMOOTH",
"389 711 OFFCURVE",
"358 738 OFFCURVE",
"302 738 CURVE SMOOTH",
"192 738 OFFCURVE",
"109 639 OFFCURVE",
"109 527 CURVE SMOOTH",
"109 450 OFFCURVE",
"157 405 OFFCURVE",
"224 405 CURVE SMOOTH"
);
}
);
width = 311.22152;
}
);
leftKerningGroup = sups_round;
rightKerningGroup = sups_round;
unicode = 1D49;
},
{
color = 0;
export = 0;
glyphname = eacute.sups;
lastChange = "2019-06-06 17:07:10 +0000";
layers = (
{
components = (
{
alignment = -1;
name = e.sups;
}
);
layerId = "7FECB189-581E-46CC-8EA5-5DBBB4FDF678";
paths = (
{
closed = 1;
nodes = (
"321 763 LINE",
"392 834 LINE SMOOTH",
"411 853 OFFCURVE",
"421 869 OFFCURVE",
"421 887 CURVE SMOOTH",
"421 909 OFFCURVE",
"403 923 OFFCURVE",
"385 923 CURVE SMOOTH",
"365 923 OFFCURVE",
"349 912 OFFCURVE",
"336 877 CURVE SMOOTH",
"298 779 LINE"
);
}
);
width = 311.22152;
}
);
leftKerningGroup = sups_round;
rightKerningGroup = sups_round;
},
{
color = 0;
export = 0;
glyphname = egrave.sups;
lastChange = "2019-06-06 17:07:10 +0000";
layers = (
{
components = (
{
alignment = -1;
name = e.sups;
}
);
layerId = "7FECB189-581E-46CC-8EA5-5DBBB4FDF678";
paths = (
{
closed = 1;
nodes = (
"279 878 LINE SMOOTH",
"266 912 OFFCURVE",
"251 923 OFFCURVE",
"231 923 CURVE SMOOTH",
"213 923 OFFCURVE",
"194 909 OFFCURVE",
"194 888 CURVE SMOOTH",
"194 870 OFFCURVE",
"205 853 OFFCURVE",
"224 835 CURVE SMOOTH",
"296 763 LINE",
"319 779 LINE"
);
}
);
width = 311.22152;
}
);
leftKerningGroup = sups_round;
rightKerningGroup = sups_round;
},
{
color = 0;
export = 0;
glyphname = f.sups;
lastChange = "2019-06-06 17:07:10 +0000";
layers = (
{
layerId = "7FECB189-581E-46CC-8EA5-5DBBB4FDF678";
paths = (
{
closed = 1;
nodes = (
"298 895 OFFCURVE",
"271 885 OFFCURVE",
"246 867 CURVE SMOOTH",
"207 838 OFFCURVE",
"180 789 OFFCURVE",
"169 711 CURVE SMOOTH",
"155 621 OFFCURVE",
"145 531 OFFCURVE",
"131 444 CURVE SMOOTH",
"122 396 OFFCURVE",
"114 359 OFFCURVE",
"100 328 CURVE SMOOTH",
"90 306 OFFCURVE",
"79 292 OFFCURVE",
"68 281 CURVE",
"85 283 LINE",
"65 310 LINE SMOOTH",
"50 330 OFFCURVE",
"33 345 OFFCURVE",
"11 345 CURVE SMOOTH",
"-11 345 OFFCURVE",
"-25 329 OFFCURVE",
"-28 308 CURVE",
"-14 273 OFFCURVE",
"18 259 OFFCURVE",
"56 259 CURVE SMOOTH",
"85 259 OFFCURVE",
"119 273 OFFCURVE",
"146 301 CURVE SMOOTH",
"180 333 OFFCURVE",
"198 380 OFFCURVE",
"210 444 CURVE SMOOTH",
"227 536 OFFCURVE",
"240 640 OFFCURVE",
"256 742 CURVE SMOOTH",
"270 829 OFFCURVE",
"283 855 OFFCURVE",
"305 870 CURVE SMOOTH",
"313 875 OFFCURVE",
"328 882 OFFCURVE",
"336 883 CURVE",
"301 878 LINE",
"323 843 LINE SMOOTH",
"338 821 OFFCURVE",
"353 808 OFFCURVE",
"374 808 CURVE SMOOTH",
"392 808 OFFCURVE",
"412 824 OFFCURVE",
"415 846 CURVE",
"408 874 OFFCURVE",
"370 895 OFFCURVE",
"330 895 CURVE SMOOTH"
);
},
{
closed = 1;
nodes = (
"191 692 LINE",
"329 688 LINE",
"336 729 LINE",
"197 729 LINE",
"197 732 LINE",
"117 723 LINE",
"111 692 LINE"
);
}
);
width = 227.16614;
}
);
leftKerningGroup = sups_desc;
rightKerningGroup = sups_corner;
unicode = 1DA0;
},
{
color = 0;
export = 0;
glyphname = g.sups;
lastChange = "2019-06-06 17:07:10 +0000";
layers = (
{
layerId = "7FECB189-581E-46CC-8EA5-5DBBB4FDF678";
paths = (
{
closed = 1;
nodes = (
"104 427 OFFCURVE",
"123 405 OFFCURVE",
"164 400 CURVE SMOOTH",
"247 392 LINE SMOOTH",
"300 387 OFFCURVE",
"318 372 OFFCURVE",
"318 350 CURVE SMOOTH",
"318 318 OFFCURVE",
"280 298 OFFCURVE",
"216 298 CURVE SMOOTH",
"161 298 OFFCURVE",
"127 317 OFFCURVE",
"127 350 CURVE SMOOTH",
"127 375 OFFCURVE",
"144 394 OFFCURVE",
"172 411 CURVE",
"160 417 LINE",
"109 401 OFFCURVE",
"57 368 OFFCURVE",
"57 327 CURVE SMOOTH",
"57 283 OFFCURVE",
"105 261 OFFCURVE",
"180 261 CURVE SMOOTH",
"303 261 OFFCURVE",
"393 315 OFFCURVE",
"393 386 CURVE SMOOTH",
"393 427 OFFCURVE",
"368 456 OFFCURVE",
"292 463 CURVE SMOOTH",
"207 472 LINE SMOOTH",
"181 474 OFFCURVE",
"173 486 OFFCURVE",
"173 497 CURVE SMOOTH",
"173 506 OFFCURVE",
"175 514 OFFCURVE",
"201 536 CURVE",
"188 547 LINE",
"137 518 OFFCURVE",
"104 493 OFFCURVE",
"104 453 CURVE SMOOTH"
);
},
{
closed = 1;
nodes = (
"220 539 OFFCURVE",
"207 576 OFFCURVE",
"207 617 CURVE SMOOTH",
"207 674 OFFCURVE",
"225 711 OFFCURVE",
"260 711 CURVE SMOOTH",
"285 711 OFFCURVE",
"303 683 OFFCURVE",
"303 637 CURVE SMOOTH",
"303 563 OFFCURVE",
"280 539 OFFCURVE",
"251 539 CURVE SMOOTH"
);
},
{
closed = 1;
nodes = (
"128 558 OFFCURVE",
"166 513 OFFCURVE",
"235 513 CURVE SMOOTH",
"316 513 OFFCURVE",
"358 559 OFFCURVE",
"376 635 CURVE SMOOTH",
"385 669 OFFCURVE",
"393 695 OFFCURVE",
"406 720 CURVE",
"377 668 LINE",
"423 675 OFFCURVE",
"462 693 OFFCURVE",
"462 730 CURVE SMOOTH",
"462 736 OFFCURVE",
"461 741 OFFCURVE",
"459 746 CURVE",
"452 752 OFFCURVE",
"442 754 OFFCURVE",
"430 754 CURVE SMOOTH",
"395 754 OFFCURVE",
"370 726 OFFCURVE",
"359 659 CURVE",
"366 658 LINE",
"365 700 OFFCURVE",
"327 738 OFFCURVE",
"269 738 CURVE SMOOTH",
"190 738 OFFCURVE",
"128 677 OFFCURVE",
"128 606 CURVE SMOOTH"
);
}
);
width = 362.41297;
}
);
leftKerningGroup = sups_desc;
rightKerningGroup = sups_low;
unicode = 1D4D;
},
{
color = 0;
export = 0;
glyphname = h.sups;
lastChange = "2019-06-06 17:07:10 +0000";
layers = (
{
layerId = "7FECB189-581E-46CC-8EA5-5DBBB4FDF678";
paths = (
{
closed = 1;
nodes = (
"194 414 LINE",
"201 461 OFFCURVE",
"209 499 OFFCURVE",
"221 554 CURVE SMOOTH",
"241 648 LINE",
"241 658 LINE",
"287 877 LINE",
"279 884 LINE",
"142 844 LINE",
"139 820 LINE",
"224 812 LINE",
"192 834 LINE",
"185 788 OFFCURVE",
"176 741 OFFCURVE",
"166 695 CURVE SMOOTH",
"108 416 LINE",
"117 409 LINE"
);
},
{
closed = 1;
nodes = (
"399 405 OFFCURVE",
"445 447 OFFCURVE",
"471 490 CURVE",
"451 504 LINE",
"429 476 OFFCURVE",
"410 462 OFFCURVE",
"398 462 CURVE SMOOTH",
"384 462 OFFCURVE",
"384 473 OFFCURVE",
"392 505 CURVE SMOOTH",
"423 628 LINE SMOOTH",
"428 648 OFFCURVE",
"432 668 OFFCURVE",
"432 685 CURVE SMOOTH",
"432 721 OFFCURVE",
"411 738 OFFCURVE",
"382 738 CURVE SMOOTH",
"336 738 OFFCURVE",
"279 705 OFFCURVE",
"230 653 CURVE",
"229 625 LINE",
"268 659 OFFCURVE",
"301 675 OFFCURVE",
"323 675 CURVE SMOOTH",
"334 675 OFFCURVE",
"342 668 OFFCURVE",
"342 653 CURVE SMOOTH",
"342 642 OFFCURVE",
"338 624 OFFCURVE",
"333 604 CURVE SMOOTH",
"309 504 LINE SMOOTH",
"303 484 OFFCURVE",
"298 463 OFFCURVE",
"298 444 CURVE SMOOTH",
"298 419 OFFCURVE",
"315 405 OFFCURVE",
"344 405 CURVE SMOOTH"
);
}
);
width = 391.49367;
}
);
leftKerningGroup = sups_corner;
rightKerningGroup = sups_corner;
unicode = 02B0;
},
{
color = 0;
export = 0;
glyphname = i.sups;
lastChange = "2019-06-06 17:07:10 +0000";
layers = (
{
layerId = "7FECB189-581E-46CC-8EA5-5DBBB4FDF678";
paths = (
{
closed = 1;
nodes = (
"125 419 OFFCURVE",
"145 405 OFFCURVE",
"173 405 CURVE SMOOTH",
"229 405 OFFCURVE",
"269 447 OFFCURVE",
"297 490 CURVE",
"277 504 LINE",
"254 476 OFFCURVE",
"238 462 OFFCURVE",
"226 462 CURVE SMOOTH",
"211 462 OFFCURVE",
"211 475 OFFCURVE",
"217 502 CURVE SMOOTH",
"266 731 LINE",
"255 739 LINE",
"119 698 LINE",
"115 674 LINE",
"185 669 LINE",
"171 686 LINE",
"134 509 LINE SMOOTH",
"130 489 OFFCURVE",
"125 463 OFFCURVE",
"125 447 CURVE SMOOTH"
);
},
{
closed = 1;
nodes = (
"272 803 OFFCURVE",
"298 826 OFFCURVE",
"298 857 CURVE SMOOTH",
"298 884 OFFCURVE",
"279 902 OFFCURVE",
"252 902 CURVE SMOOTH",
"224 902 OFFCURVE",
"198 880 OFFCURVE",
"198 848 CURVE SMOOTH",
"198 820 OFFCURVE",
"220 803 OFFCURVE",
"245 803 CURVE SMOOTH"
);
}
);
width = 217.12342;
}
);
leftKerningGroup = sups_corner;
rightKerningGroup = sups_corner;
unicode = 2071;
},
{
color = 0;
export = 0;
glyphname = j.sups;
lastChange = "2019-06-06 17:07:10 +0000";
layers = (
{
layerId = "7FECB189-581E-46CC-8EA5-5DBBB4FDF678";
paths = (
{
closed = 1;
nodes = (
"272 803 OFFCURVE",
"298 826 OFFCURVE",
"298 857 CURVE SMOOTH",
"298 884 OFFCURVE",
"279 902 OFFCURVE",
"252 902 CURVE SMOOTH",
"224 902 OFFCURVE",
"198 880 OFFCURVE",
"198 848 CURVE SMOOTH",
"198 820 OFFCURVE",
"220 803 OFFCURVE",
"245 803 CURVE SMOOTH"
);
},
{
closed = 1;
nodes = (
"83 263 OFFCURVE",
"118 283 OFFCURVE",
"145 312 CURVE SMOOTH",
"175 343 OFFCURVE",
"196 385 OFFCURVE",
"209 453 CURVE SMOOTH",
"264 730 LINE",
"252 739 LINE",
"119 698 LINE",
"115 674 LINE",
"201 666 LINE",
"171 685 LINE",
"125 447 LINE SMOOTH",
"112 377 OFFCURVE",
"101 340 OFFCURVE",
"83 317 CURVE SMOOTH",
"70 298 OFFCURVE",
"54 289 OFFCURVE",
"32 281 CURVE",
"37 259 LINE"
);
}
);
width = 200.11076;
}
);
leftKerningGroup = sups_desc;
rightKerningGroup = sups_low;
unicode = 02B2;
},
{
color = 0;
export = 0;
glyphname = k.sups;
lastChange = "2019-06-06 17:07:10 +0000";
layers = (
{
layerId = "7FECB189-581E-46CC-8EA5-5DBBB4FDF678";
paths = (
{
closed = 1;
nodes = (
"115 409 LINE",
"193 414 LINE",
"201 461 OFFCURVE",
"208 499 OFFCURVE",
"220 554 CURVE SMOOTH",
"287 877 LINE",
"279 884 LINE",
"141 844 LINE",
"138 820 LINE",
"223 812 LINE",
"190 834 LINE",
"184 788 OFFCURVE",
"174 741 OFFCURVE",
"165 695 CURVE SMOOTH",
"107 416 LINE"
);
},
{
closed = 1;
nodes = (
"429 436 LINE",
"406 439 LINE SMOOTH",
"388 441 OFFCURVE",
"378 449 OFFCURVE",
"366 474 CURVE SMOOTH",
"346 520 LINE SMOOTH",
"329 559 OFFCURVE",
"301 581 OFFCURVE",
"258 585 CURVE SMOOTH",
"224 588 LINE",
"222 583 LINE",
"378 639 LINE SMOOTH",
"418 651 OFFCURVE",
"435 666 OFFCURVE",
"435 690 CURVE SMOOTH",
"435 713 OFFCURVE",
"419 732 OFFCURVE",
"394 735 CURVE",
"210 586 LINE",
"210 577 LINE",
"219 575 LINE SMOOTH",
"238 568 OFFCURVE",
"245 558 OFFCURVE",
"258 524 CURVE SMOOTH",
"279 467 LINE SMOOTH",
"298 417 OFFCURVE",
"325 405 OFFCURVE",
"365 405 CURVE SMOOTH",
"387 405 OFFCURVE",
"405 408 OFFCURVE",
"425 414 CURVE"
);
}
);
width = 360.48101;
}
);
leftKerningGroup = sups_corner;
rightKerningGroup = sups_corner;
unicode = 1D4F;
},
{
color = 0;
export = 0;
glyphname = l.sups;
lastChange = "2019-06-06 17:07:10 +0000";
layers = (
{
layerId = "7FECB189-581E-46CC-8EA5-5DBBB4FDF678";
paths = (
{
closed = 1;
nodes = (
"224 405 OFFCURVE",
"264 447 OFFCURVE",
"291 490 CURVE",
"272 504 LINE",
"249 476 OFFCURVE",
"232 462 OFFCURVE",
"220 462 CURVE SMOOTH",
"208 462 OFFCURVE",
"205 473 OFFCURVE",
"211 503 CURVE SMOOTH",
"290 877 LINE",
"280 884 LINE",
"143 844 LINE",
"140 820 LINE",
"224 812 LINE",
"193 834 LINE",
"186 788 OFFCURVE",
"176 740 OFFCURVE",
"167 695 CURVE SMOOTH",
"132 523 LINE SMOOTH",
"124 486 OFFCURVE",
"120 465 OFFCURVE",
"120 448 CURVE SMOOTH",
"120 420 OFFCURVE",
"139 405 OFFCURVE",
"169 405 CURVE SMOOTH"
);
}
);
width = 209.05538;
}
);
leftKerningGroup = sups_corner;
rightKerningGroup = sups_corner;
unicode = 02E1;
},
{
color = 0;
export = 0;
glyphname = m.sups;
lastChange = "2019-06-06 17:07:10 +0000";
layers = (
{
layerId = "7FECB189-581E-46CC-8EA5-5DBBB4FDF678";
paths = (
{
closed = 1;
nodes = (
"586 405 OFFCURVE",
"630 447 OFFCURVE",
"658 490 CURVE",
"638 504 LINE",
"615 476 OFFCURVE",
"598 462 OFFCURVE",
"586 462 CURVE",
"572 462 OFFCURVE",
"571 473 OFFCURVE",
"578 499 CURVE SMOOTH",
"610 628 LINE SMOOTH",
"615 648 OFFCURVE",
"619 668 OFFCURVE",
"619 685 CURVE",
"619 721 OFFCURVE",
"598 738 OFFCURVE",
"569 738 CURVE",
"523 738 OFFCURVE",
"470 705 OFFCURVE",
"420 653 CURVE",
"420 625 LINE",
"458 659 OFFCURVE",
"488 675 OFFCURVE",
"510 675 CURVE",
"522 675 OFFCURVE",
"529 668 OFFCURVE",
"529 653 CURVE",
"530 642 OFFCURVE",
"526 624 OFFCURVE",
"521 604 CURVE SMOOTH",
"496 504 LINE SMOOTH",
"490 484 OFFCURVE",
"485 463 OFFCURVE",
"485 444 CURVE",
"485 419 OFFCURVE",
"502 405 OFFCURVE",
"531 405 CURVE"
);
},
{
closed = 1;
nodes = (
"209 461 OFFCURVE",
"217 507 OFFCURVE",
"228 554 CURVE SMOOTH",
"248 649 LINE",
"264 729 LINE",
"252 739 LINE",
"119 698 LINE",
"115 674 LINE",
"201 666 LINE",
"171 684 LINE",
"114 416 LINE",
"123 409 LINE",
"200 414 LINE"
);
},
{
closed = 1;
nodes = (
"394 461 OFFCURVE",
"403 507 OFFCURVE",
"413 554 CURVE SMOOTH",
"431 636 LINE SMOOTH",
"434 654 OFFCURVE",
"437 670 OFFCURVE",
"437 685 CURVE",
"437 721 OFFCURVE",
"417 738 OFFCURVE",
"387 738 CURVE",
"340 738 OFFCURVE",
"285 705 OFFCURVE",
"236 654 CURVE",
"235 625 LINE",
"273 659 OFFCURVE",
"305 675 OFFCURVE",
"329 675 CURVE",
"339 675 OFFCURVE",
"347 668 OFFCURVE",
"347 654 CURVE",
"347 644 OFFCURVE",
"345 629 OFFCURVE",
"341 613 CURVE SMOOTH",
"299 416 LINE",
"308 409 LINE",
"385 414 LINE"
);
}
);
width = 578.30222;
}
);
leftKerningGroup = sups_corner;
rightKerningGroup = sups_corner;
unicode = 1D50;
},
{
color = 0;
export = 0;
glyphname = n.sups;
lastChange = "2019-06-06 17:07:10 +0000";
layers = (
{
layerId = "7FECB189-581E-46CC-8EA5-5DBBB4FDF678";
paths = (
{
closed = 1;
nodes = (
"305 419 OFFCURVE",
"321 405 OFFCURVE",
"351 405 CURVE SMOOTH",
"406 405 OFFCURVE",
"451 447 OFFCURVE",
"478 490 CURVE",
"459 504 LINE",
"436 476 OFFCURVE",
"418 462 OFFCURVE",
"405 462 CURVE SMOOTH",
"398 462 OFFCURVE",
"393 467 OFFCURVE",
"393 475 CURVE SMOOTH",
"393 482 OFFCURVE",
"396 492 OFFCURVE",
"400 505 CURVE SMOOTH",
"430 628 LINE SMOOTH",
"435 648 OFFCURVE",
"439 668 OFFCURVE",
"439 685 CURVE SMOOTH",
"439 721 OFFCURVE",
"418 738 OFFCURVE",
"389 738 CURVE SMOOTH",
"343 738 OFFCURVE",
"286 705 OFFCURVE",
"237 653 CURVE",
"236 625 LINE",
"275 659 OFFCURVE",
"308 675 OFFCURVE",
"330 675 CURVE SMOOTH",
"341 675 OFFCURVE",
"349 668 OFFCURVE",
"349 653 CURVE SMOOTH",
"349 642 OFFCURVE",
"346 624 OFFCURVE",
"340 604 CURVE SMOOTH",
"316 504 LINE SMOOTH",
"310 484 OFFCURVE",
"305 463 OFFCURVE",
"305 444 CURVE SMOOTH"
);
},
{
closed = 1;
nodes = (
"209 461 OFFCURVE",
"217 507 OFFCURVE",
"228 554 CURVE SMOOTH",
"248 649 LINE",
"264 729 LINE",
"252 739 LINE",
"119 698 LINE",
"115 674 LINE",
"201 666 LINE",
"171 684 LINE",
"114 416 LINE",
"123 409 LINE",
"200 414 LINE"
);
}
);
width = 397.93196;
}
);
leftKerningGroup = sups_corner;
rightKerningGroup = sups_corner;
unicode = 207F;
},
{
color = 0;
export = 0;
glyphname = o.sups;
lastChange = "2019-06-06 17:07:10 +0000";
layers = (
{
layerId = "7FECB189-581E-46CC-8EA5-5DBBB4FDF678";
paths = (
{
closed = 1;
nodes = (
"343 405 OFFCURVE",
"423 506 OFFCURVE",
"423 615 CURVE SMOOTH",
"423 699 OFFCURVE",
"369 738 OFFCURVE",
"298 738 CURVE SMOOTH",
"190 738 OFFCURVE",
"108 638 OFFCURVE",
"108 528 CURVE SMOOTH",
"108 444 OFFCURVE",
"165 405 OFFCURVE",
"235 405 CURVE SMOOTH"
);
},
{
closed = 1;
nodes = (
"216 439 OFFCURVE",
"195 457 OFFCURVE",
"195 513 CURVE SMOOTH",
"195 602 OFFCURVE",
"233 704 OFFCURVE",
"290 704 CURVE SMOOTH",
"317 704 OFFCURVE",
"336 686 OFFCURVE",
"336 631 CURVE SMOOTH",
"336 541 OFFCURVE",
"299 439 OFFCURVE",
"243 439 CURVE SMOOTH"
);
}
);
width = 356.23418;
}
);
leftKerningGroup = sups_round;
rightKerningGroup = sups_round;
unicode = 1D52;
},
{
color = 0;
export = 0;
glyphname = p.sups;
lastChange = "2019-06-06 17:07:10 +0000";
layers = (
{
layerId = "7FECB189-581E-46CC-8EA5-5DBBB4FDF678";
paths = (
{
closed = 1;
nodes = (
"170 266 LINE",
"177 312 OFFCURVE",
"186 357 OFFCURVE",
"200 424 CURVE",
"204 436 LINE",
"264 729 LINE",
"252 739 LINE",
"119 698 LINE",
"116 674 LINE",
"200 666 LINE",
"171 684 LINE",
"84 266 LINE"
);
},
{
closed = 1;
nodes = (
"180 414 OFFCURVE",
"202 405 OFFCURVE",
"228 405 CURVE SMOOTH",
"330 405 OFFCURVE",
"443 529 OFFCURVE",
"443 650 CURVE SMOOTH",
"443 717 OFFCURVE",
"411 738 OFFCURVE",
"374 738 CURVE SMOOTH",
"327 738 OFFCURVE",
"266 699 OFFCURVE",
"227 640 CURVE",
"233 627 LINE",
"262 654 OFFCURVE",
"293 675 OFFCURVE",
"318 675 CURVE SMOOTH",
"343 675 OFFCURVE",
"357 658 OFFCURVE",
"357 619 CURVE SMOOTH",
"357 533 OFFCURVE",
"305 452 OFFCURVE",
"250 452 CURVE SMOOTH",
"226 452 OFFCURVE",
"206 470 OFFCURVE",
"187 497 CURVE",
"159 435 LINE"
);
},
{
closed = 1;
nodes = (
"223 266 LINE",
"228 290 LINE",
"146 303 LINE",
"122 303 LINE",
"45 290 LINE",
"40 266 LINE"
);
}
);
width = 370.54905;
}
);
leftKerningGroup = sups_desc;
rightKerningGroup = sups_round;
unicode = 1D56;
},
{
color = 0;
export = 0;
glyphname = q.sups;
lastChange = "2019-06-06 17:07:10 +0000";
layers = (
{
layerId = "7FECB189-581E-46CC-8EA5-5DBBB4FDF678";
paths = (
{
closed = 1;
nodes = (
"223 405 OFFCURVE",
"287 445 OFFCURVE",
"326 500 CURVE",
"321 520 LINE",
"289 487 OFFCURVE",
"256 469 OFFCURVE",
"232 469 CURVE SMOOTH",
"207 469 OFFCURVE",
"193 488 OFFCURVE",
"193 527 CURVE SMOOTH",
"193 601 OFFCURVE",
"238 691 OFFCURVE",
"303 691 CURVE SMOOTH",
"320 691 OFFCURVE",
"337 685 OFFCURVE",
"356 672 CURVE",
"397 707 LINE",
"375 729 OFFCURVE",
"355 738 OFFCURVE",
"329 738 CURVE SMOOTH",
"229 738 OFFCURVE",
"107 610 OFFCURVE",
"107 496 CURVE SMOOTH",
"107 428 OFFCURVE",
"139 405 OFFCURVE",
"175 405 CURVE SMOOTH"
);
},
{
closed = 1;
nodes = (
"391 266 LINE",
"396 290 LINE",
"314 303 LINE",
"290 303 LINE",
"212 290 LINE",
"207 266 LINE"
);
},
{
closed = 1;
nodes = (
"424 743 LINE",
"346 705 LINE",
"301 490 LINE",
"300 477 LINE",
"255 266 LINE",
"341 266 LINE",
"349 309 OFFCURVE",
"357 355 OFFCURVE",
"367 403 CURVE SMOOTH",
"436 735 LINE"
);
}
);
width = 366.65981;
}
);
leftKerningGroup = sups_round;
rightKerningGroup = sups_low;
},
{
color = 0;
export = 0;
glyphname = r.sups;
lastChange = "2019-06-06 17:07:10 +0000";
layers = (
{
layerId = "7FECB189-581E-46CC-8EA5-5DBBB4FDF678";
paths = (
{
closed = 1;
nodes = (
"252 611 OFFCURVE",
"279 656 OFFCURVE",
"325 696 CURVE",
"292 697 LINE",
"321 666 OFFCURVE",
"336 655 OFFCURVE",
"357 655 CURVE SMOOTH",
"385 655 OFFCURVE",
"400 678 OFFCURVE",
"399 707 CURVE",
"392 728 OFFCURVE",
"371 738 OFFCURVE",
"349 738 CURVE SMOOTH",
"302 738 OFFCURVE",
"255 674 OFFCURVE",
"224 596 CURVE",
"229 563 LINE"
);
},
{
closed = 1;
nodes = (
"123 409 LINE",
"200 414 LINE",
"209 461 OFFCURVE",
"218 507 OFFCURVE",
"228 554 CURVE SMOOTH",
"239 612 LINE",
"238 617 LINE",
"257 729 LINE",
"244 739 LINE",
"119 698 LINE",
"115 674 LINE",
"201 666 LINE",
"171 684 LINE",
"114 416 LINE"
);
}
);
width = 302.97468;
}
);
leftKerningGroup = sups_corner;
rightKerningGroup = sups_v;
unicode = 02B3;
},
{
color = 0;
export = 0;
glyphname = s.sups;
lastChange = "2019-06-06 17:07:10 +0000";
layers = (
{
layerId = "7FECB189-581E-46CC-8EA5-5DBBB4FDF678";
paths = (
{
closed = 1;
nodes = (
"181 465 LINE SMOOTH",
"175 493 OFFCURVE",
"160 505 OFFCURVE",
"137 505 CURVE SMOOTH",
"118 505 OFFCURVE",
"106 492 OFFCURVE",
"102 472 CURVE",
"109 428 OFFCURVE",
"142 405 OFFCURVE",
"200 405 CURVE SMOOTH",
"287 405 OFFCURVE",
"334 450 OFFCURVE",
"334 503 CURVE SMOOTH",
"334 540 OFFCURVE",
"311 566 OFFCURVE",
"276 594 CURVE SMOOTH",
"242 620 OFFCURVE",
"221 638 OFFCURVE",
"221 665 CURVE SMOOTH",
"221 689 OFFCURVE",
"237 713 OFFCURVE",
"275 713 CURVE SMOOTH",
"285 713 OFFCURVE",
"295 712 OFFCURVE",
"304 711 CURVE",
"267 724 LINE",
"282 683 LINE SMOOTH",
"291 656 OFFCURVE",
"309 644 OFFCURVE",
"326 644 CURVE SMOOTH",
"346 644 OFFCURVE",
"358 656 OFFCURVE",
"360 674 CURVE",
"351 714 OFFCURVE",
"322 738 OFFCURVE",
"263 738 CURVE SMOOTH",
"189 738 OFFCURVE",
"144 691 OFFCURVE",
"144 634 CURVE SMOOTH",
"144 594 OFFCURVE",
"175 565 OFFCURVE",
"207 539 CURVE SMOOTH",
"236 515 OFFCURVE",
"254 497 OFFCURVE",
"254 475 CURVE SMOOTH",
"254 450 OFFCURVE",
"232 430 OFFCURVE",
"195 430 CURVE SMOOTH",
"190 430 OFFCURVE",
"162 431 OFFCURVE",
"155 432 CURVE",
"193 417 LINE"
);
}
);
width = 280.90665;
}
);
leftKerningGroup = sups_round;
rightKerningGroup = sups_round;
unicode = 02E2;
},
{
color = 0;
export = 0;
glyphname = t.sups;
lastChange = "2019-06-06 17:07:10 +0000";
layers = (
{
layerId = "7FECB189-581E-46CC-8EA5-5DBBB4FDF678";
paths = (
{
closed = 1;
nodes = (
"202 692 LINE",
"330 692 LINE",
"336 729 LINE",
"206 729 LINE",
"206 732 LINE",
"123 723 LINE",
"118 692 LINE"
);
},
{
closed = 1;
nodes = (
"129 489 OFFCURVE",
"124 466 OFFCURVE",
"125 448 CURVE SMOOTH",
"125 419 OFFCURVE",
"145 405 OFFCURVE",
"173 405 CURVE SMOOTH",
"228 405 OFFCURVE",
"271 447 OFFCURVE",
"298 490 CURVE",
"278 504 LINE",
"255 476 OFFCURVE",
"239 462 OFFCURVE",
"225 462 CURVE SMOOTH",
"212 462 OFFCURVE",
"210 473 OFFCURVE",
"217 505 CURVE SMOOTH",
"281 818 LINE",
"226 818 LINE",
"177 710 LINE",
"133 511 LINE SMOOTH"
);
}
);
width = 234.24684;
}
);
leftKerningGroup = sups_round;
rightKerningGroup = sups_corner;
unicode = 1D57;
},
{
color = 0;
export = 0;
glyphname = u.sups;
lastChange = "2019-06-06 17:07:10 +0000";
layers = (
{
layerId = "7FECB189-581E-46CC-8EA5-5DBBB4FDF678";
paths = (
{
closed = 1;
nodes = (
"231 405 OFFCURVE",
"284 439 OFFCURVE",
"339 500 CURVE",
"336 521 LINE",
"293 484 OFFCURVE",
"266 469 OFFCURVE",
"241 469 CURVE SMOOTH",
"226 469 OFFCURVE",
"216 476 OFFCURVE",
"216 496 CURVE SMOOTH",
"216 509 OFFCURVE",
"219 524 OFFCURVE",
"223 542 CURVE SMOOTH",
"267 729 LINE",
"257 739 LINE",
"120 698 LINE",
"116 674 LINE",
"185 669 LINE",
"173 687 LINE",
"136 523 LINE SMOOTH",
"131 501 OFFCURVE",
"127 478 OFFCURVE",
"127 459 CURVE SMOOTH",
"127 423 OFFCURVE",
"152 405 OFFCURVE",
"182 405 CURVE SMOOTH"
);
},
{
closed = 1;
nodes = (
"413 405 OFFCURVE",
"453 448 OFFCURVE",
"481 490 CURVE",
"462 504 LINE",
"437 476 OFFCURVE",
"422 462 OFFCURVE",
"409 462 CURVE SMOOTH",
"394 462 OFFCURVE",
"395 477 OFFCURVE",
"401 505 CURVE SMOOTH",
"450 729 LINE",
"438 739 LINE",
"359 714 LINE",
"354 680 OFFCURVE",
"347 646 OFFCURVE",
"340 614 CURVE SMOOTH",
"318 509 LINE SMOOTH",
"314 490 OFFCURVE",
"312 477 OFFCURVE",
"311 461 CURVE SMOOTH",
"311 425 OFFCURVE",
"333 405 OFFCURVE",
"360 405 CURVE SMOOTH"
);
}
);
width = 399.43829;
}
);
leftKerningGroup = sups_round;
rightKerningGroup = sups_corner;
unicode = 1D58;
},
{
color = 0;
export = 0;
glyphname = v.sups;
lastChange = "2019-06-06 17:07:10 +0000";
layers = (
{
layerId = "7FECB189-581E-46CC-8EA5-5DBBB4FDF678";
paths = (
{
closed = 1;
nodes = (
"243 413 LINE",
"311 481 OFFCURVE",
"371 554 OFFCURVE",
"403 612 CURVE SMOOTH",
"429 657 OFFCURVE",
"433 676 OFFCURVE",
"433 694 CURVE SMOOTH",
"433 713 OFFCURVE",
"431 722 OFFCURVE",
"425 731 CURVE",
"418 736 OFFCURVE",
"408 740 OFFCURVE",
"395 740 CURVE SMOOTH",
"365 740 OFFCURVE",
"344 724 OFFCURVE",
"344 687 CURVE SMOOTH",
"344 671 OFFCURVE",
"350 654 OFFCURVE",
"369 589 CURVE",
"375 643 LINE",
"372 638 OFFCURVE",
"369 633 OFFCURVE",
"366 628 CURVE SMOOTH",
"329 562 OFFCURVE",
"302 523 OFFCURVE",
"268 481 CURVE",
"265 540 OFFCURVE",
"257 629 OFFCURVE",
"251 677 CURVE SMOOTH",
"245 719 OFFCURVE",
"231 738 OFFCURVE",
"198 738 CURVE SMOOTH",
"164 738 OFFCURVE",
"132 713 OFFCURVE",
"100 663 CURVE",
"115 648 LINE",
"131 665 OFFCURVE",
"141 672 OFFCURVE",
"149 672 CURVE SMOOTH",
"158 672 OFFCURVE",
"164 669 OFFCURVE",
"167 650 CURVE SMOOTH",
"178 571 OFFCURVE",
"187 493 OFFCURVE",
"195 414 CURVE"
);
}
);
width = 349.23418;
}
);
leftKerningGroup = sups_diag;
rightKerningGroup = sups_v;
unicode = 1D5B;
},
{
color = 0;
export = 0;
glyphname = w.sups;
lastChange = "2019-06-06 17:07:10 +0000";
layers = (
{
layerId = "7FECB189-581E-46CC-8EA5-5DBBB4FDF678";
paths = (
{
closed = 1;
nodes = (
"248 413 LINE",
"287 472 OFFCURVE",
"324 534 OFFCURVE",
"358 599 CURVE",
"365 542 OFFCURVE",
"375 454 OFFCURVE",
"380 414 CURVE",
"429 413 LINE",
"496 481 OFFCURVE",
"551 554 OFFCURVE",
"583 612 CURVE SMOOTH",
"608 656 OFFCURVE",
"613 676 OFFCURVE",
"613 693 CURVE SMOOTH",
"614 713 OFFCURVE",
"611 722 OFFCURVE",
"605 731 CURVE",
"599 736 OFFCURVE",
"589 740 OFFCURVE",
"577 740 CURVE SMOOTH",
"548 740 OFFCURVE",
"524 724 OFFCURVE",
"524 687 CURVE SMOOTH",
"524 674 OFFCURVE",
"528 660 OFFCURVE",
"550 587 CURVE",
"557 642 LINE",
"554 636 OFFCURVE",
"550 631 OFFCURVE",
"548 626 CURVE SMOOTH",
"511 564 OFFCURVE",
"486 527 OFFCURVE",
"456 487 CURVE",
"448 553 OFFCURVE",
"437 678 OFFCURVE",
"430 724 CURVE",
"379 724 LINE",
"344 649 OFFCURVE",
"306 575 OFFCURVE",
"265 504 CURVE",
"261 560 OFFCURVE",
"256 635 OFFCURVE",
"249 679 CURVE SMOOTH",
"244 719 OFFCURVE",
"230 738 OFFCURVE",
"197 738 CURVE SMOOTH",
"164 738 OFFCURVE",
"132 713 OFFCURVE",
"100 663 CURVE",
"115 648 LINE",
"130 664 OFFCURVE",
"140 672 OFFCURVE",
"149 672 CURVE SMOOTH",
"158 672 OFFCURVE",
"163 670 OFFCURVE",
"167 651 CURVE SMOOTH",
"177 588 OFFCURVE",
"186 488 OFFCURVE",
"195 414 CURVE"
);
}
);
width = 529.85127;
}
);
leftKerningGroup = sups_diag;
rightKerningGroup = sups_v;
unicode = 02B7;
},
{
color = 0;
export = 0;
glyphname = x.sups;
lastChange = "2019-06-06 17:07:10 +0000";
layers = (
{
layerId = "7FECB189-581E-46CC-8EA5-5DBBB4FDF678";
paths = (
{
closed = 1;
nodes = (
"83 420 OFFCURVE",
"112 405 OFFCURVE",
"139 405 CURVE SMOOTH",
"163 405 OFFCURVE",
"180 416 OFFCURVE",
"195 434 CURVE SMOOTH",
"225 469 OFFCURVE",
"251 511 OFFCURVE",
"287 569 CURVE",
"279 591 LINE",
"247 551 OFFCURVE",
"206 494 OFFCURVE",
"173 457 CURVE SMOOTH",
"166 449 OFFCURVE",
"159 443 OFFCURVE",
"153 437 CURVE",
"182 435 LINE",
"170 453 LINE SMOOTH",
"152 482 OFFCURVE",
"142 493 OFFCURVE",
"122 493 CURVE SMOOTH",
"102 493 OFFCURVE",
"86 482 OFFCURVE",
"79 458 CURVE"
);
},
{
closed = 1;
nodes = (
"294 416 OFFCURVE",
"313 403 OFFCURVE",
"342 403 CURVE SMOOTH",
"385 403 OFFCURVE",
"425 441 OFFCURVE",
"454 490 CURVE",
"433 504 LINE",
"413 478 OFFCURVE",
"395 462 OFFCURVE",
"381 462 CURVE SMOOTH",
"367 462 OFFCURVE",
"359 468 OFFCURVE",
"351 492 CURVE SMOOTH",
"286 679 LINE SMOOTH",
"272 718 OFFCURVE",
"258 738 OFFCURVE",
"223 738 CURVE SMOOTH",
"191 738 OFFCURVE",
"159 714 OFFCURVE",
"126 664 CURVE",
"142 648 LINE",
"157 667 OFFCURVE",
"174 673 OFFCURVE",
"184 673 CURVE SMOOTH",
"198 673 OFFCURVE",
"205 666 OFFCURVE",
"213 642 CURVE SMOOTH",
"279 456 LINE SMOOTH"
);
},
{
closed = 1;
nodes = (
"319 592 OFFCURVE",
"358 648 OFFCURVE",
"392 684 CURVE SMOOTH",
"399 693 OFFCURVE",
"407 699 OFFCURVE",
"416 705 CURVE",
"380 705 LINE",
"395 682 LINE SMOOTH",
"409 662 OFFCURVE",
"423 652 OFFCURVE",
"441 652 CURVE SMOOTH",
"464 652 OFFCURVE",
"481 671 OFFCURVE",
"481 699 CURVE",
"475 726 OFFCURVE",
"452 738 OFFCURVE",
"431 738 CURVE SMOOTH",
"407 738 OFFCURVE",
"388 730 OFFCURVE",
"368 706 CURVE SMOOTH",
"348 680 OFFCURVE",
"315 634 OFFCURVE",
"280 574 CURVE",
"289 553 LINE"
);
}
);
width = 383.85127;
}
);
leftKerningGroup = sups_corner;
rightKerningGroup = sups_corner;
unicode = 02E3;
},
{
color = 0;
export = 0;
glyphname = y.sups;
lastChange = "2019-06-06 17:07:10 +0000";
layers = (
{
layerId = "7FECB189-581E-46CC-8EA5-5DBBB4FDF678";
paths = (
{
closed = 1;
nodes = (
"35 284 OFFCURVE",
"59 266 OFFCURVE",
"90 266 CURVE SMOOTH",
"129 266 OFFCURVE",
"166 289 OFFCURVE",
"201 326 CURVE SMOOTH",
"235 360 OFFCURVE",
"256 389 OFFCURVE",
"276 416 CURVE SMOOTH",
"314 467 OFFCURVE",
"339 510 OFFCURVE",
"364 547 CURVE SMOOTH",
"387 582 OFFCURVE",
"403 612 OFFCURVE",
"418 638 CURVE SMOOTH",
"433 666 OFFCURVE",
"441 683 OFFCURVE",
"441 706 CURVE SMOOTH",
"441 727 OFFCURVE",
"424 740 OFFCURVE",
"405 740 CURVE SMOOTH",
"374 740 OFFCURVE",
"359 720 OFFCURVE",
"342 645 CURVE SMOOTH",
"324 563 OFFCURVE",
"305 515 OFFCURVE",
"268 443 CURVE",
"260 432 OFFCURVE",
"212 378 OFFCURVE",
"201 368 CURVE SMOOTH",
"174 341 OFFCURVE",
"144 317 OFFCURVE",
"111 297 CURVE",
"145 306 LINE",
"114 341 OFFCURVE",
"100 351 OFFCURVE",
"79 351 CURVE SMOOTH",
"56 351 OFFCURVE",
"39 339 OFFCURVE",
"34 316 CURVE"
);
},
{
closed = 1;
nodes = (
"268 518 OFFCURVE",
"260 591 OFFCURVE",
"251 664 CURVE SMOOTH",
"243 719 OFFCURVE",
"230 738 OFFCURVE",
"198 738 CURVE SMOOTH",
"166 738 OFFCURVE",
"134 715 OFFCURVE",
"100 663 CURVE",
"115 648 LINE",
"131 666 OFFCURVE",
"141 672 OFFCURVE",
"149 672 CURVE SMOOTH",
"159 672 OFFCURVE",
"164 668 OFFCURVE",
"171 628 CURVE SMOOTH",
"187 541 OFFCURVE",
"200 452 OFFCURVE",
"212 363 CURVE",
"274 445 LINE"
);
}
);
width = 354.85127;
}
);
leftKerningGroup = sups_desc;
rightKerningGroup = sups_v;
unicode = 02B8;
},
{
color = 0;
export = 0;
glyphname = z.sups;
lastChange = "2019-06-06 17:07:10 +0000";
layers = (
{
layerId = "7FECB189-581E-46CC-8EA5-5DBBB4FDF678";
paths = (
{
closed = 1;
nodes = (
"324 396 OFFCURVE",
"393 467 OFFCURVE",
"393 525 CURVE SMOOTH",
"393 546 OFFCURVE",
"383 561 OFFCURVE",
"363 568 CURVE",
"342 565 OFFCURVE",
"323 550 OFFCURVE",
"323 526 CURVE SMOOTH",
"323 511 OFFCURVE",
"329 498 OFFCURVE",
"355 472 CURVE",
"369 488 LINE",
"353 480 OFFCURVE",
"332 472 OFFCURVE",
"309 472 CURVE SMOOTH",
"273 472 OFFCURVE",
"233 484 OFFCURVE",
"172 517 CURVE",
"144 474 LINE",
"198 417 OFFCURVE",
"237 396 OFFCURVE",
"270 396 CURVE SMOOTH"
);
},
{
closed = 1;
nodes = (
"158 479 LINE",
"184 499 OFFCURVE",
"317 608 OFFCURVE",
"344 631 CURVE SMOOTH",
"384 664 OFFCURVE",
"411 697 OFFCURVE",
"422 728 CURVE",
"415 735 LINE",
"370 729 LINE",
"342 666 LINE",
"315 642 OFFCURVE",
"166 516 OFFCURVE",
"139 494 CURVE SMOOTH",
"107 467 OFFCURVE",
"93 443 OFFCURVE",
"78 414 CURVE",
"83 409 LINE",
"134 415 LINE"
);
},
{
closed = 1;
nodes = (
"149 579 LINE",
"185 696 LINE",
"143 655 LINE",
"208 643 OFFCURVE",
"257 632 OFFCURVE",
"315 617 CURVE",
"361 672 LINE",
"302 699 OFFCURVE",
"247 719 OFFCURVE",
"186 739 CURVE",
"129 693 LINE",
"117 584 LINE"
);
}
);
width = 328.1788;
}
);
leftKerningGroup = sups_corner;
rightKerningGroup = sups_corner;
unicode = 1DBB;
},
{
color = 0;
export = 0;
glyphname = Delta.math;
lastChange = "2019-06-06 17:07:10 +0000";
layers = (
{
layerId = "7FECB189-581E-46CC-8EA5-5DBBB4FDF678";
paths = (
{
closed = 1;
nodes = (
"552 0 LINE",
"567 79 LINE",
"442 660 LINE",
"353 660 LINE",
"23 79 LINE",
"7 0 LINE"
);
},
{
closed = 1;
nodes = (
"349 566 LINE",
"331 569 LINE",
"434 60 LINE",
"456 87 LINE",
"59 87 LINE",
"74 63 LINE"
);
}
);
width = 631.25949;
}
);
unicode = 2206;
},
{
export = 0;
glyphname = Omega.math;
lastChange = "2019-06-06 17:07:10 +0000";
layers = (
{
layerId = "7FECB189-581E-46CC-8EA5-5DBBB4FDF678";
paths = (
{
closed = 1;
nodes = (
"272 94 LINE",
"65 94 LINE",
"101 60 LINE",
"94 187 LINE",
"32 187 LINE",
"19 0 LINE",
"272 0 LINE"
);
},
{
closed = 1;
nodes = (
"308 90 LINE",
"262 157 OFFCURVE",
"234 236 OFFCURVE",
"234 346 CURVE SMOOTH",
"234 520 OFFCURVE",
"305 622 OFFCURVE",
"406 622 CURVE SMOOTH",
"493 622 OFFCURVE",
"546 556 OFFCURVE",
"546 446 CURVE SMOOTH",
"546 318 OFFCURVE",
"482 171 OFFCURVE",
"392 90 CURVE",
"380 0 LINE",
"457 0 LINE",
"457 98 LINE",
"579 169 OFFCURVE",
"686 284 OFFCURVE",
"686 426 CURVE SMOOTH",
"686 579 OFFCURVE",
"577 678 OFFCURVE",
"420 678 CURVE SMOOTH",
"228 678 OFFCURVE",
"94 542 OFFCURVE",
"94 360 CURVE SMOOTH",
"94 252 OFFCURVE",
"157 151 OFFCURVE",
"244 98 CURVE",
"244 0 LINE",
"295 0 LINE"
);
},
{
closed = 1;
nodes = (
"696 187 LINE",
"635 187 LINE",
"589 62 LINE",
"629 94 LINE",
"427 94 LINE",
"427 0 LINE",
"657 0 LINE"
);
}
);
width = 739.48101;
}
);
unicode = 2126;
},
{
export = 0;
glyphname = pi;
lastChange = "2019-06-06 17:07:10 +0000";
layers = (
{
layerId = "7FECB189-581E-46CC-8EA5-5DBBB4FDF678";
paths = (
{
closed = 1;
nodes = (
"244 383 LINE",
"467 383 LINE",
"637 375 LINE",
"654 487 LINE",
"309 487 LINE SMOOTH",
"182 487 OFFCURVE",
"130 463 OFFCURVE",
"72 417 CURVE",
"70 361 LINE"
);
},
{
closed = 1;
nodes = (
"492 -15 OFFCURVE",
"549 12 OFFCURVE",
"580 43 CURVE",
"573 81 LINE",
"560 78 OFFCURVE",
"540 74 OFFCURVE",
"525 74 CURVE SMOOTH",
"496 74 OFFCURVE",
"475 85 OFFCURVE",
"475 119 CURVE SMOOTH",
"475 152 OFFCURVE",
"483 197 OFFCURVE",
"520 428 CURVE",
"434 428 LINE",
"378 241 OFFCURVE",
"344 132 OFFCURVE",
"344 71 CURVE SMOOTH",
"344 20 OFFCURVE",
"376 -15 OFFCURVE",
"433 -15 CURVE SMOOTH"
);
},
{
closed = 1;
nodes = (
"160 -15 OFFCURVE",
"208 31 OFFCURVE",
"233 137 CURVE SMOOTH",
"256 230 OFFCURVE",
"279 338 OFFCURVE",
"298 428 CURVE",
"243 428 LINE",
"218 318 OFFCURVE",
"189 209 OFFCURVE",
"154 100 CURVE",
"193 101 LINE",
"208 137 LINE",
"158 132 OFFCURVE",
"107 124 OFFCURVE",
"60 116 CURVE",
"41 100 OFFCURVE",
"23 78 OFFCURVE",
"23 49 CURVE SMOOTH",
"23 13 OFFCURVE",
"44 -15 OFFCURVE",
"94 -15 CURVE SMOOTH"
);
}
);
width = 609.41297;
}
);
unicode = 03C0;
},
{
color = 4;
glyphname = zero;
lastChange = "2019-06-06 17:07:10 +0000";
layers = (
{
layerId = "7FECB189-581E-46CC-8EA5-5DBBB4FDF678";
paths = (
{
closed = 1;
nodes = (
"383 -13 OFFCURVE",
"529 168 OFFCURVE",
"529 429 CURVE SMOOTH",
"529 573 OFFCURVE",
"457 647 OFFCURVE",
"343 647 CURVE SMOOTH",
"182 647 OFFCURVE",
"42 457 OFFCURVE",
"42 204 CURVE SMOOTH",
"42 62 OFFCURVE",
"115 -13 OFFCURVE",
"229 -13 CURVE SMOOTH"
);
},
{
closed = 1;
nodes = (
"195 7 OFFCURVE",
"165 42 OFFCURVE",
"165 187 CURVE SMOOTH",
"165 413 OFFCURVE",
"254 627 OFFCURVE",
"338 627 CURVE SMOOTH",
"374 627 OFFCURVE",
"406 592 OFFCURVE",
"406 454 CURVE SMOOTH",
"406 246 OFFCURVE",
"321 7 OFFCURVE",
"235 7 CURVE SMOOTH"
);
}
);
width = 538.08544;
}
);
unicode = 0030;
},
{
color = 4;
glyphname = one;
lastChange = "2019-06-06 17:07:10 +0000";
layers = (
{
layerId = "7FECB189-581E-46CC-8EA5-5DBBB4FDF678";
paths = (
{
closed = 1;
nodes = (
"301 0 LINE",
"303 10 LINE",
"259 22 LINE SMOOTH",
"227 31 OFFCURVE",
"213 52 OFFCURVE",
"220 86 CURVE SMOOTH",
"228 127 OFFCURVE",
"237 171 OFFCURVE",
"245 208 CURVE",
"305 496 LINE",
"338 641 LINE",
"333 648 LINE",
"258 612 OFFCURVE",
"178 583 OFFCURVE",
"92 567 CURVE",
"90 554 LINE",
"192 564 LINE",
"94 89 LINE SMOOTH",
"87 51 OFFCURVE",
"66 30 OFFCURVE",
"30 20 CURVE SMOOTH",
"-7 10 LINE",
"-9 0 LINE"
);
}
);
width = 384.06013;
}
);
unicode = 0031;
},
{
color = 4;
glyphname = two;
lastChange = "2019-06-06 17:07:10 +0000";
layers = (
{
layerId = "7FECB189-581E-46CC-8EA5-5DBBB4FDF678";
paths = (
{
closed = 1;
nodes = (
"427 0 LINE",
"445 103 LINE",
"95 103 LINE",
"214 184 LINE SMOOTH",
"389 298 OFFCURVE",
"500 389 OFFCURVE",
"500 498 CURVE SMOOTH",
"500 596 OFFCURVE",
"424 649 OFFCURVE",
"299 649 CURVE SMOOTH",
"236 649 OFFCURVE",
"170 632 OFFCURVE",
"130 609 CURVE",
"112 466 LINE",
"125 466 LINE",
"173 550 LINE SMOOTH",
"206 607 OFFCURVE",
"246 628 OFFCURVE",
"291 628 CURVE SMOOTH",
"348 628 OFFCURVE",
"383 591 OFFCURVE",
"383 519 CURVE SMOOTH",
"383 431 OFFCURVE",
"331 356 OFFCURVE",
"175 210 CURVE SMOOTH",
"30 79 LINE",
"14 0 LINE"
);
}
);
width = 508.75791;
}
);
unicode = 0032;
},
{
color = 4;
glyphname = three;
lastChange = "2019-06-06 17:07:10 +0000";
layers = (
{
layerId = "7FECB189-581E-46CC-8EA5-5DBBB4FDF678";
paths = (
{
closed = 1;
nodes = (
"346 -15 OFFCURVE",
"459 59 OFFCURVE",
"459 173 CURVE SMOOTH",
"459 259 OFFCURVE",
"410 312 OFFCURVE",
"297 326 CURVE",
"425 343 OFFCURVE",
"489 421 OFFCURVE",
"489 500 CURVE SMOOTH",
"489 594 OFFCURVE",
"420 649 OFFCURVE",
"292 649 CURVE SMOOTH",
"240 649 OFFCURVE",
"185 640 OFFCURVE",
"143 623 CURVE",
"120 470 LINE",
"133 470 LINE",
"178 555 LINE SMOOTH",
"205 606 OFFCURVE",
"240 629 OFFCURVE",
"287 629 CURVE SMOOTH",
"336 629 OFFCURVE",
"375 591 OFFCURVE",
"375 504 CURVE SMOOTH",
"375 384 OFFCURVE",
"300 332 OFFCURVE",
"219 332 CURVE SMOOTH",
"192 332 LINE",
"187 312 LINE",
"215 312 LINE SMOOTH",
"295 312 OFFCURVE",
"330 259 OFFCURVE",
"330 173 CURVE SMOOTH",
"330 63 OFFCURVE",
"277 5 OFFCURVE",
"200 5 CURVE SMOOTH",
"141 5 OFFCURVE",
"94 35 OFFCURVE",
"84 104 CURVE SMOOTH",
"73 175 LINE",
"55 175 LINE",
"17 38 LINE",
"64 5 OFFCURVE",
"131 -15 OFFCURVE",
"207 -15 CURVE SMOOTH"
);
}
);
width = 504.82595;
}
);
unicode = 0033;
},
{
color = 4;
glyphname = four;
lastChange = "2019-06-06 17:07:10 +0000";
layers = (
{
layerId = "7FECB189-581E-46CC-8EA5-5DBBB4FDF678";
paths = (
{
closed = 1;
nodes = (
"360 -20 LINE",
"494 641 LINE",
"413 641 LINE",
"27 226 LINE",
"12 154 LINE",
"498 154 LINE",
"513 231 LINE",
"49 231 LINE",
"54 220 LINE",
"380 568 LINE",
"367 568 LINE",
"248 -20 LINE"
);
}
);
width = 538.08544;
}
);
unicode = 0034;
},
{
color = 4;
glyphname = five;
lastChange = "2019-06-06 17:07:10 +0000";
layers = (
{
layerId = "7FECB189-581E-46CC-8EA5-5DBBB4FDF678";
paths = (
{
closed = 1;
nodes = (
"327 -15 OFFCURVE",
"446 69 OFFCURVE",
"446 210 CURVE SMOOTH",
"446 315 OFFCURVE",
"375 385 OFFCURVE",
"257 385 CURVE SMOOTH",
"211 385 OFFCURVE",
"152 367 OFFCURVE",
"122 341 CURVE",
"175 526 LINE",
"477 526 LINE",
"498 634 LINE",
"168 634 LINE",
"89 317 LINE",
"113 308 LINE",
"138 323 OFFCURVE",
"168 335 OFFCURVE",
"212 335 CURVE SMOOTH",
"281 335 OFFCURVE",
"317 282 OFFCURVE",
"317 199 CURVE SMOOTH",
"317 74 OFFCURVE",
"257 5 OFFCURVE",
"194 5 CURVE SMOOTH",
"147 5 OFFCURVE",
"115 28 OFFCURVE",
"92 85 CURVE SMOOTH",
"63 157 LINE",
"51 157 LINE",
"27 28 LINE",
"61 5 OFFCURVE",
"119 -15 OFFCURVE",
"182 -15 CURVE SMOOTH"
);
}
);
width = 493.64715;
}
);
unicode = 0035;
},
{
color = 4;
glyphname = six;
lastChange = "2019-06-06 17:07:10 +0000";
layers = (
{
layerId = "7FECB189-581E-46CC-8EA5-5DBBB4FDF678";
paths = (
{
closed = 1;
nodes = (
"364 -15 OFFCURVE",
"488 64 OFFCURVE",
"488 214 CURVE SMOOTH",
"488 313 OFFCURVE",
"430 383 OFFCURVE",
"324 383 CURVE SMOOTH",
"257 383 OFFCURVE",
"208 360 OFFCURVE",
"150 310 CURVE",
"152 287 LINE",
"196 329 OFFCURVE",
"229 343 OFFCURVE",
"264 343 CURVE SMOOTH",
"329 343 OFFCURVE",
"364 297 OFFCURVE",
"364 197 CURVE SMOOTH",
"364 82 OFFCURVE",
"315 5 OFFCURVE",
"253 5 CURVE SMOOTH",
"199 5 OFFCURVE",
"166 52 OFFCURVE",
"166 188 CURVE SMOOTH",
"166 413 OFFCURVE",
"290 591 OFFCURVE",
"531 630 CURVE",
"529 648 LINE",
"257 637 OFFCURVE",
"41 445 OFFCURVE",
"41 205 CURVE SMOOTH",
"41 65 OFFCURVE",
"119 -15 OFFCURVE",
"239 -15 CURVE SMOOTH"
);
}
);
width = 535.31962;
}
);
unicode = 0036;
},
{
color = 4;
glyphname = seven;
lastChange = "2019-06-06 17:07:10 +0000";
layers = (
{
layerId = "7FECB189-581E-46CC-8EA5-5DBBB4FDF678";
paths = (
{
closed = 1;
nodes = (
"164 0 LINE",
"502 563 LINE",
"516 634 LINE",
"104 634 LINE",
"84 534 LINE",
"469 534 LINE",
"480 562 LINE",
"34 9 LINE",
"39 0 LINE"
);
}
);
width = 446.28956;
}
);
unicode = 0037;
},
{
color = 4;
glyphname = eight;
lastChange = "2019-06-06 17:07:10 +0000";
layers = (
{
layerId = "7FECB189-581E-46CC-8EA5-5DBBB4FDF678";
paths = (
{
closed = 1;
nodes = (
"332 -15 OFFCURVE",
"434 61 OFFCURVE",
"434 174 CURVE SMOOTH",
"434 254 OFFCURVE",
"394 297 OFFCURVE",
"309 363 CURVE SMOOTH",
"221 431 OFFCURVE",
"191 470 OFFCURVE",
"191 527 CURVE SMOOTH",
"191 587 OFFCURVE",
"232 629 OFFCURVE",
"295 629 CURVE SMOOTH",
"351 629 OFFCURVE",
"389 591 OFFCURVE",
"389 517 CURVE SMOOTH",
"389 454 OFFCURVE",
"366 404 OFFCURVE",
"290 351 CURVE",
"300 343 LINE",
"415 389 OFFCURVE",
"472 439 OFFCURVE",
"472 521 CURVE SMOOTH",
"472 598 OFFCURVE",
"410 649 OFFCURVE",
"298 649 CURVE SMOOTH",
"177 649 OFFCURVE",
"90 574 OFFCURVE",
"90 470 CURVE SMOOTH",
"90 401 OFFCURVE",
"125 342 OFFCURVE",
"200 289 CURVE SMOOTH",
"300 213 OFFCURVE",
"328 178 OFFCURVE",
"328 116 CURVE SMOOTH",
"328 49 OFFCURVE",
"278 5 OFFCURVE",
"212 5 CURVE SMOOTH",
"144 5 OFFCURVE",
"105 52 OFFCURVE",
"105 126 CURVE SMOOTH",
"105 208 OFFCURVE",
"149 268 OFFCURVE",
"225 305 CURVE",
"217 314 LINE",
"94 275 OFFCURVE",
"19 210 OFFCURVE",
"19 122 CURVE SMOOTH",
"19 39 OFFCURVE",
"91 -15 OFFCURVE",
"205 -15 CURVE SMOOTH"
);
}
);
width = 490.42563;
}
);
unicode = 0038;
},
{
color = 4;
glyphname = nine;
lastChange = "2019-06-06 17:07:10 +0000";
layers = (
{
layerId = "7FECB189-581E-46CC-8EA5-5DBBB4FDF678";
paths = (
{
closed = 1;
nodes = (
"333 35 OFFCURVE",
"521 212 OFFCURVE",
"521 428 CURVE SMOOTH",
"521 567 OFFCURVE",
"447 648 OFFCURVE",
"322 648 CURVE SMOOTH",
"189 648 OFFCURVE",
"78 545 OFFCURVE",
"78 413 CURVE SMOOTH",
"78 314 OFFCURVE",
"149 247 OFFCURVE",
"252 247 CURVE SMOOTH",
"308 247 OFFCURVE",
"365 273 OFFCURVE",
"411 314 CURVE",
"405 324 LINE",
"364 299 OFFCURVE",
"330 287 OFFCURVE",
"297 287 CURVE SMOOTH",
"233 287 OFFCURVE",
"195 336 OFFCURVE",
"195 425 CURVE SMOOTH",
"195 545 OFFCURVE",
"254 628 OFFCURVE",
"320 628 CURVE SMOOTH",
"374 628 OFFCURVE",
"401 569 OFFCURVE",
"401 457 CURVE SMOOTH",
"401 225 OFFCURVE",
"304 84 OFFCURVE",
"62 0 CURVE",
"66 -17 LINE"
);
}
);
width = 528.70253;
}
);
leftMetricsKey = "=|six";
rightMetricsKey = "=|six";
unicode = 0039;
},
{
color = 0;
export = 0;
glyphname = zero.cap;
lastChange = "2019-06-06 17:07:10 +0000";
layers = (
{
layerId = "7FECB189-581E-46CC-8EA5-5DBBB4FDF678";
paths = (
{
closed = 1;
nodes = (
"399 -13 OFFCURVE",
"548 180 OFFCURVE",
"548 460 CURVE SMOOTH",
"548 604 OFFCURVE",
"477 678 OFFCURVE",
"362 678 CURVE SMOOTH",
"198 678 OFFCURVE",
"54 474 OFFCURVE",
"54 204 CURVE SMOOTH",
"54 62 OFFCURVE",
"127 -13 OFFCURVE",
"241 -13 CURVE SMOOTH"
);
},
{
closed = 1;
nodes = (
"207 37 OFFCURVE",
"178 67 OFFCURVE",
"178 187 CURVE SMOOTH",
"178 413 OFFCURVE",
"270 626 OFFCURVE",
"358 626 CURVE SMOOTH",
"394 626 OFFCURVE",
"425 597 OFFCURVE",
"425 485 CURVE SMOOTH",
"425 275 OFFCURVE",
"337 37 OFFCURVE",
"247 37 CURVE SMOOTH"
);
}
);
width = 535.89399;
}
);
leftKerningGroup = zero.lf;
rightKerningGroup = zero.lf;
},
{
color = 0;
export = 0;
glyphname = one.cap;
lastChange = "2019-06-06 17:07:10 +0000";
layers = (
{
layerId = "7FECB189-581E-46CC-8EA5-5DBBB4FDF678";
paths = (
{
closed = 1;
nodes = (
"138 580 LINE",
"266 586 LINE",
"242 613 LINE",
"117 0 LINE",
"245 0 LINE",
"258 68 OFFCURVE",
"271 139 OFFCURVE",
"285 208 CURVE SMOOTH",
"351 525 LINE",
"384 667 LINE",
"373 677 LINE",
"147 623 LINE"
);
},
{
closed = 1;
nodes = (
"162 62 LINE",
"32 44 LINE",
"23 0 LINE",
"345 0 LINE",
"354 44 LINE",
"230 62 LINE"
);
}
);
width = 404.97468;
}
);
leftKerningGroup = one.lf;
rightKerningGroup = one.lf;
},
{
color = 0;
export = 0;
glyphname = two.cap;
lastChange = "2019-06-06 17:07:10 +0000";
layers = (
{
layerId = "7FECB189-581E-46CC-8EA5-5DBBB4FDF678";
paths = (
{
closed = 1;
nodes = (
"453 0 LINE",
"476 112 LINE",
"122 112 LINE",
"129 88 LINE",
"251 188 LINE SMOOTH",
"430 332 OFFCURVE",
"533 406 OFFCURVE",
"533 526 CURVE SMOOTH",
"533 614 OFFCURVE",
"476 677 OFFCURVE",
"356 677 CURVE SMOOTH",
"246 677 OFFCURVE",
"159 635 OFFCURVE",
"129 511 CURVE",
"132 474 OFFCURVE",
"152 455 OFFCURVE",
"182 455 CURVE SMOOTH",
"219 455 OFFCURVE",
"242 476 OFFCURVE",
"247 545 CURVE SMOOTH",
"254 648 LINE",
"203 584 LINE",
"236 613 OFFCURVE",
"275 621 OFFCURVE",
"315 621 CURVE SMOOTH",
"372 621 OFFCURVE",
"407 589 OFFCURVE",
"407 526 CURVE SMOOTH",
"407 440 OFFCURVE",
"352 359 OFFCURVE",
"200 215 CURVE SMOOTH",
"55 79 LINE",
"39 0 LINE"
);
}
);
width = 530.35759;
}
);
leftKerningGroup = two.lf;
rightKerningGroup = two.lf;
},
{
color = 0;
export = 0;
glyphname = three.cap;
lastChange = "2019-06-06 17:07:10 +0000";
layers = (
{
layerId = "7FECB189-581E-46CC-8EA5-5DBBB4FDF678";
paths = (
{
closed = 1;
nodes = (
"371 -15 OFFCURVE",
"480 59 OFFCURVE",
"480 173 CURVE SMOOTH",
"480 278 OFFCURVE",
"425 332 OFFCURVE",
"301 346 CURVE",
"298 331 LINE",
"440 350 OFFCURVE",
"518 432 OFFCURVE",
"518 526 CURVE SMOOTH",
"518 610 OFFCURVE",
"463 678 OFFCURVE",
"335 678 CURVE SMOOTH",
"221 678 OFFCURVE",
"141 622 OFFCURVE",
"132 521 CURVE",
"139 503 OFFCURVE",
"160 489 OFFCURVE",
"182 489 CURVE SMOOTH",
"214 489 OFFCURVE",
"237 510 OFFCURVE",
"244 554 CURVE SMOOTH",
"258 648 LINE",
"212 605 LINE",
"243 620 OFFCURVE",
"276 626 OFFCURVE",
"303 626 CURVE SMOOTH",
"360 626 OFFCURVE",
"399 594 OFFCURVE",
"399 519 CURVE SMOOTH",
"399 413 OFFCURVE",
"324 362 OFFCURVE",
"250 362 CURVE SMOOTH",
"220 362 LINE",
"209 311 LINE",
"240 311 LINE SMOOTH",
"304 311 OFFCURVE",
"348 269 OFFCURVE",
"348 183 CURVE SMOOTH",
"348 84 OFFCURVE",
"280 37 OFFCURVE",
"209 37 CURVE SMOOTH",
"167 37 OFFCURVE",
"138 45 OFFCURVE",
"109 63 CURVE",
"156 19 LINE",
"154 115 LINE SMOOTH",
"153 173 OFFCURVE",
"133 191 OFFCURVE",
"99 192 CURVE SMOOTH",
"77 192 OFFCURVE",
"58 179 OFFCURVE",
"46 150 CURVE",
"46 38 OFFCURVE",
"115 -15 OFFCURVE",
"231 -15 CURVE SMOOTH"
);
}
);
width = 517.74051;
}
);
leftKerningGroup = three.lf;
rightKerningGroup = eight.lf;
},
{
color = 0;
export = 0;
glyphname = four.cap;
lastChange = "2019-06-06 17:07:10 +0000";
layers = (
{
layerId = "7FECB189-581E-46CC-8EA5-5DBBB4FDF678";
paths = (
{
closed = 1;
nodes = (
"532 237 LINE",
"91 237 LINE",
"95 220 LINE",
"413 586 LINE",
"390 586 LINE",
"266 -20 LINE",
"378 -20 LINE",
"519 670 LINE",
"426 670 LINE",
"47 236 LINE",
"30 154 LINE",
"516 154 LINE"
);
}
);
width = 526.85127;
}
);
leftKerningGroup = four.lf;
rightKerningGroup = four.lf;
},
{
color = 0;
export = 0;
glyphname = five.cap;
lastChange = "2019-06-06 17:07:10 +0000";
layers = (
{
layerId = "7FECB189-581E-46CC-8EA5-5DBBB4FDF678";
paths = (
{
closed = 1;
nodes = (
"363 -15 OFFCURVE",
"482 72 OFFCURVE",
"482 218 CURVE SMOOTH",
"482 330 OFFCURVE",
"411 404 OFFCURVE",
"292 404 CURVE SMOOTH",
"247 404 OFFCURVE",
"194 388 OFFCURVE",
"155 365 CURVE",
"184 361 LINE",
"255 627 LINE",
"209 552 LINE",
"518 552 LINE",
"540 660 LINE",
"210 660 LINE",
"127 336 LINE",
"159 324 LINE",
"181 337 OFFCURVE",
"208 346 OFFCURVE",
"247 346 CURVE SMOOTH",
"315 346 OFFCURVE",
"353 293 OFFCURVE",
"353 208 CURVE SMOOTH",
"353 97 OFFCURVE",
"285 36 OFFCURVE",
"208 36 CURVE SMOOTH",
"177 36 OFFCURVE",
"155 39 OFFCURVE",
"136 50 CURVE",
"162 13 LINE",
"158 99 LINE SMOOTH",
"155 157 OFFCURVE",
"145 184 OFFCURVE",
"103 184 CURVE SMOOTH",
"79 184 OFFCURVE",
"60 173 OFFCURVE",
"48 149 CURVE",
"44 46 OFFCURVE",
"107 -15 OFFCURVE",
"214 -15 CURVE SMOOTH"
);
}
);
width = 518.52373;
}
);
leftKerningGroup = five.lf;
rightKerningGroup = five.lf;
},
{
color = 0;
export = 0;
glyphname = six.cap;
lastChange = "2019-06-06 17:07:10 +0000";
layers = (
{
layerId = "7FECB189-581E-46CC-8EA5-5DBBB4FDF678";
paths = (
{
closed = 1;
nodes = (
"391 -15 OFFCURVE",
"514 65 OFFCURVE",
"514 219 CURVE SMOOTH",
"514 327 OFFCURVE",
"457 403 OFFCURVE",
"353 403 CURVE SMOOTH",
"287 403 OFFCURVE",
"237 381 OFFCURVE",
"179 331 CURVE",
"184 305 LINE",
"224 333 OFFCURVE",
"258 340 OFFCURVE",
"292 340 CURVE SMOOTH",
"356 340 OFFCURVE",
"390 299 OFFCURVE",
"390 202 CURVE SMOOTH",
"390 100 OFFCURVE",
"343 34 OFFCURVE",
"286 34 CURVE SMOOTH",
"227 34 OFFCURVE",
"193 76 OFFCURVE",
"193 193 CURVE SMOOTH",
"193 418 OFFCURVE",
"319 599 OFFCURVE",
"566 636 CURVE",
"561 678 LINE",
"286 667 OFFCURVE",
"67 463 OFFCURVE",
"67 210 CURVE SMOOTH",
"67 67 OFFCURVE",
"146 -15 OFFCURVE",
"266 -15 CURVE SMOOTH"
);
}
);
width = 533.34494;
}
);
leftKerningGroup = six.lf;
rightKerningGroup = six.lf;
},
{
color = 0;
export = 0;
glyphname = seven.cap;
lastChange = "2019-06-06 17:07:10 +0000";
layers = (
{
layerId = "7FECB189-581E-46CC-8EA5-5DBBB4FDF678";
paths = (
{
closed = 1;
nodes = (
"69 0 LINE",
"188 0 LINE",
"537 589 LINE",
"552 660 LINE",
"134 660 LINE",
"112 554 LINE",
"488 554 LINE",
"470 587 LINE",
"56 12 LINE"
);
}
);
width = 490.64715;
}
);
leftKerningGroup = seven.lf;
rightKerningGroup = seven.lf;
},
{
color = 0;
export = 0;
glyphname = eight.cap;
lastChange = "2019-06-06 17:07:10 +0000";
layers = (
{
layerId = "7FECB189-581E-46CC-8EA5-5DBBB4FDF678";
paths = (
{
closed = 1;
nodes = (
"383 -15 OFFCURVE",
"477 67 OFFCURVE",
"477 174 CURVE SMOOTH",
"477 252 OFFCURVE",
"448 302 OFFCURVE",
"356 368 CURVE SMOOTH",
"264 435 OFFCURVE",
"241 471 OFFCURVE",
"241 525 CURVE SMOOTH",
"241 584 OFFCURVE",
"279 629 OFFCURVE",
"343 629 CURVE SMOOTH",
"394 629 OFFCURVE",
"427 596 OFFCURVE",
"427 534 CURVE SMOOTH",
"427 472 OFFCURVE",
"410 419 OFFCURVE",
"315 363 CURVE",
"336 342 LINE",
"466 394 OFFCURVE",
"519 453 OFFCURVE",
"519 543 CURVE SMOOTH",
"519 611 OFFCURVE",
"458 678 OFFCURVE",
"346 678 CURVE SMOOTH",
"225 678 OFFCURVE",
"130 591 OFFCURVE",
"130 484 CURVE SMOOTH",
"130 410 OFFCURVE",
"167 353 OFFCURVE",
"242 299 CURVE SMOOTH",
"334 231 OFFCURVE",
"358 196 OFFCURVE",
"358 138 CURVE SMOOTH",
"358 74 OFFCURVE",
"316 34 OFFCURVE",
"252 34 CURVE SMOOTH",
"189 34 OFFCURVE",
"155 69 OFFCURVE",
"155 132 CURVE SMOOTH",
"155 201 OFFCURVE",
"188 258 OFFCURVE",
"279 308 CURVE",
"259 330 LINE",
"134 284 OFFCURVE",
"59 211 OFFCURVE",
"59 118 CURVE SMOOTH",
"59 41 OFFCURVE",
"127 -15 OFFCURVE",
"242 -15 CURVE SMOOTH"
);
}
);
width = 520.79589;
}
);
leftKerningGroup = eight.lf;
rightKerningGroup = eight.lf;
},
{
color = 0;
export = 0;
glyphname = nine.cap;
lastChange = "2019-06-06 17:07:10 +0000";
layers = (
{
layerId = "7FECB189-581E-46CC-8EA5-5DBBB4FDF678";
paths = (
{
closed = 1;
nodes = (
"77 -17 LINE",
"348 36 OFFCURVE",
"538 225 OFFCURVE",
"538 455 CURVE SMOOTH",
"538 595 OFFCURVE",
"466 677 OFFCURVE",
"344 677 CURVE SMOOTH",
"208 677 OFFCURVE",
"95 573 OFFCURVE",
"95 440 CURVE SMOOTH",
"95 329 OFFCURVE",
"156 253 OFFCURVE",
"260 253 CURVE SMOOTH",
"314 253 OFFCURVE",
"375 277 OFFCURVE",
"425 319 CURVE",
"419 343 LINE",
"378 319 OFFCURVE",
"345 308 OFFCURVE",
"312 308 CURVE SMOOTH",
"249 308 OFFCURVE",
"212 360 OFFCURVE",
"212 452 CURVE SMOOTH",
"212 551 OFFCURVE",
"274 630 OFFCURVE",
"336 630 CURVE SMOOTH",
"391 630 OFFCURVE",
"418 585 OFFCURVE",
"418 484 CURVE SMOOTH",
"418 252 OFFCURVE",
"308 99 OFFCURVE",
"68 27 CURVE"
);
}
);
width = 523.78323;
}
);
leftKerningGroup = nine.lf;
rightKerningGroup = nine.lf;
},
{
color = 0;
export = 0;
glyphname = zero.lf;
lastChange = "2019-06-06 17:07:10 +0000";
layers = (
{
layerId = "7FECB189-581E-46CC-8EA5-5DBBB4FDF678";
paths = (
{
closed = 1;
nodes = (
"396 -13 OFFCURVE",
"541 168 OFFCURVE",
"541 429 CURVE SMOOTH",
"541 573 OFFCURVE",
"469 647 OFFCURVE",
"355 647 CURVE SMOOTH",
"194 647 OFFCURVE",
"54 457 OFFCURVE",
"54 204 CURVE SMOOTH",
"54 62 OFFCURVE",
"127 -13 OFFCURVE",
"241 -13 CURVE SMOOTH"
);
},
{
closed = 1;
nodes = (
"207 7 OFFCURVE",
"178 42 OFFCURVE",
"178 187 CURVE SMOOTH",
"178 413 OFFCURVE",
"266 627 OFFCURVE",
"350 627 CURVE SMOOTH",
"387 627 OFFCURVE",
"418 592 OFFCURVE",
"418 454 CURVE SMOOTH",
"418 246 OFFCURVE",
"333 7 OFFCURVE",
"247 7 CURVE SMOOTH"
);
}
);
width = 535.89399;
}
);
leftKerningGroup = zero.lf;
rightKerningGroup = zero.lf;
},
{
color = 0;
export = 0;
glyphname = one.lf;
lastChange = "2019-06-06 17:07:10 +0000";
layers = (
{
layerId = "7FECB189-581E-46CC-8EA5-5DBBB4FDF678";
paths = (
{
closed = 1;
nodes = (
"132 551 LINE",
"260 556 LINE",
"236 584 LINE",
"117 0 LINE",
"245 0 LINE",
"258 68 OFFCURVE",
"271 139 OFFCURVE",
"285 208 CURVE SMOOTH",
"345 496 LINE",
"378 638 LINE",
"367 648 LINE",
"140 593 LINE"
);
},
{
closed = 1;
nodes = (
"162 62 LINE",
"32 44 LINE",
"23 0 LINE",
"345 0 LINE",
"354 44 LINE",
"230 62 LINE"
);
}
);
width = 404.97468;
}
);
leftKerningGroup = one.lf;
rightKerningGroup = one.lf;
},
{
color = 0;
export = 0;
glyphname = two.lf;
lastChange = "2019-06-06 17:07:10 +0000";
layers = (
{
layerId = "7FECB189-581E-46CC-8EA5-5DBBB4FDF678";
paths = (
{
closed = 1;
nodes = (
"453 0 LINE",
"476 112 LINE",
"122 112 LINE",
"129 88 LINE",
"251 184 LINE SMOOTH",
"425 318 OFFCURVE",
"526 386 OFFCURVE",
"526 498 CURVE SMOOTH",
"526 586 OFFCURVE",
"469 649 OFFCURVE",
"349 649 CURVE SMOOTH",
"239 649 OFFCURVE",
"152 606 OFFCURVE",
"122 483 CURVE",
"125 446 OFFCURVE",
"145 426 OFFCURVE",
"175 426 CURVE SMOOTH",
"212 426 OFFCURVE",
"235 448 OFFCURVE",
"240 517 CURVE SMOOTH",
"247 620 LINE",
"196 556 LINE",
"229 585 OFFCURVE",
"268 593 OFFCURVE",
"308 593 CURVE SMOOTH",
"365 593 OFFCURVE",
"400 561 OFFCURVE",
"400 498 CURVE SMOOTH",
"400 418 OFFCURVE",
"347 344 OFFCURVE",
"200 210 CURVE SMOOTH",
"55 79 LINE",
"39 0 LINE"
);
}
);
width = 530.35759;
}
);
leftKerningGroup = two.lf;
rightKerningGroup = two.lf;
},
{
color = 0;
export = 0;
glyphname = three.lf;
lastChange = "2019-06-06 17:07:10 +0000";
layers = (
{
layerId = "7FECB189-581E-46CC-8EA5-5DBBB4FDF678";
paths = (
{
closed = 1;
nodes = (
"371 -15 OFFCURVE",
"480 59 OFFCURVE",
"480 173 CURVE SMOOTH",
"480 268 OFFCURVE",
"424 317 OFFCURVE",
"296 330 CURVE",
"293 316 LINE",
"433 335 OFFCURVE",
"509 411 OFFCURVE",
"509 500 CURVE SMOOTH",
"509 583 OFFCURVE",
"455 649 OFFCURVE",
"327 649 CURVE SMOOTH",
"213 649 OFFCURVE",
"133 593 OFFCURVE",
"124 492 CURVE",
"131 474 OFFCURVE",
"151 460 OFFCURVE",
"173 460 CURVE SMOOTH",
"206 460 OFFCURVE",
"230 481 OFFCURVE",
"236 525 CURVE SMOOTH",
"249 619 LINE",
"204 577 LINE",
"235 591 OFFCURVE",
"268 598 OFFCURVE",
"295 598 CURVE SMOOTH",
"352 598 OFFCURVE",
"391 566 OFFCURVE",
"391 493 CURVE SMOOTH",
"391 394 OFFCURVE",
"318 346 OFFCURVE",
"246 346 CURVE SMOOTH",
"216 346 LINE",
"205 295 LINE",
"236 295 LINE SMOOTH",
"302 295 OFFCURVE",
"348 259 OFFCURVE",
"348 183 CURVE SMOOTH",
"348 84 OFFCURVE",
"280 37 OFFCURVE",
"209 37 CURVE SMOOTH",
"167 37 OFFCURVE",
"138 45 OFFCURVE",
"109 63 CURVE",
"156 19 LINE",
"154 115 LINE SMOOTH",
"153 173 OFFCURVE",
"133 191 OFFCURVE",
"99 192 CURVE SMOOTH",
"77 192 OFFCURVE",
"58 179 OFFCURVE",
"46 150 CURVE",
"46 38 OFFCURVE",
"115 -15 OFFCURVE",
"231 -15 CURVE SMOOTH"
);
}
);
width = 517.74051;
}
);
leftKerningGroup = three.lf;
rightKerningGroup = eight.lf;
},
{
color = 0;
export = 0;
glyphname = four.lf;
lastChange = "2019-06-06 17:07:10 +0000";
layers = (
{
layerId = "7FECB189-581E-46CC-8EA5-5DBBB4FDF678";
paths = (
{
closed = 1;
nodes = (
"532 237 LINE",
"91 237 LINE",
"95 220 LINE",
"405 557 LINE",
"383 557 LINE",
"266 -20 LINE",
"378 -20 LINE",
"512 641 LINE",
"419 641 LINE",
"47 236 LINE",
"30 154 LINE",
"516 154 LINE"
);
}
);
width = 526.85127;
}
);
leftKerningGroup = four.lf;
rightKerningGroup = four.lf;
},
{
color = 0;
export = 0;
glyphname = five.lf;
lastChange = "2019-06-06 17:07:10 +0000";
layers = (
{
layerId = "7FECB189-581E-46CC-8EA5-5DBBB4FDF678";
paths = (
{
closed = 1;
nodes = (
"363 -15 OFFCURVE",
"482 69 OFFCURVE",
"482 210 CURVE SMOOTH",
"482 315 OFFCURVE",
"411 385 OFFCURVE",
"290 385 CURVE SMOOTH",
"245 385 OFFCURVE",
"192 369 OFFCURVE",
"154 346 CURVE",
"182 342 LINE",
"249 601 LINE",
"203 526 LINE",
"512 526 LINE",
"534 634 LINE",
"204 634 LINE",
"125 317 LINE",
"158 305 LINE",
"179 318 OFFCURVE",
"206 327 OFFCURVE",
"245 327 CURVE SMOOTH",
"315 327 OFFCURVE",
"353 277 OFFCURVE",
"353 199 CURVE SMOOTH",
"353 93 OFFCURVE",
"285 36 OFFCURVE",
"208 36 CURVE SMOOTH",
"177 36 OFFCURVE",
"155 39 OFFCURVE",
"136 50 CURVE",
"162 13 LINE",
"158 99 LINE SMOOTH",
"155 157 OFFCURVE",
"145 184 OFFCURVE",
"103 184 CURVE SMOOTH",
"79 184 OFFCURVE",
"60 173 OFFCURVE",
"48 149 CURVE",
"44 46 OFFCURVE",
"107 -15 OFFCURVE",
"214 -15 CURVE SMOOTH"
);
}
);
width = 518.52373;
}
);
leftKerningGroup = five.lf;
rightKerningGroup = five.lf;
},
{
color = 0;
export = 0;
glyphname = six.lf;
lastChange = "2019-06-06 17:07:10 +0000";
layers = (
{
layerId = "7FECB189-581E-46CC-8EA5-5DBBB4FDF678";
paths = (
{
closed = 1;
nodes = (
"391 -15 OFFCURVE",
"514 64 OFFCURVE",
"514 214 CURVE SMOOTH",
"514 313 OFFCURVE",
"456 383 OFFCURVE",
"351 383 CURVE SMOOTH",
"284 383 OFFCURVE",
"234 360 OFFCURVE",
"176 310 CURVE",
"181 285 LINE",
"221 312 OFFCURVE",
"255 319 OFFCURVE",
"289 319 CURVE SMOOTH",
"355 319 OFFCURVE",
"390 284 OFFCURVE",
"390 197 CURVE SMOOTH",
"390 99 OFFCURVE",
"343 34 OFFCURVE",
"286 34 CURVE SMOOTH",
"227 34 OFFCURVE",
"193 75 OFFCURVE",
"193 188 CURVE SMOOTH",
"193 401 OFFCURVE",
"317 570 OFFCURVE",
"560 606 CURVE",
"555 648 LINE",
"284 637 OFFCURVE",
"67 445 OFFCURVE",
"67 205 CURVE SMOOTH",
"67 65 OFFCURVE",
"146 -15 OFFCURVE",
"266 -15 CURVE SMOOTH"
);
}
);
width = 533.34494;
}
);
leftKerningGroup = six.lf;
rightKerningGroup = six.lf;
},
{
color = 0;
export = 0;
glyphname = seven.lf;
lastChange = "2019-06-06 17:07:10 +0000";
layers = (
{
layerId = "7FECB189-581E-46CC-8EA5-5DBBB4FDF678";
paths = (
{
closed = 1;
nodes = (
"69 0 LINE",
"188 0 LINE",
"531 563 LINE",
"546 634 LINE",
"128 634 LINE",
"106 529 LINE",
"482 529 LINE",
"464 562 LINE",
"56 12 LINE"
);
}
);
width = 490.64715;
}
);
leftKerningGroup = seven.lf;
rightKerningGroup = seven.lf;
},
{
color = 0;
export = 0;
glyphname = eight.lf;
lastChange = "2019-06-06 17:07:10 +0000";
layers = (
{
layerId = "7FECB189-581E-46CC-8EA5-5DBBB4FDF678";
paths = (
{
closed = 1;
nodes = (
"383 -15 OFFCURVE",
"477 67 OFFCURVE",
"477 174 CURVE SMOOTH",
"477 248 OFFCURVE",
"445 292 OFFCURVE",
"353 358 CURVE SMOOTH",
"262 424 OFFCURVE",
"237 453 OFFCURVE",
"237 503 CURVE SMOOTH",
"237 559 OFFCURVE",
"274 600 OFFCURVE",
"337 600 CURVE SMOOTH",
"388 600 OFFCURVE",
"422 569 OFFCURVE",
"422 512 CURVE SMOOTH",
"422 454 OFFCURVE",
"404 407 OFFCURVE",
"312 353 CURVE",
"333 332 LINE",
"461 383 OFFCURVE",
"514 436 OFFCURVE",
"514 520 CURVE SMOOTH",
"514 586 OFFCURVE",
"453 649 OFFCURVE",
"340 649 CURVE SMOOTH",
"219 649 OFFCURVE",
"125 565 OFFCURVE",
"125 461 CURVE SMOOTH",
"125 392 OFFCURVE",
"165 342 OFFCURVE",
"239 289 CURVE SMOOTH",
"331 222 OFFCURVE",
"358 193 OFFCURVE",
"358 138 CURVE SMOOTH",
"358 74 OFFCURVE",
"316 34 OFFCURVE",
"252 34 CURVE SMOOTH",
"189 34 OFFCURVE",
"155 69 OFFCURVE",
"155 132 CURVE SMOOTH",
"155 197 OFFCURVE",
"189 250 OFFCURVE",
"277 298 CURVE",
"256 320 LINE",
"134 274 OFFCURVE",
"59 207 OFFCURVE",
"59 118 CURVE SMOOTH",
"59 41 OFFCURVE",
"127 -15 OFFCURVE",
"242 -15 CURVE SMOOTH"
);
}
);
width = 520.79589;
}
);
leftKerningGroup = eight.lf;
rightKerningGroup = eight.lf;
},
{
color = 0;
export = 0;
glyphname = nine.lf;
lastChange = "2019-06-06 17:07:10 +0000";
layers = (
{
layerId = "7FECB189-581E-46CC-8EA5-5DBBB4FDF678";
paths = (
{
closed = 1;
nodes = (
"77 -17 LINE",
"344 35 OFFCURVE",
"532 212 OFFCURVE",
"532 428 CURVE SMOOTH",
"532 567 OFFCURVE",
"460 648 OFFCURVE",
"338 648 CURVE SMOOTH",
"202 648 OFFCURVE",
"89 545 OFFCURVE",
"89 413 CURVE SMOOTH",
"89 314 OFFCURVE",
"151 247 OFFCURVE",
"256 247 CURVE SMOOTH",
"310 247 OFFCURVE",
"371 272 OFFCURVE",
"422 314 CURVE",
"415 337 LINE",
"374 313 OFFCURVE",
"341 302 OFFCURVE",
"308 302 CURVE SMOOTH",
"244 302 OFFCURVE",
"206 346 OFFCURVE",
"206 425 CURVE SMOOTH",
"206 523 OFFCURVE",
"268 601 OFFCURVE",
"330 601 CURVE SMOOTH",
"385 601 OFFCURVE",
"412 556 OFFCURVE",
"412 457 CURVE SMOOTH",
"412 239 OFFCURVE",
"303 98 OFFCURVE",
"68 27 CURVE"
);
}
);
width = 523.78323;
}
);
leftKerningGroup = nine.lf;
rightKerningGroup = nine.lf;
},
{
color = 0;
export = 0;
glyphname = zero.lfslash;
lastChange = "2019-06-06 17:07:10 +0000";
layers = (
{
components = (
{
alignment = -1;
name = zero.lf;
}
);
layerId = "7FECB189-581E-46CC-8EA5-5DBBB4FDF678";
paths = (
{
closed = 1;
nodes = (
"39 38 LINE",
"134 131 LINE",
"110 176 LINE",
"4 73 LINE"
);
},
{
closed = 1;
nodes = (
"589 574 LINE",
"554 609 LINE",
"468 525 LINE",
"492 479 LINE"
);
},
{
closed = 1;
nodes = (
"487 488 LINE",
"464 526 LINE",
"115 167 LINE",
"138 130 LINE"
);
}
);
width = 535.89399;
}
);
leftKerningGroup = zero.lf;
rightKerningGroup = zero.lf;
},
{
color = 0;
export = 0;
glyphname = zero.osf;
lastChange = "2019-06-06 17:07:10 +0000";
layers = (
{
layerId = "7FECB189-581E-46CC-8EA5-5DBBB4FDF678";
paths = (
{
closed = 1;
nodes = (
"415 -14 OFFCURVE",
"544 155 OFFCURVE",
"544 333 CURVE SMOOTH",
"544 468 OFFCURVE",
"464 535 OFFCURVE",
"356 535 CURVE SMOOTH",
"190 535 OFFCURVE",
"60 366 OFFCURVE",
"60 190 CURVE SMOOTH",
"60 50 OFFCURVE",
"141 -14 OFFCURVE",
"250 -14 CURVE SMOOTH"
);
},
{
closed = 1;
nodes = (
"216 37 OFFCURVE",
"190 66 OFFCURVE",
"190 165 CURVE SMOOTH",
"190 315 OFFCURVE",
"255 483 OFFCURVE",
"343 483 CURVE SMOOTH",
"387 483 OFFCURVE",
"414 457 OFFCURVE",
"414 358 CURVE SMOOTH",
"414 207 OFFCURVE",
"352 37 OFFCURVE",
"262 37 CURVE SMOOTH"
);
}
);
width = 549.48101;
}
);
},
{
color = 0;
export = 0;
glyphname = one.osf;
lastChange = "2019-06-06 17:07:10 +0000";
layers = (
{
layerId = "7FECB189-581E-46CC-8EA5-5DBBB4FDF678";
paths = (
{
closed = 1;
nodes = (
"364 0 LINE",
"373 44 LINE",
"249 64 LINE",
"184 64 LINE",
"50 44 LINE",
"40 0 LINE"
);
},
{
closed = 1;
nodes = (
"264 0 LINE",
"274 60 OFFCURVE",
"290 146 OFFCURVE",
"308 235 CURVE SMOOTH",
"338 379 LINE",
"370 520 LINE",
"357 531 LINE",
"132 475 LINE",
"123 429 LINE",
"224 438 LINE",
"136 0 LINE"
);
}
);
width = 418.80854;
}
);
},
{
color = 0;
export = 0;
glyphname = two.osf;
lastChange = "2019-06-06 17:07:10 +0000";
layers = (
{
layerId = "7FECB189-581E-46CC-8EA5-5DBBB4FDF678";
paths = (
{
closed = 1;
nodes = (
"458 105 LINE",
"134 105 LINE",
"136 83 LINE",
"260 166 LINE SMOOTH",
"412 265 OFFCURVE",
"488 314 OFFCURVE",
"488 404 CURVE SMOOTH",
"488 479 OFFCURVE",
"435 535 OFFCURVE",
"315 535 CURVE SMOOTH",
"203 535 OFFCURVE",
"126 477 OFFCURVE",
"110 372 CURVE",
"116 345 OFFCURVE",
"136 330 OFFCURVE",
"162 330 CURVE SMOOTH",
"196 330 OFFCURVE",
"217 352 OFFCURVE",
"223 402 CURVE SMOOTH",
"235 502 LINE",
"210 469 LINE",
"233 481 OFFCURVE",
"257 487 OFFCURVE",
"284 487 CURVE SMOOTH",
"333 487 OFFCURVE",
"361 455 OFFCURVE",
"361 399 CURVE SMOOTH",
"361 327 OFFCURVE",
"311 281 OFFCURVE",
"230 212 CURVE SMOOTH",
"58 69 LINE",
"45 0 LINE",
"437 0 LINE"
);
}
);
width = 492.61709;
}
);
},
{
color = 0;
export = 0;
glyphname = three.osf;
lastChange = "2019-06-06 17:07:10 +0000";
layers = (
{
layerId = "7FECB189-581E-46CC-8EA5-5DBBB4FDF678";
paths = (
{
closed = 1;
nodes = (
"336 -129 OFFCURVE",
"449 -55 OFFCURVE",
"449 58 CURVE SMOOTH",
"449 151 OFFCURVE",
"392 202 OFFCURVE",
"261 215 CURVE",
"259 201 LINE",
"409 221 OFFCURVE",
"494 295 OFFCURVE",
"494 386 CURVE SMOOTH",
"494 466 OFFCURVE",
"443 535 OFFCURVE",
"314 535 CURVE SMOOTH",
"199 535 OFFCURVE",
"118 479 OFFCURVE",
"102 382 CURVE",
"107 359 OFFCURVE",
"127 342 OFFCURVE",
"155 342 CURVE SMOOTH",
"189 342 OFFCURVE",
"215 365 OFFCURVE",
"221 408 CURVE SMOOTH",
"234 504 LINE",
"206 471 LINE",
"231 482 OFFCURVE",
"255 487 OFFCURVE",
"278 487 CURVE SMOOTH",
"340 487 OFFCURVE",
"377 452 OFFCURVE",
"377 379 CURVE SMOOTH",
"377 278 OFFCURVE",
"298 232 OFFCURVE",
"216 232 CURVE SMOOTH",
"183 232 LINE",
"172 182 LINE",
"204 182 LINE SMOOTH",
"272 182 OFFCURVE",
"321 146 OFFCURVE",
"321 65 CURVE SMOOTH",
"321 -32 OFFCURVE",
"246 -80 OFFCURVE",
"172 -80 CURVE SMOOTH",
"147 -80 OFFCURVE",
"127 -74 OFFCURVE",
"106 -63 CURVE",
"163 -96 LINE",
"136 -17 LINE SMOOTH",
"121 27 OFFCURVE",
"101 46 OFFCURVE",
"66 46 CURVE SMOOTH",
"36 46 OFFCURVE",
"15 26 OFFCURVE",
"9 -5 CURVE",
"23 -85 OFFCURVE",
"94 -129 OFFCURVE",
"194 -129 CURVE SMOOTH"
);
}
);
width = 496.72785;
}
);
},
{
color = 0;
export = 0;
glyphname = four.osf;
lastChange = "2019-06-06 17:07:10 +0000";
layers = (
{
layerId = "7FECB189-581E-46CC-8EA5-5DBBB4FDF678";
paths = (
{
closed = 1;
nodes = (
"543 127 LINE",
"91 127 LINE",
"100 112 LINE",
"404 444 LINE",
"381 444 LINE",
"266 -121 LINE",
"378 -121 LINE",
"510 528 LINE",
"417 528 LINE",
"45 121 LINE",
"30 43 LINE",
"527 43 LINE"
);
}
);
width = 562.24684;
}
);
},
{
color = 0;
export = 0;
glyphname = five.osf;
lastChange = "2019-06-06 17:07:10 +0000";
layers = (
{
layerId = "7FECB189-581E-46CC-8EA5-5DBBB4FDF678";
paths = (
{
closed = 1;
nodes = (
"331 -129 OFFCURVE",
"456 -37 OFFCURVE",
"456 100 CURVE SMOOTH",
"456 202 OFFCURVE",
"386 272 OFFCURVE",
"267 272 CURVE SMOOTH",
"216 272 OFFCURVE",
"170 256 OFFCURVE",
"130 233 CURVE",
"156 225 LINE",
"223 487 LINE",
"181 412 LINE",
"491 412 LINE",
"515 520 LINE",
"179 520 LINE",
"100 205 LINE",
"130 193 LINE",
"157 205 OFFCURVE",
"181 214 OFFCURVE",
"217 214 CURVE SMOOTH",
"285 214 OFFCURVE",
"327 170 OFFCURVE",
"327 92 CURVE SMOOTH",
"327 -25 OFFCURVE",
"255 -79 OFFCURVE",
"165 -79 CURVE SMOOTH",
"147 -79 OFFCURVE",
"130 -77 OFFCURVE",
"114 -71 CURVE",
"164 -94 LINE",
"137 -20 LINE SMOOTH",
"121 24 OFFCURVE",
"103 43 OFFCURVE",
"67 43 CURVE SMOOTH",
"36 43 OFFCURVE",
"14 27 OFFCURVE",
"8 -8 CURVE",
"23 -86 OFFCURVE",
"98 -129 OFFCURVE",
"185 -129 CURVE SMOOTH"
);
}
);
width = 479.11076;
}
);
},
{
color = 0;
export = 0;
glyphname = six.osf;
lastChange = "2019-06-06 17:07:10 +0000";
layers = (
{
layerId = "7FECB189-581E-46CC-8EA5-5DBBB4FDF678";
paths = (
{
closed = 1;
nodes = (
"386 -15 OFFCURVE",
"531 58 OFFCURVE",
"531 217 CURVE SMOOTH",
"531 311 OFFCURVE",
"477 385 OFFCURVE",
"377 385 CURVE SMOOTH",
"322 385 OFFCURVE",
"263 364 OFFCURVE",
"207 316 CURVE",
"213 288 LINE",
"248 314 OFFCURVE",
"284 325 OFFCURVE",
"320 325 CURVE SMOOTH",
"378 325 OFFCURVE",
"407 279 OFFCURVE",
"407 205 CURVE SMOOTH",
"407 104 OFFCURVE",
"355 34 OFFCURVE",
"287 34 CURVE SMOOTH",
"240 34 OFFCURVE",
"209 70 OFFCURVE",
"209 170 CURVE SMOOTH",
"209 364 OFFCURVE",
"341 573 OFFCURVE",
"583 606 CURVE",
"580 648 LINE",
"312 638 OFFCURVE",
"84 438 OFFCURVE",
"84 196 CURVE SMOOTH",
"84 66 OFFCURVE",
"162 -15 OFFCURVE",
"282 -15 CURVE SMOOTH"
);
}
);
width = 558.42563;
}
);
},
{
color = 0;
export = 0;
glyphname = seven.osf;
lastChange = "2019-06-06 17:07:10 +0000";
layers = (
{
layerId = "7FECB189-581E-46CC-8EA5-5DBBB4FDF678";
paths = (
{
closed = 1;
nodes = (
"520 428 LINE",
"539 520 LINE",
"106 520 LINE",
"82 406 LINE",
"467 406 LINE",
"459 432 LINE",
"53 -74 LINE",
"53 -90 LINE",
"143 -128 LINE"
);
}
);
width = 499.38291;
}
);
},
{
color = 0;
export = 0;
glyphname = eight.osf;
lastChange = "2019-06-06 17:07:10 +0000";
layers = (
{
layerId = "7FECB189-581E-46CC-8EA5-5DBBB4FDF678";
paths = (
{
closed = 1;
nodes = (
"396 -14 OFFCURVE",
"482 62 OFFCURVE",
"482 166 CURVE SMOOTH",
"482 236 OFFCURVE",
"442 286 OFFCURVE",
"357 354 CURVE SMOOTH",
"274 422 OFFCURVE",
"241 457 OFFCURVE",
"241 506 CURVE SMOOTH",
"241 559 OFFCURVE",
"273 600 OFFCURVE",
"333 600 CURVE SMOOTH",
"384 600 OFFCURVE",
"423 569 OFFCURVE",
"423 513 CURVE SMOOTH",
"423 458 OFFCURVE",
"406 410 OFFCURVE",
"318 350 CURVE",
"338 329 LINE",
"457 379 OFFCURVE",
"515 435 OFFCURVE",
"515 516 CURVE SMOOTH",
"515 586 OFFCURVE",
"447 649 OFFCURVE",
"336 649 CURVE SMOOTH",
"221 649 OFFCURVE",
"128 574 OFFCURVE",
"128 467 CURVE SMOOTH",
"128 398 OFFCURVE",
"172 347 OFFCURVE",
"246 288 CURVE SMOOTH",
"332 216 OFFCURVE",
"361 187 OFFCURVE",
"361 134 CURVE SMOOTH",
"361 70 OFFCURVE",
"320 34 OFFCURVE",
"259 34 CURVE SMOOTH",
"199 34 OFFCURVE",
"166 70 OFFCURVE",
"166 122 CURVE SMOOTH",
"166 194 OFFCURVE",
"201 248 OFFCURVE",
"283 295 CURVE",
"262 317 LINE",
"154 278 OFFCURVE",
"65 218 OFFCURVE",
"65 119 CURVE SMOOTH",
"65 46 OFFCURVE",
"133 -14 OFFCURVE",
"251 -14 CURVE SMOOTH"
);
}
);
width = 511.9193;
}
);
},
{
color = 0;
export = 0;
glyphname = nine.osf;
lastChange = "2019-06-06 17:07:10 +0000";
layers = (
{
layerId = "7FECB189-581E-46CC-8EA5-5DBBB4FDF678";
paths = (
{
closed = 1;
nodes = (
"338 -82 OFFCURVE",
"543 108 OFFCURVE",
"543 326 CURVE SMOOTH",
"543 456 OFFCURVE",
"472 535 OFFCURVE",
"356 535 CURVE SMOOTH",
"203 535 OFFCURVE",
"98 421 OFFCURVE",
"98 292 CURVE SMOOTH",
"98 196 OFFCURVE",
"158 131 OFFCURVE",
"251 131 CURVE SMOOTH",
"298 131 OFFCURVE",
"345 145 OFFCURVE",
"418 191 CURVE",
"417 226 LINE",
"365 195 OFFCURVE",
"337 187 OFFCURVE",
"307 187 CURVE SMOOTH",
"259 187 OFFCURVE",
"221 231 OFFCURVE",
"221 304 CURVE SMOOTH",
"221 400 OFFCURVE",
"275 484 OFFCURVE",
"344 484 CURVE SMOOTH",
"395 484 OFFCURVE",
"425 443 OFFCURVE",
"425 363 CURVE SMOOTH",
"425 159 OFFCURVE",
"299 -13 OFFCURVE",
"62 -87 CURVE",
"70 -131 LINE"
);
}
);
width = 557.80854;
}
);
},
{
color = 0;
export = 0;
glyphname = zero.slash;
lastChange = "2019-06-06 17:07:10 +0000";
layers = (
{
components = (
{
alignment = -1;
name = zero;
}
);
layerId = "7FECB189-581E-46CC-8EA5-5DBBB4FDF678";
paths = (
{
closed = 1;
nodes = (
"39 38 LINE",
"134 131 LINE",
"110 176 LINE",
"4 73 LINE"
);
},
{
closed = 1;
nodes = (
"589 574 LINE",
"554 609 LINE",
"468 525 LINE",
"492 479 LINE"
);
},
{
closed = 1;
nodes = (
"487 488 LINE",
"464 526 LINE",
"115 167 LINE",
"138 130 LINE"
);
}
);
width = 538.08544;
}
);
},
{
color = 0;
export = 0;
glyphname = one.tosf;
lastChange = "2019-06-06 17:07:10 +0000";
layers = (
{
layerId = "7FECB189-581E-46CC-8EA5-5DBBB4FDF678";
paths = (
{
closed = 1;
nodes = (
"455 0 LINE",
"464 44 LINE",
"308 64 LINE",
"244 64 LINE",
"75 44 LINE",
"65 0 LINE"
);
},
{
closed = 1;
nodes = (
"323 0 LINE",
"334 60 OFFCURVE",
"350 146 OFFCURVE",
"368 235 CURVE SMOOTH",
"397 379 LINE",
"429 520 LINE",
"417 531 LINE",
"170 474 LINE",
"161 428 LINE",
"284 438 LINE",
"195 0 LINE"
);
}
);
width = 538.08544;
}
);
},
{
color = 4;
glyphname = onesuperior;
lastChange = "2019-06-06 17:07:10 +0000";
layers = (
{
layerId = "7FECB189-581E-46CC-8EA5-5DBBB4FDF678";
paths = (
{
closed = 1;
nodes = (
"273 415 LINE",
"275 421 LINE",
"218 437 LINE",
"218 437 OFFCURVE",
"218 437 OFFCURVE",
"218 437 CURVE",
"224 468 OFFCURVE",
"234 518 OFFCURVE",
"240 545 CURVE SMOOTH",
"277 724 LINE",
"298 815 LINE",
"295 819 LINE",
"242 796 OFFCURVE",
"185 777 OFFCURVE",
"125 765 CURVE",
"123 756 LINE",
"187 761 LINE",
"121 437 LINE",
"121 437 OFFCURVE",
"121 437 OFFCURVE",
"121 437 CURVE",
"65 421 LINE",
"63 415 LINE"
);
}
);
width = 255.52373;
}
);
unicode = 00B9;
userData = {
RMXScaler = {
source = one;
};
};
},
{
color = 4;
glyphname = twosuperior;
lastChange = "2019-06-06 17:07:10 +0000";
layers = (
{
layerId = "7FECB189-581E-46CC-8EA5-5DBBB4FDF678";
paths = (
{
closed = 1;
nodes = (
"373 415 LINE",
"389 495 LINE",
"141 495 LINE",
"145 487 LINE",
"308 596 OFFCURVE",
"414 654 OFFCURVE",
"414 720 CURVE SMOOTH",
"414 775 OFFCURVE",
"373 816 OFFCURVE",
"293 816 CURVE SMOOTH",
"241 816 OFFCURVE",
"204 806 OFFCURVE",
"166 785 CURVE",
"153 693 LINE",
"163 693 LINE",
"246 793 LINE",
"198 774 LINE",
"221 779 OFFCURVE",
"244 793 OFFCURVE",
"268 793 CURVE SMOOTH",
"300 793 OFFCURVE",
"321 768 OFFCURVE",
"321 720 CURVE SMOOTH",
"321 669 OFFCURVE",
"283 618 OFFCURVE",
"111 474 CURVE",
"100 415 LINE"
);
}
);
width = 364.53639;
}
);
leftKerningGroup = sups_figures;
rightKerningGroup = sups_figures;
unicode = 00B2;
},
{
color = 4;
glyphname = threesuperior;
lastChange = "2019-06-06 17:07:10 +0000";
layers = (
{
layerId = "7FECB189-581E-46CC-8EA5-5DBBB4FDF678";
paths = (
{
closed = 1;
nodes = (
"297 405 OFFCURVE",
"368 454 OFFCURVE",
"368 522 CURVE SMOOTH",
"368 572 OFFCURVE",
"343 608 OFFCURVE",
"262 618 CURVE",
"352 630 OFFCURVE",
"387 683 OFFCURVE",
"387 726 CURVE SMOOTH",
"387 787 OFFCURVE",
"342 819 OFFCURVE",
"255 819 CURVE SMOOTH",
"221 819 OFFCURVE",
"187 814 OFFCURVE",
"164 806 CURVE",
"147 703 LINE",
"155 703 LINE",
"204 793 LINE",
"204 793 OFFCURVE",
"224 807 OFFCURVE",
"248 807 CURVE SMOOTH",
"277 807 OFFCURVE",
"302 784 OFFCURVE",
"302 729 CURVE SMOOTH",
"302 652 OFFCURVE",
"256 620 OFFCURVE",
"205 620 CURVE SMOOTH",
"192 620 LINE",
"189 608 LINE",
"204 608 LINE SMOOTH",
"248 608 OFFCURVE",
"271 573 OFFCURVE",
"271 520 CURVE SMOOTH",
"271 453 OFFCURVE",
"242 418 OFFCURVE",
"204 418 CURVE SMOOTH",
"159 418 OFFCURVE",
"134 441 OFFCURVE",
"134 441 CURVE",
"121 527 LINE",
"108 527 LINE",
"80 439 LINE",
"111 419 OFFCURVE",
"151 405 OFFCURVE",
"203 405 CURVE SMOOTH"
);
}
);
width = 327.46835;
}
);
unicode = 00B3;
userData = {
RMXScaler = {
source = three;
};
};
},
{
color = 4;
glyphname = foursuperior;
lastChange = "2019-06-06 17:07:10 +0000";
layers = (
{
layerId = "7FECB189-581E-46CC-8EA5-5DBBB4FDF678";
paths = (
{
closed = 1;
nodes = (
"307 402 LINE",
"390 814 LINE",
"327 814 LINE",
"89 556 LINE",
"78 501 LINE",
"389 501 LINE",
"399 556 LINE",
"99 556 LINE",
"104 549 LINE",
"300 761 LINE",
"294 761 LINE",
"222 402 LINE"
);
}
);
width = 346.0981;
}
);
unicode = 2074;
userData = {
RMXScaler = {
source = four;
};
};
},
{
color = 4;
glyphname = fraction;
lastChange = "2019-06-06 17:07:10 +0000";
layers = (
{
layerId = "7FECB189-581E-46CC-8EA5-5DBBB4FDF678";
paths = (
{
closed = 1;
nodes = (
"338 632 LINE",
"310 653 LINE",
"-162 0 LINE",
"-133 -19 LINE"
);
}
);
width = 116.33228;
}
);
unicode = 2044;
},
{
color = 0;
export = 0;
glyphname = zero.sups;
lastChange = "2019-06-06 17:07:10 +0000";
layers = (
{
layerId = "7FECB189-581E-46CC-8EA5-5DBBB4FDF678";
paths = (
{
closed = 1;
nodes = (
"343 406 OFFCURVE",
"434 510 OFFCURVE",
"434 673 CURVE SMOOTH",
"434 761 OFFCURVE",
"391 816 OFFCURVE",
"313 816 CURVE SMOOTH",
"205 816 OFFCURVE",
"114 703 OFFCURVE",
"114 550 CURVE SMOOTH",
"114 454 OFFCURVE",
"165 406 OFFCURVE",
"239 406 CURVE SMOOTH"
);
},
{
closed = 1;
nodes = (
"219 424 OFFCURVE",
"204 445 OFFCURVE",
"204 519 CURVE SMOOTH",
"204 656 OFFCURVE",
"259 797 OFFCURVE",
"309 797 CURVE SMOOTH",
"330 797 OFFCURVE",
"344 777 OFFCURVE",
"344 707 CURVE SMOOTH",
"344 591 OFFCURVE",
"293 424 OFFCURVE",
"240 424 CURVE SMOOTH"
);
}
);
width = 364.53639;
}
);
leftKerningGroup = sups_figures;
rightKerningGroup = sups_figures;
unicode = 2070;
},
{
color = 0;
export = 0;
glyphname = five.sups;
lastChange = "2019-06-06 17:07:10 +0000";
layers = (
{
layerId = "7FECB189-581E-46CC-8EA5-5DBBB4FDF678";
paths = (
{
closed = 1;
nodes = (
"328 406 OFFCURVE",
"402 461 OFFCURVE",
"402 548 CURVE SMOOTH",
"402 613 OFFCURVE",
"353 657 OFFCURVE",
"276 657 CURVE SMOOTH",
"245 657 OFFCURVE",
"207 645 OFFCURVE",
"179 627 CURVE",
"200 625 LINE",
"227 731 LINE",
"420 731 LINE",
"435 806 LINE",
"209 806 LINE",
"159 608 LINE",
"182 597 LINE",
"196 606 OFFCURVE",
"212 614 OFFCURVE",
"236 614 CURVE SMOOTH",
"277 614 OFFCURVE",
"300 584 OFFCURVE",
"300 540 CURVE SMOOTH",
"300 476 OFFCURVE",
"258 442 OFFCURVE",
"216 441 CURVE SMOOTH",
"173 441 OFFCURVE",
"160 445 OFFCURVE",
"142 455 CURVE",
"195 422 LINE",
"192 478 LINE SMOOTH",
"189 517 OFFCURVE",
"182 536 OFFCURVE",
"150 536 CURVE SMOOTH",
"132 536 OFFCURVE",
"118 528 OFFCURVE",
"110 511 CURVE",
"105 446 OFFCURVE",
"150 406 OFFCURVE",
"226 406 CURVE SMOOTH"
);
}
);
width = 364.53639;
}
);
leftKerningGroup = sups_figures;
rightKerningGroup = sups_figures;
unicode = 2075;
},
{
color = 0;
export = 0;
glyphname = six.sups;
lastChange = "2019-06-06 17:07:10 +0000";
layers = (
{
layerId = "7FECB189-581E-46CC-8EA5-5DBBB4FDF678";
paths = (
{
closed = 1;
nodes = (
"329 406 OFFCURVE",
"421 453 OFFCURVE",
"421 550 CURVE SMOOTH",
"421 613 OFFCURVE",
"383 657 OFFCURVE",
"310 657 CURVE SMOOTH",
"267 657 OFFCURVE",
"237 645 OFFCURVE",
"199 614 CURVE",
"200 596 LINE",
"225 611 OFFCURVE",
"242 615 OFFCURVE",
"261 615 CURVE SMOOTH",
"303 615 OFFCURVE",
"326 591 OFFCURVE",
"326 537 CURVE SMOOTH",
"326 483 OFFCURVE",
"300 440 OFFCURVE",
"263 440 CURVE SMOOTH",
"233 440 OFFCURVE",
"211 458 OFFCURVE",
"211 524 CURVE SMOOTH",
"211 656 OFFCURVE",
"282 765 OFFCURVE",
"441 786 CURVE",
"438 816 LINE",
"262 814 OFFCURVE",
"114 693 OFFCURVE",
"114 540 CURVE SMOOTH",
"114 456 OFFCURVE",
"167 406 OFFCURVE",
"249 406 CURVE SMOOTH"
);
}
);
width = 363.97468;
}
);
leftKerningGroup = sups_figures;
rightKerningGroup = sups_figures;
unicode = 2076;
},
{
color = 0;
export = 0;
glyphname = seven.sups;
lastChange = "2019-06-06 17:07:10 +0000";
layers = (
{
layerId = "7FECB189-581E-46CC-8EA5-5DBBB4FDF678";
paths = (
{
closed = 1;
nodes = (
"122 415 LINE",
"216 415 LINE",
"439 754 LINE",
"450 806 LINE",
"165 806 LINE",
"150 728 LINE",
"369 728 LINE",
"116 426 LINE"
);
}
);
width = 364.53639;
}
);
leftKerningGroup = sups_figures;
rightKerningGroup = sups_figures;
unicode = 2077;
},
{
color = 0;
export = 0;
glyphname = eight.sups;
lastChange = "2019-06-06 17:07:10 +0000";
layers = (
{
layerId = "7FECB189-581E-46CC-8EA5-5DBBB4FDF678";
paths = (
{
closed = 1;
nodes = (
"349 406 OFFCURVE",
"409 456 OFFCURVE",
"409 522 CURVE SMOOTH",
"409 567 OFFCURVE",
"388 594 OFFCURVE",
"326 641 CURVE SMOOTH",
"266 687 OFFCURVE",
"249 704 OFFCURVE",
"249 732 CURVE SMOOTH",
"249 759 OFFCURVE",
"270 781 OFFCURVE",
"308 781 CURVE SMOOTH",
"339 781 OFFCURVE",
"359 764 OFFCURVE",
"359 728 CURVE SMOOTH",
"359 699 OFFCURVE",
"348 670 OFFCURVE",
"296 636 CURVE",
"312 623 LINE",
"391 653 OFFCURVE",
"427 685 OFFCURVE",
"427 735 CURVE SMOOTH",
"427 776 OFFCURVE",
"386 816 OFFCURVE",
"307 816 CURVE SMOOTH",
"223 816 OFFCURVE",
"164 765 OFFCURVE",
"164 701 CURVE SMOOTH",
"164 655 OFFCURVE",
"193 626 OFFCURVE",
"239 592 CURVE SMOOTH",
"297 547 OFFCURVE",
"316 530 OFFCURVE",
"316 498 CURVE SMOOTH",
"316 462 OFFCURVE",
"295 441 OFFCURVE",
"253 441 CURVE SMOOTH",
"219 441 OFFCURVE",
"197 461 OFFCURVE",
"197 497 CURVE SMOOTH",
"197 537 OFFCURVE",
"215 567 OFFCURVE",
"272 599 CURVE",
"256 612 LINE",
"171 583 OFFCURVE",
"124 547 OFFCURVE",
"124 491 CURVE SMOOTH",
"124 442 OFFCURVE",
"172 406 OFFCURVE",
"249 406 CURVE SMOOTH"
);
}
);
width = 364.53639;
}
);
leftKerningGroup = sups_figures;
rightKerningGroup = sups_figures;
unicode = 2078;
},
{
color = 0;
export = 0;
glyphname = nine.sups;
lastChange = "2019-06-06 17:07:10 +0000";
layers = (
{
layerId = "7FECB189-581E-46CC-8EA5-5DBBB4FDF678";
paths = (
{
closed = 1;
nodes = (
"126 405 LINE",
"298 430 OFFCURVE",
"430 543 OFFCURVE",
"430 678 CURVE SMOOTH",
"430 766 OFFCURVE",
"380 816 OFFCURVE",
"296 816 CURVE SMOOTH",
"203 816 OFFCURVE",
"129 747 OFFCURVE",
"129 663 CURVE SMOOTH",
"129 599 OFFCURVE",
"167 557 OFFCURVE",
"229 557 CURVE SMOOTH",
"269 557 OFFCURVE",
"312 575 OFFCURVE",
"341 600 CURVE",
"337 616 LINE",
"314 602 OFFCURVE",
"294 596 OFFCURVE",
"275 596 CURVE SMOOTH",
"240 596 OFFCURVE",
"219 621 OFFCURVE",
"219 668 CURVE SMOOTH",
"219 732 OFFCURVE",
"255 782 OFFCURVE",
"291 782 CURVE SMOOTH",
"320 782 OFFCURVE",
"335 764 OFFCURVE",
"335 707 CURVE SMOOTH",
"335 565 OFFCURVE",
"269 476 OFFCURVE",
"120 436 CURVE"
);
}
);
width = 364.53639;
}
);
leftKerningGroup = sups_figures;
rightKerningGroup = sups_figures;
unicode = 2079;
},
{
color = 4;
glyphname = period;
lastChange = "2019-06-06 17:07:10 +0000";
layers = (
{
layerId = "7FECB189-581E-46CC-8EA5-5DBBB4FDF678";
paths = (
{
closed = 1;
nodes = (
"176 -13 OFFCURVE",
"219 25 OFFCURVE",
"219 75 CURVE SMOOTH",
"219 116 OFFCURVE",
"187 150 OFFCURVE",
"142 150 CURVE SMOOTH",
"94 150 OFFCURVE",
"51 111 OFFCURVE",
"51 60 CURVE SMOOTH",
"51 20 OFFCURVE",
"82 -13 OFFCURVE",
"128 -13 CURVE SMOOTH"
);
}
);
width = 307.86392;
}
);
leftKerningGroup = comma;
rightKerningGroup = comma;
unicode = 002E;
},
{
color = 4;
glyphname = comma;
lastChange = "2019-06-06 17:07:10 +0000";
layers = (
{
layerId = "7FECB189-581E-46CC-8EA5-5DBBB4FDF678";
paths = (
{
closed = 1;
nodes = (
"131 -129 OFFCURVE",
"210 -29 OFFCURVE",
"210 66 CURVE SMOOTH",
"210 117 OFFCURVE",
"181 150 OFFCURVE",
"135 150 CURVE SMOOTH",
"82 150 OFFCURVE",
"51 113 OFFCURVE",
"51 70 CURVE SMOOTH",
"51 38 OFFCURVE",
"73 8 OFFCURVE",
"108 -11 CURVE SMOOTH",
"145 -31 LINE",
"137 2 LINE",
"114 -75 OFFCURVE",
"67 -119 OFFCURVE",
"1 -146 CURVE",
"7 -161 LINE"
);
}
);
width = 307.86392;
}
);
leftKerningGroup = comma;
rightKerningGroup = comma;
unicode = 002C;
},
{
color = 4;
glyphname = exclam;
lastChange = "2019-06-06 17:07:10 +0000";
layers = (
{
layerId = "7FECB189-581E-46CC-8EA5-5DBBB4FDF678";
paths = (
{
closed = 1;
nodes = (
"164 213 LINE",
"278 462 OFFCURVE",
"323 555 OFFCURVE",
"323 610 CURVE SMOOTH",
"323 650 OFFCURVE",
"298 678 OFFCURVE",
"249 678 CURVE SMOOTH",
"203 678 OFFCURVE",
"167 655 OFFCURVE",
"157 598 CURVE SMOOTH",
"149 557 OFFCURVE",
"146 480 OFFCURVE",
"147 351 CURVE SMOOTH",
"146 213 LINE"
);
},
{
closed = 1;
nodes = (
"51 17 OFFCURVE",
"80 -14 OFFCURVE",
"121 -14 CURVE SMOOTH",
"166 -14 OFFCURVE",
"206 22 OFFCURVE",
"206 69 CURVE SMOOTH",
"206 107 OFFCURVE",
"178 140 OFFCURVE",
"136 140 CURVE SMOOTH",
"91 140 OFFCURVE",
"51 102 OFFCURVE",
"51 55 CURVE SMOOTH"
);
}
);
width = 298.98734;
}
);
unicode = 0021;
},
{
color = 4;
glyphname = exclamdown;
lastChange = "2019-06-06 21:00:10 +0000";
layers = (
{
layerId = "7FECB189-581E-46CC-8EA5-5DBBB4FDF678";
paths = (
{
closed = 1;
nodes = (
"97 -194 OFFCURVE",
"133 -171 OFFCURVE",
"143 -114 CURVE SMOOTH",
"151 -73 OFFCURVE",
"154 4 OFFCURVE",
"153 133 CURVE SMOOTH",
"154 271 LINE",
"136 271 LINE",
"22 22 OFFCURVE",
"-23 -71 OFFCURVE",
"-23 -126 CURVE SMOOTH",
"-23 -166 OFFCURVE",
"2 -194 OFFCURVE",
"51 -194 CURVE SMOOTH"
);
},
{
closed = 1;
nodes = (
"209 344 OFFCURVE",
"249 382 OFFCURVE",
"249 429 CURVE SMOOTH",
"249 467 OFFCURVE",
"220 498 OFFCURVE",
"179 498 CURVE SMOOTH",
"134 498 OFFCURVE",
"94 462 OFFCURVE",
"94 415 CURVE SMOOTH",
"94 377 OFFCURVE",
"122 344 OFFCURVE",
"164 344 CURVE SMOOTH"
);
}
);
width = 299;
}
);
leftMetricsKey = "=|exclam";
rightMetricsKey = "=|exclam";
unicode = 00A1;
},
{
color = 4;
glyphname = question;
lastChange = "2019-06-06 17:07:10 +0000";
layers = (
{
layerId = "7FECB189-581E-46CC-8EA5-5DBBB4FDF678";
paths = (
{
closed = 1;
nodes = (
"170 192 LINE",
"192 289 LINE",
"365 317 OFFCURVE",
"493 388 OFFCURVE",
"493 519 CURVE SMOOTH",
"493 633 OFFCURVE",
"414 678 OFFCURVE",
"294 678 CURVE SMOOTH",
"189 678 OFFCURVE",
"102 630 OFFCURVE",
"102 564 CURVE SMOOTH",
"102 529 OFFCURVE",
"124 505 OFFCURVE",
"157 505 CURVE SMOOTH",
"196 505 OFFCURVE",
"214 530 OFFCURVE",
"223 567 CURVE SMOOTH",
"227 587 LINE SMOOTH",
"239 633 OFFCURVE",
"266 658 OFFCURVE",
"303 658 CURVE SMOOTH",
"344 658 OFFCURVE",
"373 624 OFFCURVE",
"373 549 CURVE SMOOTH",
"373 462 OFFCURVE",
"293 396 OFFCURVE",
"158 372 CURVE",
"150 192 LINE"
);
},
{
closed = 1;
nodes = (
"184 -15 OFFCURVE",
"223 21 OFFCURVE",
"223 65 CURVE SMOOTH",
"223 102 OFFCURVE",
"195 133 OFFCURVE",
"154 133 CURVE SMOOTH",
"112 133 OFFCURVE",
"73 97 OFFCURVE",
"73 52 CURVE SMOOTH",
"73 15 OFFCURVE",
"102 -15 OFFCURVE",
"143 -15 CURVE SMOOTH"
);
}
);
width = 454.67247;
}
);
unicode = 003F;
},
{
color = 4;
glyphname = questiondown;
lastChange = "2019-06-06 20:42:12 +0000";
layers = (
{
layerId = "7FECB189-581E-46CC-8EA5-5DBBB4FDF678";
paths = (
{
closed = 1;
nodes = (
"267 -194 OFFCURVE",
"354 -146 OFFCURVE",
"354 -80 CURVE SMOOTH",
"354 -45 OFFCURVE",
"332 -21 OFFCURVE",
"299 -21 CURVE SMOOTH",
"260 -21 OFFCURVE",
"242 -46 OFFCURVE",
"233 -83 CURVE SMOOTH",
"229 -103 LINE SMOOTH",
"217 -149 OFFCURVE",
"190 -174 OFFCURVE",
"153 -174 CURVE SMOOTH",
"112 -174 OFFCURVE",
"83 -140 OFFCURVE",
"83 -65 CURVE SMOOTH",
"83 22 OFFCURVE",
"163 88 OFFCURVE",
"298 112 CURVE",
"306 292 LINE",
"286 292 LINE",
"264 195 LINE",
"91 167 OFFCURVE",
"-37 96 OFFCURVE",
"-37 -35 CURVE SMOOTH",
"-37 -149 OFFCURVE",
"42 -194 OFFCURVE",
"162 -194 CURVE SMOOTH"
);
},
{
closed = 1;
nodes = (
"344 351 OFFCURVE",
"383 387 OFFCURVE",
"383 432 CURVE SMOOTH",
"383 469 OFFCURVE",
"354 499 OFFCURVE",
"313 499 CURVE SMOOTH",
"272 499 OFFCURVE",
"233 463 OFFCURVE",
"233 419 CURVE SMOOTH",
"233 382 OFFCURVE",
"261 351 OFFCURVE",
"302 351 CURVE SMOOTH"
);
}
);
width = 455.23418;
}
);
leftMetricsKey = "=|question";
rightMetricsKey = "=|question";
unicode = 00BF;
},
{
color = 4;
glyphname = bullet;
lastChange = "2019-06-06 17:07:10 +0000";
layers = (
{
layerId = "7FECB189-581E-46CC-8EA5-5DBBB4FDF678";
paths = (
{
closed = 1;
nodes = (
"254 218 OFFCURVE",
"316 273 OFFCURVE",
"316 351 CURVE SMOOTH",
"316 411 OFFCURVE",
"270 459 OFFCURVE",
"205 459 CURVE SMOOTH",
"137 459 OFFCURVE",
"72 402 OFFCURVE",
"72 325 CURVE SMOOTH",
"72 265 OFFCURVE",
"118 218 OFFCURVE",
"184 218 CURVE SMOOTH"
);
}
);
width = 320.2769;
}
);
leftKerningGroup = periodcentered;
rightKerningGroup = periodcentered;
unicode = 2022;
},
{
color = 4;
glyphname = asterisk;
lastChange = "2019-06-06 17:07:10 +0000";
layers = (
{
layerId = "7FECB189-581E-46CC-8EA5-5DBBB4FDF678";
paths = (
{
closed = 1;
nodes = (
"250 739 OFFCURVE",
"238 714 OFFCURVE",
"238 692 CURVE SMOOTH",
"238 671 OFFCURVE",
"266 618 OFFCURVE",
"300 544 CURVE",
"221 575 OFFCURVE",
"175 600 OFFCURVE",
"150 600 CURVE SMOOTH",
"123 600 OFFCURVE",
"105 579 OFFCURVE",
"105 554 CURVE SMOOTH",
"105 503 OFFCURVE",
"177 503 OFFCURVE",
"296 521 CURVE",
"235 447 OFFCURVE",
"193 410 OFFCURVE",
"193 380 CURVE SMOOTH",
"193 354 OFFCURVE",
"215 338 OFFCURVE",
"238 338 CURVE SMOOTH",
"276 338 OFFCURVE",
"295 400 OFFCURVE",
"316 511 CURVE",
"372 421 OFFCURVE",
"400 369 OFFCURVE",
"436 371 CURVE SMOOTH",
"462 372 OFFCURVE",
"479 396 OFFCURVE",
"477 417 CURVE SMOOTH",
"475 450 OFFCURVE",
"426 475 OFFCURVE",
"333 527 CURVE",
"445 554 OFFCURVE",
"504 570 OFFCURVE",
"504 607 CURVE SMOOTH",
"504 637 OFFCURVE",
"484 654 OFFCURVE",
"459 654 CURVE SMOOTH",
"434 654 OFFCURVE",
"392 613 OFFCURVE",
"322 547 CURVE",
"327 623 OFFCURVE",
"335 676 OFFCURVE",
"331 696 CURVE SMOOTH",
"327 725 OFFCURVE",
"311 739 OFFCURVE",
"283 739 CURVE SMOOTH"
);
}
);
width = 472.13608;
}
);
leftKerningGroup = registered;
rightKerningGroup = registered;
unicode = 002A;
},
{
color = 4;
glyphname = numbersign;
lastChange = "2019-06-06 17:07:10 +0000";
layers = (
{
layerId = "7FECB189-581E-46CC-8EA5-5DBBB4FDF678";
paths = (
{
closed = 1;
nodes = (
"141 0 LINE",
"314 644 LINE",
"279 644 LINE",
"106 0 LINE"
);
},
{
closed = 1;
nodes = (
"41 175 LINE",
"530 175 LINE",
"537 212 LINE",
"48 212 LINE"
);
},
{
closed = 1;
nodes = (
"603 469 LINE",
"114 469 LINE",
"106 432 LINE",
"595 432 LINE"
);
},
{
closed = 1;
nodes = (
"366 0 LINE",
"539 644 LINE",
"504 644 LINE",
"330 0 LINE"
);
}
);
width = 581.52373;
}
);
unicode = 0023;
},
{
color = 4;
glyphname = slash;
lastChange = "2019-06-06 17:07:10 +0000";
layers = (
{
layerId = "7FECB189-581E-46CC-8EA5-5DBBB4FDF678";
paths = (
{
closed = 1;
nodes = (
"-20 -160 LINE",
"425 710 LINE",
"395 710 LINE",
"-50 -160 LINE"
);
}
);
width = 373.62184;
}
);
unicode = 002F;
},
{
color = 4;
glyphname = backslash;
lastChange = "2019-06-06 17:07:10 +0000";
layers = (
{
layerId = "7FECB189-581E-46CC-8EA5-5DBBB4FDF678";
paths = (
{
closed = 1;
nodes = (
"170 710 LINE",
"142 710 LINE",
"231 -160 LINE",
"259 -160 LINE"
);
}
);
width = 364.36234;
}
);
unicode = 005C;
},
{
color = 4;
glyphname = parenleft;
lastChange = "2019-06-06 17:07:10 +0000";
layers = (
{
layerId = "7FECB189-581E-46CC-8EA5-5DBBB4FDF678";
paths = (
{
closed = 1;
nodes = (
"260 -179 LINE",
"215 -70 OFFCURVE",
"190 36 OFFCURVE",
"190 168 CURVE SMOOTH",
"190 364 OFFCURVE",
"260 550 OFFCURVE",
"425 692 CURVE",
"411 713 LINE",
"194 585 OFFCURVE",
"84 390 OFFCURVE",
"84 183 CURVE SMOOTH",
"84 27 OFFCURVE",
"150 -95 OFFCURVE",
"240 -194 CURVE"
);
}
);
width = 386.79589;
}
);
leftKerningGroup = parenleft;
rightKerningGroup = parenleft;
unicode = 0028;
},
